<svg width="21" height="17" viewBox="0 0 21 17" fill="none" xmlns="http://www.w3.org/2000/svg">
<path d="M21 8.5L17.95 7.37C17.69 6.22 17.04 5.56 17.04 5.56C16.6509 5.17014 16.1887 4.86084 15.68 4.6498C15.1712 4.43876 14.6258 4.33014 14.075 4.33014C13.5242 4.33014 12.9788 4.43876 12.47 4.6498C11.9613 4.86084 11.4991 5.17014 11.11 5.56L9.63 7.04L3 0C2 4 3 8 5.45 11.22L0 16.5C0 16.5 8.89 18.5 14.07 14.45C16.83 12.29 17.45 11.03 17.84 9.7L21 8.5ZM15.71 8.72C15.32 9.11 14.68 9.11 14.29 8.72C14.1973 8.62749 14.1237 8.5176 14.0736 8.39662C14.0234 8.27565 13.9976 8.14597 13.9976 8.015C13.9976 7.88403 14.0234 7.75435 14.0736 7.63338C14.1237 7.5124 14.1973 7.40251 14.29 7.31C14.68 6.92 15.32 6.92 15.71 7.31C16.1 7.7 16.1 8.33 15.71 8.72Z" fill="#9E9E9E"/>
</svg>
