<?xml version="1.0" encoding="UTF-8"?><svg id="Capa_28" xmlns="http://www.w3.org/2000/svg" viewBox="0 0 20 20"><defs><style>.cls-1{fill:#556991;}</style></defs><path class="cls-1" d="m12.62,14.86c-1.43,0-2.81-.47-3.94-1.33-1.13-.86-1.93-2.07-2.28-3.44-.35-1.36-.23-2.8.34-4.09.57-1.29,1.56-2.35,2.82-3.03-1.2.15-2.35.61-3.32,1.32-.98.71-1.75,1.66-2.25,2.74-.5,1.09-.71,2.29-.62,3.48s.5,2.34,1.18,3.33c.67.99,1.59,1.8,2.67,2.35,1.08.55,2.28.81,3.49.77,1.21-.04,2.39-.38,3.43-1,1.04-.62,1.9-1.48,2.51-2.52-1.14.91-2.56,1.41-4.03,1.41Z"/><path class="cls-1" d="m12,6.77l1.77-.91-.34,1.93,1.43,1.37-1.97.29-.88,1.76-.88-1.76-1.97-.29,1.43-1.37-.34-1.93,1.76.91Z"/></svg>
