<svg width="272" height="137" viewBox="0 0 272 137" fill="none" xmlns="http://www.w3.org/2000/svg">
    <path d="M272 -8H0V137H272V-8Z" fill="#FF6F47" />
    <path d="M232.55 27.72C240.18 27.72 246.37 33.91 246.37 41.54C246.37 49.17 240.18 55.36 232.55 55.36C224.92 55.36 218.73 49.17 218.73 41.54C218.73 33.91 224.92 27.72 232.55 27.72ZM232.55 18.22C219.7 18.22 209.24 28.68 209.24 41.53C209.24 54.38 219.7 64.84 232.55 64.84C245.4 64.84 255.86 54.38 255.86 41.53C255.86 28.68 245.4 18.22 232.55 18.22Z" fill="#FF9375" />
    <path d="M167.85 99.31C155 99.31 144.54 109.77 144.54 122.62C144.54 128.04 146.41 133.04 149.52 137H186.18C189.3 133.04 191.16 128.04 191.16 122.62C191.16 109.77 180.7 99.31 167.85 99.31ZM167.85 136.44C160.22 136.44 154.03 130.25 154.03 122.62C154.03 114.99 160.22 108.8 167.85 108.8C175.48 108.8 181.67 114.99 181.67 122.62C181.66 130.25 175.48 136.44 167.85 136.44Z" fill="#FF9375" />
    <path d="M239.5 122.62C239.5 128.04 241.37 133.04 244.48 137H272V132.92C269.56 135.1 266.35 136.43 262.82 136.43C255.19 136.43 249 130.24 249 122.61C249 114.98 255.19 108.79 262.82 108.79C266.35 108.79 269.56 110.13 272 112.3V101.2C269.18 99.99 266.08 99.31 262.82 99.31C249.96 99.31 239.5 109.77 239.5 122.62Z" fill="#FF9375" />
    <path d="M244.34 136.78C241.32 132.85 239.51 127.95 239.51 122.62C239.51 117.29 241.33 112.39 244.34 108.46H186.33C189.35 112.39 191.16 117.29 191.16 122.62C191.16 127.95 189.34 132.85 186.33 136.78H244.34Z" fill="#FF9375" />
    <path d="M237.24 108.8C237.18 118.4 235.97 127.73 233.76 136.67H244.27C241.3 132.76 239.51 127.9 239.51 122.62C239.51 117.45 241.23 112.68 244.09 108.8H237.24Z" fill="#FF9375" />
    <path d="M210.81 33.18C214.18 24.44 222.64 18.22 232.55 18.22C232.59 18.22 232.62 18.23 232.66 18.23C224.97 8.39 216.04 -0.42 206.11 -8H146.26C172.08 -1.66 194.62 13.09 210.81 33.18Z" fill="#FF9375" />
    <path d="M0 22.1V88.34C7.85 41.18 43.42 3.27 89.35 -8H29.46C18.25 0.55 8.32 10.7 0 22.1Z" fill="#FF9375" />
    <path d="M0 127.59V136.67H1.86C1.12 133.69 0.51 130.66 0 127.59Z" fill="#FF9375" />
    <path d="M227.125 49.103L223.229 42.3535C223.079 42.094 223 41.7997 223 41.5001C223 41.2005 223.079 40.9061 223.229 40.6466L227.125 33.8972C227.275 33.6377 227.49 33.4222 227.75 33.2724C228.009 33.1225 228.304 33.0437 228.603 33.0437H236.396C237.006 33.0437 237.57 33.369 237.875 33.8972L241.771 40.6466C241.921 40.9061 242 41.2005 242 41.5001C242 41.7997 241.921 42.094 241.771 42.3535L237.875 49.103C237.725 49.3625 237.509 49.5779 237.25 49.7277C236.99 49.8775 236.696 49.9564 236.396 49.9563H228.603C228.304 49.9563 228.01 49.8775 227.75 49.7277C227.491 49.5779 227.275 49.3624 227.125 49.103" fill="#32324B" />
    <path opacity="0.07" d="M241.414 44.2995L236.305 39.1903L232.5 37.4922L228.863 39.4679L228.711 43.823L235.027 50.1376L237.498 50.1153L241.414 44.2995Z" fill="black" />
    <path d="M236.216 39.124L232.701 37.0948C232.64 37.0597 232.571 37.0412 232.501 37.0412C232.431 37.0412 232.361 37.0597 232.301 37.0948L228.786 39.124C228.725 39.1591 228.675 39.2097 228.64 39.2706C228.604 39.3315 228.586 39.4005 228.586 39.4709V43.529C228.586 43.6721 228.662 43.8043 228.786 43.8759L232.301 45.905C232.361 45.9402 232.431 45.9587 232.501 45.9587C232.571 45.9587 232.64 45.9402 232.701 45.905L236.216 43.8759C236.277 43.8407 236.327 43.7902 236.362 43.7293C236.397 43.6684 236.416 43.5993 236.416 43.529V39.4709C236.416 39.3278 236.34 39.1955 236.216 39.124ZM235.734 43.1407L234.507 42.4328V40.568L232.697 41.613V43.7044L234.312 42.7721L235.538 43.48L232.501 45.2334L229.464 43.48L230.69 42.7721L232.305 43.7044V41.613L230.494 40.568V42.4328L229.268 43.1407V39.634L232.305 37.8806V39.2964L230.69 40.2288L232.501 41.2738L234.311 40.2288L232.697 39.2964V37.8806L235.734 39.634V43.1407Z" fill="white" />
</svg>
