<svg width="272" height="137" viewBox="0 0 272 137" fill="none" xmlns="http://www.w3.org/2000/svg">
    <path d="M272 -8H0V137H272V-8Z" fill="#00B3EC" />
    <path d="M232.55 27.72C240.18 27.72 246.37 33.91 246.37 41.54C246.37 49.17 240.18 55.36 232.55 55.36C224.92 55.36 218.73 49.17 218.73 41.54C218.73 33.91 224.92 27.72 232.55 27.72ZM232.55 18.22C219.7 18.22 209.24 28.68 209.24 41.53C209.24 54.38 219.7 64.84 232.55 64.84C245.4 64.84 255.86 54.38 255.86 41.53C255.86 28.68 245.4 18.22 232.55 18.22Z" fill="#98E0F7" />
    <path d="M167.85 99.31C155 99.31 144.54 109.77 144.54 122.62C144.54 128.04 146.41 133.04 149.52 137H186.18C189.3 133.04 191.16 128.04 191.16 122.62C191.16 109.77 180.7 99.31 167.85 99.31ZM167.85 136.44C160.22 136.44 154.03 130.25 154.03 122.62C154.03 114.99 160.22 108.8 167.85 108.8C175.48 108.8 181.67 114.99 181.67 122.62C181.66 130.25 175.48 136.44 167.85 136.44Z" fill="#98E0F7" />
    <path d="M239.5 122.62C239.5 128.04 241.37 133.04 244.48 137H272V132.92C269.56 135.1 266.35 136.43 262.82 136.43C255.19 136.43 249 130.24 249 122.61C249 114.98 255.19 108.79 262.82 108.79C266.35 108.79 269.56 110.13 272 112.3V101.2C269.18 99.99 266.08 99.31 262.82 99.31C249.96 99.31 239.5 109.77 239.5 122.62Z" fill="#98E0F7" />
    <path d="M244.34 136.78C241.32 132.85 239.51 127.95 239.51 122.62C239.51 117.29 241.33 112.39 244.34 108.46H186.33C189.35 112.39 191.16 117.29 191.16 122.62C191.16 127.95 189.34 132.85 186.33 136.78H244.34Z" fill="#98E0F7" />
    <path d="M237.24 108.8C237.18 118.4 235.97 127.73 233.76 136.67H244.27C241.3 132.76 239.51 127.9 239.51 122.62C239.51 117.45 241.23 112.68 244.09 108.8H237.24Z" fill="#98E0F7" />
    <path d="M210.81 33.18C214.18 24.44 222.64 18.22 232.55 18.22C232.59 18.22 232.62 18.23 232.66 18.23C224.97 8.39 216.04 -0.42 206.11 -8H146.26C172.08 -1.66 194.62 13.09 210.81 33.18Z" fill="#98E0F7" />
    <path d="M0 22.1V88.34C7.85 41.18 43.42 3.27 89.35 -8H29.46C18.25 0.55 8.32 10.7 0 22.1Z" fill="#98E0F7" />
    <path d="M0 127.59V136.67H1.86C1.12 133.69 0.51 130.66 0 127.59Z" fill="#98E0F7" />
    <path d="M233.84 38.79L231.58 41.11V38.79H230.79V44.29H231.58V41.54L234.03 44.29H235.03L232.39 41.34L234.88 38.79H233.84Z" fill="#32324B" />
    <path d="M233.15 32.43V36.42C233.15 36.49 233.19 36.56 233.26 36.6L237.13 38.83C237.2 38.87 237.24 38.94 237.24 39.01V43.48C237.24 43.56 237.28 43.63 237.35 43.66L240.8 45.65C240.94 45.73 241.12 45.63 241.12 45.47V36.77C241.12 36.69 241.08 36.62 241.01 36.59L233.47 32.24C233.45 32.23 233.44 32.23 233.43 32.22C233.42 32.22 233.41 32.22 233.4 32.21C233.4 32.21 233.4 32.21 233.39 32.21C233.38 32.21 233.37 32.21 233.36 32.21C233.25 32.22 233.15 32.31 233.15 32.43Z" fill="#32324B" />
    <path d="M231.75 32.25L224.21 36.6C224.14 36.64 224.1 36.71 224.1 36.78V46.35C224.1 46.43 224.14 46.5 224.21 46.53L232.5 51.32C232.57 51.36 232.65 51.36 232.71 51.32L240.25 46.97C240.32 46.93 240.36 46.86 240.36 46.79C240.36 46.72 240.32 46.65 240.25 46.61L236.8 44.62C236.73 44.58 236.65 44.58 236.59 44.62L232.72 46.85C232.65 46.89 232.57 46.89 232.51 46.85L228.1 44.3C228.03 44.26 227.99 44.19 227.99 44.12V39.03C227.99 38.96 228.03 38.89 228.1 38.85L231.97 36.62C232.04 36.58 232.08 36.51 232.08 36.43V32.44C232.08 32.32 231.98 32.23 231.87 32.23C231.82 32.22 231.78 32.23 231.75 32.25Z" fill="#32324B" />
</svg>
