<svg width="272" height="137" viewBox="0 0 272 137" fill="none" xmlns="http://www.w3.org/2000/svg">
    <path d="M272 -8H0V137H272V-8Z" fill="#32324B" />
    <path d="M232.55 27.72C240.18 27.72 246.37 33.91 246.37 41.54C246.37 49.17 240.18 55.36 232.55 55.36C224.92 55.36 218.73 49.17 218.73 41.54C218.73 33.91 224.92 27.72 232.55 27.72ZM232.55 18.22C219.7 18.22 209.24 28.68 209.24 41.53C209.24 54.38 219.7 64.84 232.55 64.84C245.4 64.84 255.86 54.38 255.86 41.53C255.86 28.68 245.4 18.22 232.55 18.22Z" fill="#46465D" />
    <path d="M167.85 99.31C155 99.31 144.54 109.77 144.54 122.62C144.54 128.04 146.41 133.04 149.52 137H186.18C189.3 133.04 191.16 128.04 191.16 122.62C191.16 109.77 180.7 99.31 167.85 99.31ZM167.85 136.44C160.22 136.44 154.03 130.25 154.03 122.62C154.03 114.99 160.22 108.8 167.85 108.8C175.48 108.8 181.67 114.99 181.67 122.62C181.66 130.25 175.48 136.44 167.85 136.44Z" fill="#46465D" />
    <path d="M239.5 122.62C239.5 128.04 241.37 133.04 244.48 137H272V132.92C269.56 135.1 266.35 136.43 262.82 136.43C255.19 136.43 249 130.24 249 122.61C249 114.98 255.19 108.79 262.82 108.79C266.35 108.79 269.56 110.13 272 112.3V101.2C269.18 99.99 266.08 99.31 262.82 99.31C249.96 99.31 239.5 109.77 239.5 122.62Z" fill="#46465D" />
    <path d="M244.34 136.78C241.32 132.85 239.51 127.95 239.51 122.62C239.51 117.29 241.33 112.39 244.34 108.46H186.33C189.35 112.39 191.16 117.29 191.16 122.62C191.16 127.95 189.34 132.85 186.33 136.78H244.34Z" fill="#46465D" />
    <path d="M237.24 108.8C237.18 118.4 235.97 127.73 233.76 136.67H244.27C241.3 132.76 239.51 127.9 239.51 122.62C239.51 117.45 241.23 112.68 244.09 108.8H237.24Z" fill="#46465D" />
    <path d="M210.81 33.18C214.18 24.44 222.64 18.22 232.55 18.22C232.59 18.22 232.62 18.23 232.66 18.23C224.97 8.39 216.04 -0.42 206.11 -8H146.26C172.08 -1.66 194.62 13.09 210.81 33.18Z" fill="#46465D" />
    <path d="M0 22.1V88.34C7.85 41.18 43.42 3.27 89.35 -8H29.46C18.25 0.55 8.32 10.7 0 22.1Z" fill="#46465D" />
    <path d="M0 127.59V136.67H1.86C1.12 133.69 0.51 130.66 0 127.59Z" fill="#46465D" />
    <path d="M232.74 30.95C232.66 30.95 232.57 30.97 232.49 31C232.17 31.14 232.02 31.51 232.16 31.83C232.29 32.14 232.34 32.46 232.38 32.77C232.39 32.93 232.4 33.09 232.39 33.25C232.41 33.41 232.33 33.57 232.21 33.72C232.09 33.88 232.08 34.04 232.06 34.19C230.46 34.35 229.02 35.05 227.92 36.1L227.91 36.09C227.78 36 227.65 35.91 227.44 35.91C227.25 35.9 227.07 35.86 226.96 35.75C226.84 35.66 226.72 35.55 226.6 35.44C226.37 35.22 226.16 34.98 226 34.68C225.92 34.53 225.78 34.42 225.62 34.36C225.28 34.27 224.93 34.46 224.83 34.8C224.73 35.13 224.93 35.49 225.27 35.58C225.6 35.68 225.87 35.84 226.14 36.02C226.27 36.11 226.39 36.2 226.51 36.31C226.64 36.4 226.71 36.56 226.77 36.75C226.81 36.94 226.92 37.04 227.02 37.15C226.22 38.29 225.75 39.67 225.75 41.16C225.75 41.41 225.76 41.65 225.79 41.89C225.66 41.94 225.53 41.99 225.42 42.12C225.29 42.27 225.15 42.38 224.99 42.39C224.84 42.43 224.68 42.46 224.52 42.48C224.21 42.52 223.88 42.54 223.55 42.47C223.39 42.44 223.21 42.48 223.06 42.58C222.77 42.78 222.71 43.17 222.91 43.46C223.11 43.75 223.51 43.82 223.8 43.61C224.08 43.41 224.38 43.3 224.68 43.2C224.83 43.15 224.98 43.11 225.14 43.08C225.29 43.03 225.46 43.07 225.64 43.15C225.79 43.23 225.92 43.22 226.05 43.21C226.56 44.87 227.69 46.27 229.15 47.15C229.1 47.29 229.05 47.44 229.1 47.62C229.13 47.81 229.14 47.99 229.06 48.13C229 48.28 228.93 48.41 228.85 48.55C228.69 48.82 228.51 49.09 228.26 49.32C228.14 49.43 228.06 49.59 228.05 49.77C228.04 50.12 228.31 50.41 228.66 50.42C229.01 50.43 229.31 50.16 229.32 49.81C229.33 49.47 229.42 49.16 229.52 48.86C229.57 48.71 229.64 48.57 229.71 48.43C229.76 48.28 229.9 48.17 230.07 48.07C230.24 47.98 230.31 47.86 230.39 47.73C231.13 47.99 231.91 48.15 232.74 48.15C233.58 48.15 234.38 47.99 235.13 47.72C235.21 47.85 235.29 47.98 235.46 48.07C235.63 48.17 235.77 48.27 235.82 48.43C235.89 48.58 235.95 48.72 236 48.87C236.1 49.17 236.19 49.48 236.2 49.82C236.2 49.99 236.27 50.15 236.4 50.28C236.66 50.51 237.06 50.5 237.3 50.24C237.53 49.98 237.52 49.58 237.26 49.34C237 49.11 236.83 48.84 236.67 48.56C236.59 48.43 236.52 48.28 236.46 48.14C236.38 48 236.38 47.82 236.42 47.63C236.47 47.43 236.41 47.29 236.37 47.13V47.12C237.82 46.23 238.93 44.83 239.43 43.17H239.45C239.61 43.18 239.77 43.2 239.95 43.1C240.12 43.02 240.3 42.97 240.45 43.02C240.6 43.04 240.76 43.08 240.91 43.12C241.21 43.21 241.52 43.31 241.8 43.5C241.94 43.59 242.11 43.63 242.29 43.59C242.63 43.51 242.85 43.18 242.77 42.84C242.69 42.5 242.36 42.28 242.01 42.36C241.67 42.44 241.36 42.42 241.04 42.39C240.88 42.37 240.73 42.35 240.57 42.31C240.41 42.3 240.27 42.19 240.14 42.05C240.01 41.89 239.85 41.85 239.7 41.81H239.69C239.71 41.59 239.72 41.38 239.72 41.15C239.72 39.7 239.28 38.36 238.52 37.24C238.63 37.12 238.74 37.01 238.78 36.82C238.83 36.63 238.9 36.47 239.04 36.38C239.16 36.28 239.29 36.18 239.41 36.09C239.67 35.92 239.95 35.75 240.27 35.65C240.43 35.6 240.57 35.49 240.65 35.33C240.81 35.02 240.69 34.64 240.38 34.48C240.07 34.32 239.69 34.44 239.53 34.75C239.37 35.05 239.16 35.29 238.94 35.51C238.82 35.62 238.71 35.73 238.58 35.83C238.47 35.95 238.29 35.98 238.1 35.99C237.9 36 237.77 36.09 237.63 36.18C236.52 35.08 235.04 34.35 233.4 34.19C233.38 34.03 233.37 33.87 233.25 33.72C233.13 33.56 233.05 33.4 233.07 33.25C233.06 33.09 233.07 32.93 233.08 32.77C233.11 32.46 233.16 32.14 233.3 31.83C233.36 31.68 233.37 31.5 233.3 31.33C233.22 31.1 232.99 30.95 232.74 30.95ZM231.9 35.4L231.87 35.62C231.79 36.25 231.73 36.89 231.67 37.51C231.64 37.84 231.61 38.18 231.58 38.51C231.29 38.31 231.01 38.09 230.71 37.9C230.19 37.54 229.66 37.19 229.12 36.85L228.94 36.74C229.76 36.04 230.78 35.56 231.9 35.4ZM233.58 35.4C234.75 35.57 235.81 36.08 236.64 36.84L236.45 36.96C235.91 37.3 235.4 37.66 234.87 38.02C234.66 38.16 234.46 38.31 234.26 38.45C234.1 38.56 233.89 38.46 233.88 38.27C233.86 38.02 233.84 37.77 233.82 37.52C233.76 36.89 233.7 36.25 233.62 35.63L233.58 35.4ZM227.83 38.02L228.02 38.21C228.46 38.67 228.91 39.11 229.37 39.56C229.56 39.75 229.75 39.93 229.95 40.11C230.09 40.24 230.04 40.47 229.86 40.52C229.57 40.61 229.29 40.69 229 40.78C228.4 40.98 227.79 41.17 227.19 41.38L226.93 41.47C226.92 41.36 226.91 41.26 226.91 41.15C226.91 40.01 227.25 38.93 227.83 38.02ZM237.72 38.14C238.26 39.02 238.57 40.06 238.57 41.17C238.57 41.27 238.56 41.36 238.56 41.46L238.35 41.39C237.74 41.19 237.14 41.02 236.53 40.85C236.13 40.73 235.74 40.63 235.34 40.53C235.64 40.24 235.95 39.96 236.23 39.67C236.68 39.22 237.13 38.77 237.56 38.31L237.72 38.14ZM232.38 40H233.09C233.2 40 233.31 40.05 233.36 40.13L233.81 40.7C233.87 40.78 233.9 40.89 233.88 40.98L233.72 41.69C233.7 41.8 233.63 41.89 233.53 41.94L232.88 42.24C232.79 42.29 232.67 42.29 232.58 42.24L231.93 41.94C231.84 41.89 231.75 41.8 231.74 41.69L231.58 40.98C231.56 40.88 231.59 40.77 231.65 40.7L232.1 40.13C232.17 40.05 232.27 40 232.38 40ZM230.28 42.78C230.46 42.75 230.61 42.93 230.54 43.1C230.43 43.39 230.32 43.68 230.22 43.97C230 44.57 229.79 45.17 229.6 45.77L229.52 46.02C228.48 45.33 227.69 44.31 227.26 43.12L227.57 43.09C228.21 43.03 228.83 42.96 229.46 42.88C229.73 42.86 230 42.82 230.28 42.78ZM235.31 42.86C235.58 42.89 235.85 42.92 236.13 42.94C236.77 43 237.4 43.06 238.03 43.1L238.23 43.11C237.81 44.29 237.03 45.3 236.02 45.99L235.95 45.78C235.76 45.17 235.55 44.57 235.34 43.98C235.25 43.71 235.15 43.45 235.05 43.19C235 43.01 235.14 42.84 235.31 42.86ZM232.79 44.01C232.87 44.01 232.96 44.05 233 44.14C233.13 44.38 233.26 44.62 233.4 44.86C233.71 45.41 234.03 45.96 234.37 46.5L234.51 46.72C233.95 46.9 233.36 46.99 232.75 46.99C232.15 46.99 231.58 46.9 231.04 46.73L231.19 46.5C231.53 45.96 231.85 45.42 232.17 44.87C232.32 44.63 232.46 44.39 232.59 44.14C232.62 44.05 232.7 44.01 232.79 44.01Z" fill="#00D2FF" />
</svg>
