<svg width="24" height="24" viewBox="0 0 18 18" fill="none" xmlns="http://www.w3.org/2000/svg">
<path fill-rule="evenodd" clip-rule="evenodd" d="M5.15884 6.44985C4.94705 6.30064 4.94705 5.96474 5.15884 5.81565L9.0698 3.06111C9.18553 2.97963 9.33468 2.97963 9.45042 3.06111L13.3615 5.81565C13.5733 5.96474 13.5733 6.30064 13.3615 6.44985L9.45042 9.20439C9.33468 9.28587 9.18553 9.28587 9.0698 9.20439L5.15884 6.44985Z" fill="#1A1A1A"/>
<path fill-rule="evenodd" clip-rule="evenodd" d="M9.87658 6.93548H10.1479C10.3063 6.93548 10.4054 6.74969 10.3261 6.6011L9.43729 4.93322C9.35811 4.78463 9.16006 4.78463 9.08077 4.93322L8.19193 6.6011C8.11275 6.74969 8.21172 6.93548 8.37018 6.93548H8.64159C8.75523 6.93548 8.84732 7.03538 8.84732 7.15849V9.06224L9.02942 9.19052C9.16903 9.28891 9.34903 9.28891 9.48863 9.19052L9.67073 9.06224V7.15849C9.67073 7.03538 9.76283 6.93548 9.87658 6.93548Z" fill="white"/>
<path fill-rule="evenodd" clip-rule="evenodd" d="M10.6152 10.6161L9.67188 9.95174V10.2666C9.97972 10.4094 10.2963 10.5206 10.6152 10.6161Z" fill="#1A1A1A"/>
<path fill-rule="evenodd" clip-rule="evenodd" d="M9.67188 10.833V11.275C9.98356 11.378 10.299 11.4627 10.6111 11.546C11.6306 11.8184 12.5935 12.0754 13.3678 12.9144C13.4071 12.9569 13.444 13.0003 13.4806 13.0438C13.56 12.8794 13.5202 12.6625 13.3614 12.5507L11.8295 11.4716C11.4576 11.3387 11.0787 11.237 10.7043 11.1371C10.3511 11.0428 10.0058 10.9487 9.67188 10.833Z" fill="#1A1A1A"/>
<path fill-rule="evenodd" clip-rule="evenodd" d="M8.84767 10.4708C8.71552 10.3969 8.58535 10.3176 8.45972 10.2258L8.10938 10.4725C8.34562 10.6607 8.59303 10.8133 8.84767 10.9412V10.4708Z" fill="#1A1A1A"/>
<path fill-rule="evenodd" clip-rule="evenodd" d="M10.0208 11.8774C9.90369 11.8461 9.78738 11.8149 9.67188 11.783V12.2174C9.75734 12.2407 9.84268 12.2637 9.92768 12.2864C10.9472 12.5586 11.9101 12.8157 12.6844 13.6546C12.6857 13.6561 12.6869 13.6575 12.6883 13.659L13.0194 13.4257C12.9993 13.4029 12.9803 13.3794 12.9593 13.3568C12.1085 12.4349 11.0471 12.1515 10.0208 11.8774Z" fill="#1A1A1A"/>
<path fill-rule="evenodd" clip-rule="evenodd" d="M8.84872 11.5247C8.40569 11.3604 7.98584 11.1488 7.60278 10.8298L7.25977 11.0715C7.7475 11.5073 8.29054 11.7717 8.84872 11.9677V11.5247Z" fill="#1A1A1A"/>
<path fill-rule="evenodd" clip-rule="evenodd" d="M8.84744 12.4841C8.08493 12.2677 7.36782 12.0033 6.75516 11.4255L6.41797 11.663C7.13752 12.3812 7.99353 12.6814 8.84744 12.9192V12.4841Z" fill="#1A1A1A"/>
<path fill-rule="evenodd" clip-rule="evenodd" d="M9.67188 13.1435C10.4696 13.3667 11.2196 13.6334 11.855 14.2465L12.1903 14.0103C11.4479 13.2543 10.5571 12.9524 9.67188 12.7087V13.1435Z" fill="#1A1A1A"/>
<path fill-rule="evenodd" clip-rule="evenodd" d="M5.92065 12.0137L5.58789 12.248C5.59953 12.261 5.61013 12.2745 5.62212 12.2874C6.47312 13.2093 7.53429 13.4927 8.56064 13.7668C9.44948 14.0041 10.2951 14.2304 11.0105 14.8402L11.3516 14.5999C10.5457 13.8648 9.58559 13.6066 8.65378 13.3579C7.64455 13.0883 6.69097 12.8327 5.92065 12.0137Z" fill="#1A1A1A"/>
<path fill-rule="evenodd" clip-rule="evenodd" d="M5.21483 12.7307C5.17606 12.6887 5.13961 12.646 5.10352 12.603C4.95181 12.7676 4.96962 13.0514 5.15987 13.1853L6.31151 13.9965C6.82125 14.225 7.35427 14.368 7.87845 14.508C8.69674 14.7264 9.47846 14.9359 10.1557 15.4439L10.504 15.1984C9.73391 14.5713 8.84041 14.331 7.97148 14.0989C6.95212 13.8267 5.98922 13.5696 5.21483 12.7307Z" fill="#1A1A1A"/>
<path fill-rule="evenodd" clip-rule="evenodd" d="M8.96126 15.8631C9.03799 15.9034 9.11379 15.9459 9.18831 15.9916C9.27714 16.0119 9.37157 15.9951 9.45051 15.9395L9.64379 15.8034C9.02286 15.3535 8.33253 15.1255 7.64453 14.9357L8.96126 15.8631Z" fill="#1A1A1A"/>
</svg>
