<?xml version="1.0" encoding="UTF-8"?><svg id="Capa_29" xmlns="http://www.w3.org/2000/svg" viewBox="0 0 20 20"><defs><style>.cls-1{fill:#00b3ec;}.cls-2{fill:none;stroke:#00b3ec;stroke-linecap:round;stroke-miterlimit:10;}</style></defs><path class="cls-1" d="m10,5.97c-1.06,0-2.08.42-2.83,1.17-.75.75-1.17,1.77-1.17,2.83s.42,2.08,1.17,2.83c.75.75,1.77,1.17,2.83,1.17s2.08-.42,2.83-1.17c.75-.75,1.17-1.77,1.17-2.83,0-2.21-1.79-4-4-4Z"/><line class="cls-2" x1="10" y1="3.5" x2="10" y2="4.5"/><line class="cls-2" x1="5.41" y1="5.4" x2="6.11" y2="6.1"/><line class="cls-2" x1="3.5" y1="9.99" x2="4.5" y2="9.99"/><line class="cls-2" x1="5.4" y1="14.58" x2="6.1" y2="13.87"/><line class="cls-2" x1="9.99" y1="16.49" x2="9.99" y2="15.49"/><line class="cls-2" x1="14.58" y1="14.59" x2="13.87" y2="13.88"/><line class="cls-2" x1="16.49" y1="10" x2="15.49" y2="10"/><line class="cls-2" x1="14.59" y1="5.41" x2="13.88" y2="6.11"/></svg>
