<?xml version="1.0" encoding="UTF-8"?><svg id="Capa_1" xmlns="http://www.w3.org/2000/svg" viewBox="0 0 114 32"><defs><style>.cls-1{fill:#fff;}</style></defs><path class="cls-1" d="m10.72,21.05l-2.25-7.24-2.25,7.24h-3L0,10.42h2.91l1.98,7.16,2.33-7.16h2.49l2.33,7.16,1.98-7.16h2.91l-3.24,10.63h-2.97,0Z"/><path class="cls-1" d="m16.88,15.72c0-3.08,2.27-5.57,5.5-5.57s5.33,2.38,5.33,5.86v.62h-7.9c.18,1.34,1.25,2.47,3.06,2.47.9,0,2.16-.4,2.84-1.06l1.23,1.8c-1.06.97-2.73,1.48-4.38,1.48-3.24,0-5.68-2.18-5.68-5.59h0Zm5.5-3.35c-1.74,0-2.49,1.3-2.62,2.36h5.24c-.07-1.01-.77-2.36-2.62-2.36h0Z"/><path class="cls-1" d="m35.54,21.05v-1.1c-.73.86-1.98,1.37-3.37,1.37-1.7,0-3.7-1.15-3.7-3.52s2-3.43,3.7-3.43c1.41,0,2.66.46,3.37,1.3v-1.43c0-1.08-.92-1.78-2.33-1.78-1.15,0-2.2.42-3.1,1.25l-1.06-1.87c1.3-1.15,2.97-1.67,4.65-1.67,2.42,0,4.65.97,4.65,4.03v6.87h-2.8Zm0-2.55v-1.32c-.46-.62-1.34-.92-2.25-.92-1.1,0-2,.57-2,1.61s.9,1.56,2,1.56c.9,0,1.78-.31,2.25-.92h0Z"/><path class="cls-1" d="m42.86,21.05l-4.27-10.63h3l2.77,7.4,2.77-7.4h3.02l-4.27,10.63h-3.02Z"/><path class="cls-1" d="m49.79,15.72c0-3.08,2.27-5.57,5.5-5.57s5.33,2.38,5.33,5.86v.62h-7.9c.18,1.34,1.25,2.47,3.06,2.47.9,0,2.16-.4,2.84-1.06l1.23,1.8c-1.06.97-2.73,1.48-4.38,1.48-3.24,0-5.68-2.18-5.68-5.59h0Zm5.5-3.35c-1.74,0-2.49,1.3-2.62,2.36h5.24c-.07-1.01-.77-2.36-2.62-2.36h0Z"/><path class="cls-1" d="m62.27,23.76l.66-.88c.92,1.1,1.94,1.5,3.52,1.5,1.94,0,3.63-.97,3.63-3.41v-1.67c-.75,1.08-2.11,1.98-3.7,1.98-2.82,0-4.76-2.14-4.76-5.55s1.94-5.57,4.76-5.57c1.52,0,2.84.77,3.7,1.98v-1.72h1.17v10.52c0,3.26-2.2,4.43-4.8,4.43-1.78,0-2.93-.33-4.18-1.61h0Zm7.82-5.46v-5.17c-.62-1.03-2.03-1.94-3.5-1.94-2.36,0-3.72,1.96-3.72,4.54s1.37,4.51,3.72,4.51c1.48,0,2.88-.9,3.5-1.94h0Z"/><path class="cls-1" d="m73.79,7.86c0-.48.42-.86.88-.86s.88.37.88.86-.4.88-.88.88-.88-.4-.88-.88Zm.31,13.19v-10.63h1.15v10.63h-1.15Z"/><path class="cls-1" d="m78.51,19v-7.57h-1.76v-1.01h1.76v-2.91h1.17v2.91h2.16v1.01h-2.16v7.4c0,.86.35,1.45,1.1,1.45.51,0,.95-.24,1.19-.51l.44.88c-.42.4-.92.66-1.8.66-1.41,0-2.09-.86-2.09-2.31h0Z"/><path class="cls-1" d="m82.72,15.72c0-3.1,2-5.57,5.11-5.57s5.13,2.47,5.13,5.57-1.98,5.59-5.13,5.59-5.11-2.49-5.11-5.59Zm9,0c0-2.36-1.39-4.54-3.9-4.54s-3.88,2.18-3.88,4.54,1.41,4.56,3.88,4.56,3.9-2.18,3.9-4.56Z"/><path class="cls-1" d="m96.01,19.33v5.77h-1.15v-14.69h1.15v1.67c.75-1.08,2.11-1.94,3.7-1.94,2.84,0,4.76,2.16,4.76,5.57s-1.92,5.59-4.76,5.59c-1.5,0-2.84-.77-3.7-1.98h0Zm7.22-3.61c0-2.58-1.34-4.54-3.72-4.54-1.48,0-2.88.88-3.5,1.89v5.26c.62,1.01,2.03,1.94,3.5,1.94,2.38,0,3.72-1.98,3.72-4.56h0Z"/><path class="cls-1" d="m105.41,19.64l.68-.86c.68.86,1.94,1.56,3.43,1.56,1.78,0,2.84-.92,2.84-2.16,0-2.91-6.72-1.28-6.72-5.09,0-1.63,1.39-2.95,3.79-2.95,1.83,0,3.04.7,3.81,1.56l-.64.82c-.62-.84-1.76-1.41-3.17-1.41-1.65,0-2.66.84-2.66,1.94,0,2.66,6.71,1.03,6.71,5.13,0,1.72-1.32,3.13-3.98,3.13-1.72,0-3.04-.51-4.1-1.67h0Z"/></svg>