<?xml version="1.0" encoding="utf-8"?>
<!-- Generator: Adobe Illustrator 24.3.0, SVG Export Plug-In . SVG Version: 6.00 Build 0)  -->
<svg id="Capa_1" data-name="Capa 1" xmlns="http://www.w3.org/2000/svg" viewBox="0 0 70 72.85"><defs><style>.cls-1{fill:#fff;}.cls-2{fill:#32314a;}.cls-3{fill:#00d2ff;}.cls-4{fill:#ff4b19;}.cls-5{fill:#576a92;}</style></defs><ellipse class="cls-1" cx="35" cy="36.42" rx="35" ry="36.42"/><path class="cls-2" d="M55.43,39.06C54.15,49.74,45.47,58,35,58c-11.36,0-20.61-9.73-20.61-21.7S23.62,14.64,35,14.64a20.34,20.34,0,0,1,16.88,9.25h0c1.56-1.23,5.29-4.13,6.87-5.27A28.93,28.93,0,0,0,35,6C18.82,6,5.72,19.57,5.72,36.33S18.82,66.69,35,66.69c15.12,0,27.56-11.89,29.1-27.14C61.42,39.51,58.44,39.32,55.43,39.06Z"/><path class="cls-3" d="M51.56,40.83,30.44,63.41v2.91a28.38,28.38,0,0,0,4.54.37,28.77,28.77,0,0,0,4.85-.42l23.8-25.44Z"/><path class="cls-4" d="M32.6,43.06,15.82,59.27a29,29,0,0,0,7.57,4.94l15.34-14.8Z"/><path class="cls-3" d="M35,14.64a19.34,19.34,0,0,0-4.52.53V66.33a29.23,29.23,0,0,0,4.52.36,27.75,27.75,0,0,0,4.77-.41v-51A19.3,19.3,0,0,0,35,14.64Z"/><path class="cls-4" d="M14.38,35.69v22.2a29.37,29.37,0,0,0,8.71,6.19V18.62A22.05,22.05,0,0,0,14.38,35.69Z"/><path class="cls-5" d="M37.68,14.83,23.05,28.18V40.09L46.71,18.5A19.83,19.83,0,0,0,37.68,14.83Z"/><path class="cls-2" d="M55.57,36.43a22.72,22.72,0,0,1-1.08,7h9a31.77,31.77,0,0,0,.77-7c0-.63,0-1.25-.06-1.87H55.49C55.54,35.18,55.57,35.8,55.57,36.43Z"/><path class="cls-2" d="M44.61,34.56v8.82H63.45a32,32,0,0,0,.63-3.82v-5Z"/></svg>
