<?xml version="1.0" encoding="utf-8"?>
<!-- Generator: Adobe Illustrator 24.3.0, SVG Export Plug-In . SVG Version: 6.00 Build 0)  -->
<svg version="1.1" id="Capa_1" xmlns="http://www.w3.org/2000/svg" xmlns:xlink="http://www.w3.org/1999/xlink" x="0px" y="0px"
	 viewBox="0 0 140 45" style="enable-background:new 0 0 140 45;" xml:space="preserve">
<style type="text/css">
	.st0{fill:#FFFFFF;}
	.st1{display:none;fill:#FFFFFF;}
</style>
<g>
	<g>
		<path class="st0" d="M28.22,16.46c0-0.81,0.06-1.6,0.18-2.38L21.94,3.75h11.43l0.35,0.56c0.72-0.64,1.5-1.22,2.33-1.72L35.4,1.54
			c-0.26-0.42-0.73-0.68-1.23-0.68H19.33c-0.53,0-1.01,0.29-1.26,0.74c-0.25,0.46-0.24,1.02,0.04,1.47l10.47,16.76
			C28.34,18.74,28.22,17.62,28.22,16.46z"/>
		<path class="st0" d="M39.55,31.94c-1.87-0.59-3.59-1.52-5.1-2.7l8.88,14.21c0.27,0.44,0.75,0.68,1.23,0.68
			c0.26,0,0.53-0.07,0.76-0.22c0.68-0.42,0.88-1.31,0.46-1.99L39.55,31.94z"/>
	</g>
	<g>
		<path class="st0" d="M38.35,44.19c-0.48,0-0.95-0.24-1.23-0.68L12.32,3.82H5.75L29.6,41.98c0.42,0.68,0.22,1.57-0.46,1.99
			c-0.68,0.42-1.57,0.22-1.99-0.46L1.91,3.14C1.63,2.7,1.62,2.13,1.87,1.67s0.74-0.74,1.26-0.74h9.99c0.5,0,0.96,0.26,1.23,0.68
			l25.23,40.37c0.42,0.68,0.22,1.57-0.46,1.99C38.88,44.12,38.62,44.19,38.35,44.19z"/>
	</g>
	<path class="st0" d="M33.09,0.59"/>
	<g>
		<path class="st0" d="M38.35,44.19h-9.99c-0.8,0-1.45-0.65-1.45-1.45s0.65-1.45,1.45-1.45h9.99c0.8,0,1.45,0.65,1.45,1.45
			S39.15,44.19,38.35,44.19z"/>
	</g>
	<g>
		<path class="st1" d="M49.56,19.85c-1.05,0-1.9-0.85-1.9-1.9s0.85-1.9,1.9-1.9s1.9,0.85,1.9,1.9C51.46,19,50.61,19.85,49.56,19.85z
			"/>
		<g>
			<path class="st0" d="M49.56,16.54c0.78,0,1.41,0.63,1.41,1.41s-0.63,1.41-1.41,1.41s-1.41-0.63-1.41-1.41
				C48.15,17.18,48.78,16.54,49.56,16.54 M49.56,15.57c-1.31,0-2.38,1.07-2.38,2.38c0,1.31,1.07,2.38,2.38,2.38s2.38-1.07,2.38-2.38
				C51.94,16.64,50.87,15.57,49.56,15.57L49.56,15.57z"/>
		</g>
	</g>
	<g>
		<path class="st0" d="M59.26,16.54c0.78,0,1.41,0.63,1.41,1.41s-0.63,1.41-1.41,1.41s-1.41-0.63-1.41-1.41
			C57.85,17.18,58.48,16.54,59.26,16.54 M59.26,15.57c-1.31,0-2.38,1.07-2.38,2.38c0,1.31,1.07,2.38,2.38,2.38s2.38-1.07,2.38-2.38
			S60.57,15.57,59.26,15.57L59.26,15.57z"/>
	</g>
	<g>
		<path class="st0" d="M57.37,19.4c-0.31-0.4-0.49-0.9-0.49-1.45c0-0.54,0.19-1.04,0.49-1.45h-5.92c0.31,0.4,0.49,0.9,0.49,1.45
			c0,0.54-0.19,1.04-0.49,1.45H57.37z"/>
	</g>
	<g>
		<path class="st0" d="M59.26,20.33c-0.73,0-1.39-0.33-1.83-0.86L43.41,41.91c-0.42,0.68-0.22,1.57,0.46,1.99
			c0.24,0.15,0.5,0.22,0.76,0.22c0.48,0,0.95-0.24,1.23-0.68l14.67-23.48C60.16,20.2,59.73,20.33,59.26,20.33z"/>
		<path class="st0" d="M71.13,1.6c-0.25-0.46-0.74-0.74-1.26-0.74H55.03c-0.5,0-0.96,0.26-1.23,0.68l-0.74,1.18
			c0.82,0.52,1.6,1.11,2.31,1.76l0.45-0.72h11.43l-7.43,11.9c1.04,0.25,1.82,1.19,1.82,2.31c0,0.09-0.01,0.18-0.02,0.26l9.47-15.15
			C71.37,2.62,71.38,2.06,71.13,1.6z"/>
	</g>
	<g>
		<g>
			<path class="st0" d="M56.88,17.95c0-0.53,0.18-1.02,0.47-1.41h-0.7c-0.04,6.69-5.5,12.11-12.19,12.11
				c-6.72,0-12.19-5.47-12.19-12.19S37.74,4.27,44.46,4.27c3.83,0,7.26,1.78,9.49,4.55c0.34-0.89,1.21-1.53,2.22-1.53h0.01
				c-2.72-3.48-6.96-5.72-11.72-5.72c-8.22,0-14.89,6.67-14.89,14.89s6.66,14.89,14.89,14.89c6.9,0,12.69-4.69,14.39-11.05
				C57.73,20.1,56.88,19.12,56.88,17.95z"/>
		</g>
		<g>
			<path class="st0" d="M56.17,8.27c0.78,0,1.41,0.63,1.41,1.41s-0.63,1.41-1.41,1.41s-1.41-0.63-1.41-1.41S55.39,8.27,56.17,8.27
				 M56.17,7.3c-1.31,0-2.38,1.07-2.38,2.38s1.07,2.38,2.38,2.38s2.38-1.07,2.38-2.38S57.48,7.3,56.17,7.3L56.17,7.3z"/>
		</g>
	</g>
</g>
<g>
	<g>
		<path class="st0" d="M88.82,20.27l-2.46-9.92h-0.04l-2.43,9.91h-3.24L76.79,5.7h3.2l2.3,9.92h0.04l2.54-9.91h3l2.48,10.04h0.04
			l2.39-10.03h3.14L92,20.27H88.82z"/>
		<path class="st0" d="M99.13,17.75c0.43,0.42,1.06,0.63,1.88,0.63c0.58,0,1.09-0.15,1.51-0.44c0.42-0.29,0.68-0.6,0.78-0.93h2.55
			c-0.41,1.26-1.03,2.17-1.88,2.71c-0.84,0.54-1.86,0.81-3.06,0.81c-0.83,0-1.58-0.13-2.24-0.4C98,19.86,97.44,19.49,96.98,19
			s-0.82-1.07-1.07-1.75s-0.38-1.43-0.38-2.24c0-0.79,0.13-1.52,0.39-2.2c0.26-0.68,0.63-1.27,1.1-1.76c0.48-0.5,1.04-0.89,1.7-1.17
			c0.66-0.29,1.39-0.43,2.19-0.43c0.9,0,1.68,0.17,2.35,0.52c0.67,0.35,1.21,0.81,1.64,1.4c0.43,0.59,0.74,1.25,0.93,2
			s0.26,1.53,0.2,2.35h-7.61C98.45,16.65,98.69,17.33,99.13,17.75z M102.4,12.2c-0.35-0.38-0.87-0.57-1.58-0.57
			c-0.46,0-0.85,0.08-1.15,0.23c-0.31,0.16-0.55,0.35-0.73,0.58s-0.31,0.48-0.39,0.73c-0.08,0.26-0.12,0.49-0.13,0.69h4.71
			C102.99,13.14,102.75,12.58,102.4,12.2z"/>
		<path class="st0" d="M107.16,12.98c0.04-0.68,0.21-1.24,0.51-1.69c0.3-0.45,0.68-0.81,1.14-1.08c0.46-0.27,0.98-0.47,1.56-0.58
			c0.58-0.12,1.16-0.17,1.74-0.17c0.53,0,1.07,0.04,1.61,0.11c0.54,0.08,1.04,0.22,1.49,0.44c0.45,0.22,0.82,0.52,1.1,0.91
			c0.29,0.39,0.43,0.9,0.43,1.54v5.49c0,0.48,0.03,0.93,0.08,1.37s0.15,0.76,0.29,0.98h-2.94c-0.05-0.16-0.1-0.33-0.13-0.5
			s-0.06-0.34-0.07-0.52c-0.46,0.48-1.01,0.81-1.63,1c-0.63,0.19-1.26,0.28-1.92,0.28c-0.5,0-0.97-0.06-1.41-0.18
			s-0.82-0.31-1.14-0.57c-0.33-0.26-0.58-0.58-0.76-0.98c-0.18-0.39-0.28-0.86-0.27-1.41c0-0.6,0.11-1.09,0.32-1.48
			c0.21-0.39,0.48-0.7,0.82-0.93c0.33-0.23,0.71-0.4,1.14-0.52c0.43-0.12,0.86-0.21,1.3-0.27c0.44-0.07,0.86-0.12,1.29-0.16
			c0.42-0.04,0.8-0.1,1.12-0.18c0.33-0.08,0.58-0.2,0.78-0.36c0.19-0.16,0.28-0.38,0.27-0.68c0-0.31-0.05-0.56-0.15-0.74
			c-0.1-0.18-0.24-0.33-0.41-0.43c-0.17-0.1-0.37-0.17-0.59-0.2c-0.22-0.03-0.47-0.05-0.72-0.05c-0.57,0-1.02,0.12-1.35,0.37
			c-0.33,0.24-0.52,0.65-0.57,1.22L107.16,12.98z M113.84,15.12c-0.12,0.11-0.28,0.19-0.46,0.25s-0.38,0.11-0.59,0.15
			s-0.43,0.07-0.66,0.1c-0.23,0.03-0.46,0.06-0.69,0.1c-0.22,0.04-0.43,0.1-0.64,0.16c-0.21,0.07-0.39,0.16-0.55,0.28
			c-0.16,0.12-0.28,0.26-0.38,0.44s-0.14,0.4-0.14,0.67c0,0.26,0.05,0.48,0.14,0.65c0.09,0.18,0.22,0.32,0.39,0.42
			c0.16,0.1,0.35,0.17,0.57,0.21c0.22,0.04,0.44,0.06,0.67,0.06c0.57,0,1.01-0.09,1.33-0.28c0.31-0.19,0.54-0.42,0.69-0.68
			c0.15-0.27,0.24-0.53,0.28-0.81c0.03-0.27,0.05-0.49,0.05-0.65L113.84,15.12z"/>
		<path class="st0" d="M120.93,20.29l-3.6-10.55h3.04l2.22,7.2h0.04l2.23-7.2h2.88l-3.58,10.54L120.93,20.29z"/>
		<path class="st0" d="M131.3,17.77c0.43,0.42,1.06,0.63,1.88,0.63c0.58,0,1.09-0.15,1.51-0.44s0.68-0.6,0.78-0.93h2.55
			c-0.41,1.26-1.03,2.17-1.88,2.71c-0.84,0.54-1.86,0.81-3.06,0.81c-0.83,0-1.58-0.13-2.24-0.4c-0.67-0.27-1.23-0.64-1.69-1.13
			s-0.82-1.07-1.07-1.75s-0.38-1.43-0.38-2.24c0-0.79,0.13-1.52,0.39-2.2c0.26-0.68,0.63-1.27,1.1-1.76c0.48-0.5,1.04-0.89,1.7-1.17
			c0.66-0.29,1.39-0.43,2.19-0.43c0.9,0,1.68,0.17,2.35,0.52c0.67,0.35,1.21,0.81,1.64,1.4c0.43,0.59,0.74,1.25,0.93,2
			c0.19,0.75,0.26,1.53,0.2,2.35h-7.61C130.62,16.66,130.86,17.34,131.3,17.77z M134.57,12.22c-0.35-0.38-0.87-0.57-1.58-0.57
			c-0.46,0-0.85,0.08-1.15,0.23c-0.31,0.16-0.55,0.35-0.73,0.58s-0.31,0.48-0.39,0.73c-0.07,0.26-0.12,0.49-0.13,0.69h4.71
			C135.16,13.16,134.92,12.6,134.57,12.22z"/>
	</g>
	<g>
		<path class="st0" d="M91.11,39.56l-0.18-2.65h-0.04c-0.25,0.52-0.55,0.96-0.91,1.34c-0.36,0.37-0.76,0.68-1.19,0.92
			c-0.44,0.24-0.9,0.41-1.4,0.52s-1.01,0.16-1.54,0.16c-1.14,0-2.15-0.21-3.01-0.62c-0.86-0.42-1.58-0.97-2.15-1.66
			s-1-1.5-1.28-2.41c-0.29-0.91-0.43-1.87-0.43-2.88c0-1.01,0.14-1.96,0.43-2.88c0.29-0.91,0.71-1.72,1.29-2.42
			c0.57-0.7,1.29-1.26,2.15-1.67s1.87-0.62,3.01-0.62c0.76,0,1.48,0.1,2.16,0.31s1.29,0.51,1.82,0.92s0.98,0.91,1.35,1.51
			s0.62,1.3,0.75,2.1h-1.39c-0.04-0.42-0.18-0.85-0.42-1.28s-0.56-0.82-0.96-1.17s-0.88-0.64-1.44-0.87
			c-0.56-0.22-1.18-0.34-1.88-0.34c-0.97,0-1.8,0.18-2.49,0.55c-0.69,0.37-1.26,0.85-1.7,1.46c-0.44,0.6-0.77,1.29-0.98,2.05
			c-0.21,0.76-0.32,1.54-0.32,2.35c0,0.79,0.1,1.57,0.31,2.34s0.54,1.46,0.98,2.06c0.44,0.61,1.01,1.09,1.7,1.46
			c0.69,0.37,1.52,0.55,2.49,0.55c0.8,0,1.52-0.13,2.15-0.4c0.63-0.26,1.17-0.63,1.6-1.11c0.44-0.48,0.76-1.04,0.98-1.69
			c0.22-0.65,0.32-1.37,0.31-2.14h-4.96v-1.18h6.18v7.4L91.11,39.56z"/>
		<path class="st0" d="M95.41,29.04L95.4,39.57h-1.28l0.01-10.53H95.41z M95.41,25v2.06h-1.28V25H95.41z"/>
		<path class="st0" d="M101.57,29.04v1.08h-2.14v7.1c0,0.42,0.06,0.75,0.17,0.99c0.12,0.24,0.4,0.37,0.87,0.4
			c0.37,0,0.73-0.02,1.1-0.06v1.08c-0.19,0-0.38,0.01-0.57,0.02c-0.19,0.01-0.38,0.02-0.57,0.02c-0.86,0-1.45-0.17-1.79-0.5
			c-0.34-0.33-0.5-0.95-0.49-1.85v-7.2h-1.84v-1.08h1.84v-3.16h1.28v3.16L101.57,29.04z"/>
		<path class="st0" d="M102.78,29.41c0.29-0.91,0.72-1.72,1.29-2.42s1.29-1.26,2.15-1.67s1.87-0.62,3.01-0.62s2.14,0.21,3,0.62
			c0.86,0.42,1.57,0.97,2.14,1.67s1,1.51,1.28,2.42c0.29,0.91,0.43,1.87,0.43,2.88c0,1.01-0.14,1.97-0.43,2.88s-0.72,1.71-1.29,2.41
			c-0.57,0.69-1.29,1.25-2.14,1.66c-0.86,0.41-1.86,0.62-3,0.62s-2.15-0.21-3.01-0.62c-0.86-0.42-1.58-0.97-2.15-1.66
			s-1-1.5-1.28-2.41s-0.43-1.87-0.43-2.88C102.35,31.28,102.5,30.32,102.78,29.41z M104.05,34.62c0.21,0.77,0.54,1.46,0.98,2.06
			c0.44,0.61,1.01,1.09,1.7,1.46c0.69,0.37,1.52,0.55,2.49,0.55s1.79-0.18,2.48-0.55s1.25-0.85,1.69-1.46
			c0.44-0.6,0.77-1.29,0.98-2.06c0.21-0.77,0.32-1.55,0.32-2.34c0-0.8-0.1-1.58-0.32-2.35c-0.21-0.76-0.54-1.45-0.98-2.05
			c-0.44-0.61-1.01-1.09-1.69-1.46s-1.51-0.55-2.48-0.55s-1.8,0.18-2.49,0.55c-0.69,0.37-1.26,0.85-1.7,1.46
			c-0.44,0.6-0.77,1.29-0.98,2.05c-0.21,0.76-0.32,1.54-0.32,2.35C103.74,33.07,103.84,33.85,104.05,34.62z"/>
		<path class="st0" d="M118.79,29.05v2h0.04c0.3-0.73,0.79-1.3,1.46-1.7c0.67-0.4,1.44-0.6,2.3-0.6c0.8,0,1.5,0.15,2.09,0.45
			s1.08,0.7,1.48,1.21c0.39,0.51,0.69,1.1,0.88,1.78c0.19,0.67,0.28,1.38,0.28,2.13s-0.1,1.46-0.29,2.13
			c-0.19,0.67-0.48,1.26-0.88,1.77c-0.39,0.51-0.89,0.91-1.48,1.2c-0.59,0.29-1.29,0.44-2.09,0.44c-0.38,0-0.76-0.05-1.14-0.14
			c-0.38-0.1-0.73-0.24-1.06-0.43c-0.33-0.19-0.62-0.43-0.87-0.71c-0.25-0.29-0.45-0.62-0.58-1h-0.04v5.88h-1.29l0.01-14.4
			L118.79,29.05z M125.83,32.7c-0.13-0.54-0.33-1.02-0.61-1.44s-0.64-0.77-1.07-1.03c-0.44-0.27-0.96-0.4-1.57-0.4
			c-0.71,0-1.3,0.12-1.77,0.37c-0.48,0.24-0.86,0.57-1.14,0.98c-0.29,0.41-0.49,0.88-0.6,1.43c-0.12,0.54-0.17,1.11-0.17,1.71
			c0,0.54,0.06,1.08,0.19,1.62c0.13,0.54,0.34,1.02,0.63,1.44s0.67,0.77,1.14,1.03c0.47,0.27,1.04,0.4,1.72,0.4
			c0.61,0,1.14-0.13,1.57-0.4c0.44-0.26,0.79-0.61,1.07-1.03s0.48-0.9,0.61-1.44c0.13-0.54,0.19-1.08,0.19-1.62
			C126.03,33.77,125.96,33.23,125.83,32.7z"/>
		<path class="st0" d="M134.78,31.11c-0.15-0.29-0.35-0.53-0.6-0.72c-0.25-0.19-0.54-0.33-0.87-0.42s-0.67-0.13-1.04-0.13
			c-0.29,0-0.57,0.03-0.87,0.09c-0.29,0.06-0.56,0.16-0.81,0.31c-0.24,0.14-0.44,0.33-0.59,0.56s-0.22,0.52-0.22,0.86
			c0,0.29,0.07,0.53,0.21,0.72c0.14,0.2,0.32,0.36,0.54,0.5c0.22,0.14,0.46,0.25,0.71,0.34c0.26,0.09,0.5,0.16,0.71,0.21l1.71,0.39
			c0.37,0.05,0.73,0.15,1.09,0.3c0.36,0.14,0.68,0.33,0.96,0.56c0.28,0.23,0.51,0.52,0.68,0.86c0.18,0.34,0.26,0.74,0.26,1.2
			c0,0.57-0.13,1.06-0.39,1.46c-0.26,0.4-0.59,0.73-0.99,0.98c-0.4,0.25-0.85,0.43-1.36,0.54c-0.5,0.11-1,0.16-1.49,0.16
			c-1.24,0-2.24-0.29-3.01-0.88c-0.77-0.58-1.21-1.52-1.31-2.82h1.29c0.05,0.87,0.37,1.53,0.95,1.97c0.58,0.44,1.3,0.66,2.15,0.66
			c0.31,0,0.64-0.03,0.97-0.1s0.64-0.18,0.93-0.35c0.29-0.16,0.52-0.37,0.7-0.62s0.28-0.56,0.28-0.93c0-0.31-0.06-0.57-0.19-0.79
			c-0.13-0.21-0.3-0.39-0.52-0.53s-0.47-0.26-0.74-0.36c-0.28-0.09-0.56-0.18-0.85-0.25l-1.65-0.37c-0.42-0.11-0.81-0.24-1.16-0.38
			s-0.66-0.32-0.93-0.53c-0.26-0.21-0.47-0.47-0.62-0.78c-0.15-0.31-0.22-0.68-0.22-1.13c0-0.53,0.12-0.99,0.36-1.37
			c0.24-0.38,0.55-0.69,0.93-0.92c0.38-0.23,0.81-0.4,1.28-0.51s0.93-0.16,1.4-0.16c0.53,0,1.02,0.07,1.48,0.2
			c0.46,0.14,0.86,0.35,1.2,0.63c0.35,0.29,0.62,0.64,0.83,1.06c0.2,0.42,0.32,0.92,0.35,1.49h-1.29
			C135.01,31.75,134.93,31.4,134.78,31.11z"/>
	</g>
</g>
</svg>
