<svg width="114" height="32" viewBox="0 0 114 32" fill="none" xmlns="http://www.w3.org/2000/svg">
<path d="M10.7243 21.0502L8.47788 13.8054L6.23148 21.0502H3.23628L7.62939e-06 10.4155H2.90561L4.88748 17.5707L7.22135 10.4155H9.70882L12.0427 17.5707L14.0245 10.4155H16.9302L13.6939 21.0502H10.7221H10.7243Z" fill="#32314A"/>
<path d="M16.8768 15.7211C16.8768 12.6385 19.1445 10.151 22.3808 10.151C25.6171 10.151 27.7099 12.5297 27.7099 16.007V16.6235H19.8059C19.9829 17.9675 21.0603 19.0897 22.8672 19.0897C23.7696 19.0897 25.024 18.6929 25.7067 18.0337L26.9398 19.8385C25.8838 20.807 24.2091 21.3147 22.5579 21.3147C19.3216 21.3147 16.8768 19.1345 16.8768 15.7233V15.7211ZM22.3808 12.3739C20.6421 12.3739 19.8933 13.6731 19.7611 14.7291H25.0006C24.9344 13.7158 24.2304 12.3739 22.3808 12.3739V12.3739Z" fill="#32314A"/>
<path d="M35.5392 21.0502V19.9494C34.8118 20.807 33.5574 21.3147 32.1707 21.3147C30.4747 21.3147 28.4715 20.1691 28.4715 17.7925C28.4715 15.416 30.4747 14.3579 32.1707 14.3579C33.5808 14.3579 34.8352 14.8208 35.5392 15.6571V14.2256C35.5392 13.1461 34.6155 12.4421 33.2054 12.4421C32.0598 12.4421 31.0038 12.8603 30.1014 13.6965L29.0454 11.8256C30.3446 10.68 32.0171 10.1531 33.6918 10.1531C36.1131 10.1531 38.3382 11.1216 38.3382 14.1829V21.0523H35.5414L35.5392 21.0502ZM35.5392 18.4966V17.176C35.0763 16.5595 34.1952 16.2523 33.2928 16.2523C32.192 16.2523 31.2896 16.824 31.2896 17.8587C31.2896 18.8933 32.192 19.4224 33.2928 19.4224C34.1952 19.4224 35.0763 19.1131 35.5392 18.4987V18.4966Z" fill="#32314A"/>
<path d="M42.863 21.0502L38.592 10.4155H41.5872L44.3606 17.8139L47.1339 10.4155H50.1504L45.8795 21.0502H42.863V21.0502Z" fill="#32314A"/>
<path d="M49.7878 15.7211C49.7878 12.6385 52.0555 10.151 55.2918 10.151C58.528 10.151 60.6208 12.5297 60.6208 16.007V16.6235H52.7168C52.8939 17.9675 53.9712 19.0897 55.7782 19.0897C56.6806 19.0897 57.935 18.6929 58.6176 18.0337L59.8507 19.8385C58.7947 20.807 57.12 21.3147 55.4688 21.3147C52.2326 21.3147 49.7878 19.1345 49.7878 15.7233V15.7211ZM55.2918 12.3739C53.5531 12.3739 52.8043 13.6731 52.672 14.7291H57.9115C57.8454 13.7158 57.1414 12.3739 55.2918 12.3739V12.3739Z" fill="#32314A"/>
<path d="M62.2742 23.7574L62.9355 22.8763C63.8592 23.9771 64.8726 24.3739 66.4577 24.3739C68.3947 24.3739 70.0907 23.4054 70.0907 20.9606V19.2881C69.3419 20.3675 67.9766 21.2699 66.3915 21.2699C63.5734 21.2699 61.6363 19.1345 61.6363 15.7211C61.6363 12.3078 63.5734 10.151 66.3915 10.151C67.9105 10.151 69.231 10.9211 70.0907 12.1329V10.4155H71.2577V20.9393C71.2577 24.1969 69.0561 25.3659 66.4577 25.3659C64.6742 25.3659 63.5286 25.0353 62.2742 23.7595V23.7574ZM70.0907 18.2961V13.1227C69.4742 12.0881 68.0641 11.1857 66.5899 11.1857C64.2347 11.1857 62.8694 13.1462 62.8694 15.7211C62.8694 18.2961 64.2347 20.2353 66.5899 20.2353C68.0662 20.2353 69.4742 19.3329 70.0907 18.2982V18.2961Z" fill="#32314A"/>
<path d="M73.7857 7.85973C73.7857 7.37547 74.2038 7 74.6667 7C75.1297 7 75.5478 7.37333 75.5478 7.85973C75.5478 8.34613 75.151 8.7408 74.6667 8.7408C74.1825 8.7408 73.7857 8.344 73.7857 7.85973ZM74.095 21.048V10.4133H75.2406V21.048H74.095Z" fill="#32314A"/>
<path d="M78.5067 19.0022V11.4288H76.7446V10.4155H78.5067V7.50989H79.6737V10.4155H81.8305V11.4288H79.6737V18.8272C79.6737 19.6848 80.0256 20.28 80.7745 20.28C81.2801 20.28 81.7217 20.0368 81.9627 19.7744L82.4022 20.6555C81.9841 21.0523 81.4785 21.3168 80.5974 21.3168C79.1873 21.3168 78.5067 20.4571 78.5067 19.0043V19.0022Z" fill="#32314A"/>
<path d="M82.7222 15.7211C82.7222 12.6171 84.7254 10.151 87.8315 10.151C90.9377 10.151 92.9622 12.6171 92.9622 15.7211C92.9622 18.8251 90.9803 21.3126 87.8315 21.3126C84.6827 21.3126 82.7222 18.8251 82.7222 15.7211ZM91.727 15.7211C91.727 13.3659 90.3403 11.1857 87.8294 11.1857C85.3185 11.1857 83.9531 13.3659 83.9531 15.7211C83.9531 18.0763 85.3633 20.2779 87.8294 20.2779C90.2955 20.2779 91.727 18.0977 91.727 15.7211Z" fill="#32314A"/>
<path d="M96.0086 19.3329V25.1014H94.863V10.4155H96.0086V12.0881C96.7574 11.0086 98.1227 10.151 99.7078 10.151C102.547 10.151 104.463 12.3078 104.463 15.7211C104.463 19.1345 102.547 21.3126 99.7078 21.3126C98.2102 21.3126 96.8683 20.5425 96.0086 19.3307V19.3329ZM103.23 15.7211C103.23 13.1441 101.886 11.1857 99.5094 11.1857C98.0331 11.1857 96.6251 12.0667 96.0086 13.0801V18.343C96.6251 19.3563 98.0353 20.2801 99.5094 20.2801C101.888 20.2801 103.23 18.2982 103.23 15.7233V15.7211Z" fill="#32314A"/>
<path d="M105.412 19.6401L106.095 18.7803C106.778 19.6401 108.032 20.3441 109.53 20.3441C111.313 20.3441 112.369 19.4203 112.369 18.1873C112.369 15.2817 105.653 16.9094 105.653 13.1014C105.653 11.4715 107.04 10.151 109.44 10.151C111.268 10.151 112.478 10.855 113.25 11.7147L112.612 12.5297C111.996 11.6934 110.85 11.1195 109.442 11.1195C107.791 11.1195 106.778 11.9558 106.778 13.0566C106.778 15.7211 113.493 14.0913 113.493 18.1873C113.493 19.9046 112.173 21.3147 109.508 21.3147C107.791 21.3147 106.47 20.8091 105.412 19.6422V19.6401Z" fill="#32314A"/>
</svg>
