<?xml version="1.0" encoding="UTF-8"?><svg id="light_copia" xmlns="http://www.w3.org/2000/svg" viewBox="0 0 32 32"><defs><style>.cls-1{fill:#e94e28;}.cls-2{fill:#556991;}.cls-3{fill:#49c1ed;}</style></defs><path class="cls-2" d="m9.1,17.98L25.41,3.42c-1.29-1.02-2.75-1.84-4.32-2.42l-11.99,10.71v6.28Z"/><path class="cls-2" d="m4.42,15.88l-4.42,3.95c.4,1.64,1.06,3.17,1.92,4.57l2.5-2.23v-6.28Z"/><path class="cls-3" d="m17.83,3.91V.17c-.75-.11-1.51-.17-2.29-.17s-1.61.06-2.4.18v7.91l4.69-4.19Z"/><path class="cls-3" d="m17.83,25.92v-15.73l-4.69,4.19v17.44c.78.12,1.58.18,2.4.18.95,0,1.89-.09,2.79-.25l12.55-11.21c.43-1.44.66-2.96.66-4.54,0-.74-.05-1.47-.15-2.19l-13.56,12.11Z"/><path class="cls-1" d="m17.83,21.3l12.57-11.23c-.6-1.5-1.42-2.89-2.42-4.12l-10.15,9.07v6.28Z"/><path class="cls-1" d="m13.14,19.2l-4.04,3.61V1.35c-1.75.77-3.33,1.84-4.69,3.15v23c1.06,1.02,2.25,1.9,3.56,2.6l5.17-4.62v-6.28Z"/></svg>
