<?xml version="1.0" encoding="UTF-8"?><svg id="Capa_1_copia" xmlns="http://www.w3.org/2000/svg" viewBox="0 0 24 24"><defs><style>.cls-1{fill:#f2994a;}.cls-2{fill:#fff;}</style></defs><circle class="cls-1" cx="12" cy="12" r="10"/><g id="Capa_2_copia"><path class="cls-2" d="m11.59,15.35h-1.59c-1.49,0-2.52-.1-3.06-.19v-1.03c.3-.21.96-.59,1.91-.96.55-.22,1.33-.35,2.15-.35.02,0,.03,0,.05,0,.04-.32.11-.64.22-.93-.09,0-.18-.01-.27-.01-.91,0-1.81.14-2.5.41-1.38.55-2.5,1.22-2.5,1.5v2c0,.27,1.8.5,4,.5h2c.13,0,.25,0,.37,0-.31-.27-.57-.58-.79-.94Z"/><path class="cls-2" d="m11,7.29c.83,0,1.5.67,1.5,1.5s-.67,1.5-1.5,1.5-1.5-.67-1.5-1.5.67-1.5,1.5-1.5m0-1c-1.38,0-2.5,1.12-2.5,2.5s1.12,2.5,2.5,2.5,2.5-1.12,2.5-2.5-1.12-2.5-2.5-2.5h0Z"/><path class="cls-2" d="m15,16.5c-.83,0-1.54-.29-2.12-.88-.58-.59-.88-1.29-.88-2.12s.29-1.54.88-2.12c.59-.58,1.29-.88,2.12-.88s1.54.29,2.12.88c.58.59.88,1.29.88,2.12s-.29,1.54-.88,2.12c-.59.58-1.29.88-2.12.88Zm.92-1.4l.44-.44-1.19-1.19v-1.78h-.62v2l1.37,1.41Z"/></g></svg>
