<svg width="24" height="24" viewBox="0 0 24 24" fill="none" xmlns="http://www.w3.org/2000/svg">
<circle cx="12" cy="12" r="10" fill="#00B3EC"/>
<path fill-rule="evenodd" clip-rule="evenodd" d="M5.33337 14.0002C5.33337 13.632 5.63185 13.3335 6.00004 13.3335H9.33337C9.70156 13.3335 10 13.632 10 14.0002C10 14.3684 9.70156 14.6668 9.33337 14.6668H6.66671V17.3335C6.66671 17.7017 6.36823 18.0002 6.00004 18.0002C5.63185 18.0002 5.33337 17.7017 5.33337 17.3335V14.0002Z" fill="white"/>
<path fill-rule="evenodd" clip-rule="evenodd" d="M18.0028 12.6838C18.3617 12.7664 18.5856 13.1242 18.503 13.483C18.0511 15.4464 16.7406 17.0745 14.9935 17.9554L14.9934 17.9555C14.0967 18.4076 13.0742 18.6668 12 18.6668C9.04102 18.6668 7.14701 16.7936 5.4544 14.3833C5.2428 14.082 5.31553 13.6662 5.61684 13.4546C5.91816 13.243 6.33395 13.3158 6.54555 13.617C8.18627 15.9534 9.73226 17.3335 12 17.3335C12.859 17.3335 13.6766 17.1262 14.3932 16.7649C15.7927 16.0592 16.8422 14.754 17.2036 13.184C17.2862 12.8252 17.644 12.6012 18.0028 12.6838Z" fill="white"/>
<path fill-rule="evenodd" clip-rule="evenodd" d="M18.6667 9.99982C18.6667 10.368 18.3682 10.6665 18 10.6665H14.6667C14.2985 10.6665 14 10.368 14 9.99982C14 9.63162 14.2985 9.33315 14.6667 9.33315H17.3333V6.66648C17.3333 6.29829 17.6318 5.99982 18 5.99982C18.3682 5.99982 18.6667 6.29829 18.6667 6.66648V9.99982Z" fill="white"/>
<path fill-rule="evenodd" clip-rule="evenodd" d="M5.99712 11.3162C5.63832 11.2336 5.4144 10.8758 5.497 10.517C5.94892 8.5537 7.25942 6.92554 9.00652 6.04458L9.00656 6.04456C9.90329 5.59249 10.9258 5.33319 12 5.33319C14.959 5.33319 16.853 7.20644 18.5456 9.61672C18.7572 9.91804 18.6844 10.3338 18.3832 10.5454C18.0818 10.757 17.666 10.6843 17.4544 10.383C15.8137 8.0466 14.2677 6.66652 12 6.66652C11.141 6.66652 10.3234 6.87388 9.60683 7.23513C8.20727 7.94084 7.15776 9.24602 6.79635 10.8161C6.71376 11.1749 6.35593 11.3988 5.99712 11.3162Z" fill="white"/>
</svg>
