<?xml version="1.0" encoding="UTF-8"?><svg xmlns="http://www.w3.org/2000/svg" xmlns:xlink="http://www.w3.org/1999/xlink" viewBox="0 0 685 454"><defs><style>.cls-1,.cls-2,.cls-3,.cls-4,.cls-5,.cls-6,.cls-7,.cls-8,.cls-9{fill:none;}.cls-10{stroke:url(#Degradado_sin_nombre_41);}.cls-10,.cls-2,.cls-3,.cls-4,.cls-5,.cls-6,.cls-7,.cls-11,.cls-9,.cls-12,.cls-13,.cls-14,.cls-15,.cls-16,.cls-17{stroke-miterlimit:10;}.cls-10,.cls-3,.cls-4,.cls-5,.cls-12,.cls-13,.cls-14,.cls-15,.cls-16,.cls-17{stroke-width:.95px;}.cls-10,.cls-18,.cls-19,.cls-11,.cls-12,.cls-13,.cls-14,.cls-15,.cls-16,.cls-17{fill:#00b3ec;}.cls-2{stroke:url(#Degradado_sin_nombre_3);}.cls-2,.cls-3,.cls-4,.cls-5,.cls-20,.cls-7,.cls-21{opacity:.3;}.cls-2,.cls-7{stroke-width:1.36px;}.cls-22{clip-path:url(#clippath);}.cls-3{stroke:url(#Degradado_sin_nombre_45-3);}.cls-4{stroke:url(#Degradado_sin_nombre_45-2);}.cls-5{stroke:url(#Degradado_sin_nombre_45);}.cls-23{fill:#ff4b19;}.cls-24{fill:#32324b;}.cls-25{fill:#6d88b5;}.cls-26{fill:#464660;}.cls-27{fill:#556991;}.cls-20{fill:url(#Degradado_sin_nombre_74);}.cls-28{fill:url(#Degradado_sin_nombre_17);opacity:.2;}.cls-6{mix-blend-mode:darken;stroke:url(#Degradado_sin_nombre_35);stroke-dasharray:0 0 .68 6.79;stroke-width:5.43px;}.cls-7{stroke:url(#Degradado_sin_nombre_22);}.cls-29{clip-path:url(#clippath-1);}.cls-30{clip-path:url(#clippath-2);}.cls-8{stroke:#6d88b5;stroke-width:.3px;}.cls-8,.cls-19{stroke-linejoin:round;}.cls-8,.cls-19,.cls-9{stroke-linecap:round;}.cls-19{stroke-width:.45px;}.cls-19,.cls-11,.cls-9{stroke:#556991;}.cls-31{fill:url(#Degradado_sin_nombre_32);}.cls-32{fill:url(#Degradado_sin_nombre_24);}.cls-33{fill:url(#Degradado_sin_nombre_61);}.cls-34{opacity:.6;}.cls-11{stroke-width:1.5px;}.cls-35{isolation:isolate;}.cls-9{stroke-width:.75px;}.cls-21{fill:url(#Degradado_sin_nombre_3-2);}.cls-12{stroke:url(#Degradado_sin_nombre_41-3);}.cls-13{stroke:url(#Degradado_sin_nombre_41-2);}.cls-14{stroke:url(#Degradado_sin_nombre_41-5);}.cls-15{stroke:url(#Degradado_sin_nombre_41-7);}.cls-16{stroke:url(#Degradado_sin_nombre_41-6);}.cls-17{stroke:url(#Degradado_sin_nombre_41-4);}</style><clipPath id="clippath"><rect class="cls-1" x="-.87" y="-.15" width="685" height="454"/></clipPath><linearGradient id="Degradado_sin_nombre_61" x1="342.5" y1="454" x2="342.5" y2="0" gradientUnits="userSpaceOnUse"><stop offset="0" stop-color="#32324b" stop-opacity="0"/><stop offset=".21" stop-color="#32324b" stop-opacity=".31"/><stop offset=".53" stop-color="#32324b" stop-opacity=".69"/><stop offset=".8" stop-color="#32324b" stop-opacity=".92"/><stop offset="1" stop-color="#32324b"/></linearGradient><linearGradient id="Degradado_sin_nombre_17" x1="116.64" y1="347.41" x2="766.64" y2="347.41" gradientUnits="userSpaceOnUse"><stop offset="0" stop-color="#ededed" stop-opacity="0"/><stop offset=".24" stop-color="#b9bfcd" stop-opacity=".34"/><stop offset=".47" stop-color="#8d9ab3" stop-opacity=".63"/><stop offset=".68" stop-color="#6e7fa0" stop-opacity=".83"/><stop offset=".87" stop-color="#5b6e95" stop-opacity=".96"/><stop offset="1" stop-color="#556991"/></linearGradient><linearGradient id="Degradado_sin_nombre_41" x1="340.99" y1="240.29" x2="446.92" y2="240.29" gradientUnits="userSpaceOnUse"><stop offset="0" stop-color="#6d88b5" stop-opacity="0"/><stop offset=".03" stop-color="#6d88b5" stop-opacity=".12"/><stop offset=".08" stop-color="#6d88b5" stop-opacity=".33"/><stop offset=".14" stop-color="#6d88b5" stop-opacity=".51"/><stop offset=".21" stop-color="#6d88b5" stop-opacity=".66"/><stop offset=".29" stop-color="#6d88b5" stop-opacity=".79"/><stop offset=".38" stop-color="#6d88b5" stop-opacity=".88"/><stop offset=".48" stop-color="#6d88b5" stop-opacity=".95"/><stop offset=".63" stop-color="#6d88b5" stop-opacity=".99"/><stop offset="1" stop-color="#6d88b5"/></linearGradient><linearGradient id="Degradado_sin_nombre_41-2" x1="211.28" y1="320.12" x2="447.59" y2="320.12" xlink:href="#Degradado_sin_nombre_41"/><linearGradient id="Degradado_sin_nombre_41-3" x1="256.65" y1="420.34" x2="446.58" y2="420.34" xlink:href="#Degradado_sin_nombre_41"/><linearGradient id="Degradado_sin_nombre_41-4" x1="443.33" y1="465.49" x2="444.28" y2="465.49" xlink:href="#Degradado_sin_nombre_41"/><linearGradient id="Degradado_sin_nombre_41-5" x1="441.61" y1="421.56" x2="631.54" y2="421.56" xlink:href="#Degradado_sin_nombre_41"/><linearGradient id="Degradado_sin_nombre_41-6" x1="441.92" y1="321.64" x2="678.23" y2="321.64" xlink:href="#Degradado_sin_nombre_41"/><linearGradient id="Degradado_sin_nombre_41-7" x1="443.64" y1="240.97" x2="549.57" y2="240.97" xlink:href="#Degradado_sin_nombre_41"/><linearGradient id="Degradado_sin_nombre_45" x1="312.41" y1="347.59" x2="578.25" y2="347.59" gradientUnits="userSpaceOnUse"><stop offset="0" stop-color="#ededed" stop-opacity="0"/><stop offset=".03" stop-color="#dde0e6" stop-opacity=".12"/><stop offset=".08" stop-color="#c3ccda" stop-opacity=".33"/><stop offset=".14" stop-color="#abb9d0" stop-opacity=".51"/><stop offset=".21" stop-color="#98aac7" stop-opacity=".66"/><stop offset=".29" stop-color="#889dc0" stop-opacity=".79"/><stop offset=".37" stop-color="#7b93bb" stop-opacity=".88"/><stop offset=".48" stop-color="#738cb7" stop-opacity=".95"/><stop offset=".63" stop-color="#6e89b5" stop-opacity=".99"/><stop offset="1" stop-color="#6d88b5"/></linearGradient><linearGradient id="Degradado_sin_nombre_45-2" x1="292.04" y1="347.59" x2="598.63" y2="347.59" xlink:href="#Degradado_sin_nombre_45"/><linearGradient id="Degradado_sin_nombre_45-3" x1="330.75" y1="347.59" x2="559.92" y2="347.59" xlink:href="#Degradado_sin_nombre_45"/><linearGradient id="Degradado_sin_nombre_3" x1="183.16" y1="347.59" x2="707.51" y2="347.59" gradientUnits="userSpaceOnUse"><stop offset="0" stop-color="#ededed" stop-opacity="0"/><stop offset=".04" stop-color="#d3d7dd" stop-opacity=".16"/><stop offset=".1" stop-color="#b2b9c9" stop-opacity=".39"/><stop offset=".17" stop-color="#94a0b7" stop-opacity=".58"/><stop offset=".25" stop-color="#7d8ba9" stop-opacity=".73"/><stop offset=".34" stop-color="#6b7c9e" stop-opacity=".85"/><stop offset=".45" stop-color="#5e7196" stop-opacity=".94"/><stop offset=".61" stop-color="#576a92" stop-opacity=".99"/><stop offset="1" stop-color="#556991"/></linearGradient><linearGradient id="Degradado_sin_nombre_35" x1="199.46" y1="347.59" x2="691.21" y2="347.59" gradientUnits="userSpaceOnUse"><stop offset="0" stop-color="#f2f2f2"/><stop offset=".04" stop-color="#d2d6de"/><stop offset=".09" stop-color="#acb5c7"/><stop offset=".15" stop-color="#8c99b3"/><stop offset=".2" stop-color="#7484a4"/><stop offset=".27" stop-color="#627499"/><stop offset=".33" stop-color="#586b93"/><stop offset=".41" stop-color="#556991"/><stop offset="1" stop-color="#556991"/></linearGradient><linearGradient id="Degradado_sin_nombre_74" x1="341.32" y1="348.29" x2="545.32" y2="348.29" gradientUnits="userSpaceOnUse"><stop offset="0" stop-color="#6d88b5" stop-opacity="0"/><stop offset="0" stop-color="#6c87b4" stop-opacity=".02"/><stop offset=".1" stop-color="#667faa" stop-opacity=".28"/><stop offset=".2" stop-color="#6078a2" stop-opacity=".5"/><stop offset=".31" stop-color="#5c729c" stop-opacity=".69"/><stop offset=".43" stop-color="#596e97" stop-opacity=".83"/><stop offset=".56" stop-color="#566b93" stop-opacity=".92"/><stop offset=".73" stop-color="#556991" stop-opacity=".98"/><stop offset="1" stop-color="#556991"/></linearGradient><linearGradient id="Degradado_sin_nombre_24" x1="382.99" y1="383.33" x2="507.68" y2="383.33" gradientUnits="userSpaceOnUse"><stop offset="0" stop-color="#6d88b5" stop-opacity=".6"/><stop offset="0" stop-color="#6d88b5" stop-opacity=".6"/><stop offset=".27" stop-color="#6d88b5" stop-opacity=".78"/><stop offset=".53" stop-color="#6d88b5" stop-opacity=".9"/><stop offset=".78" stop-color="#6d88b5" stop-opacity=".97"/><stop offset="1" stop-color="#6d88b5"/></linearGradient><clipPath id="clippath-1"><polygon class="cls-1" points="444.18 347.41 -64.37 659.58 308.79 -22.21 385.84 -30.52 444.18 347.41"/></clipPath><linearGradient id="Degradado_sin_nombre_32" x1="373.34" y1="329.34" x2="445.34" y2="329.34" gradientUnits="userSpaceOnUse"><stop offset="0" stop-color="#6d88b5" stop-opacity=".6"/><stop offset="0" stop-color="#6d88b5" stop-opacity=".6"/><stop offset=".27" stop-color="#6d88b5" stop-opacity=".78"/><stop offset=".53" stop-color="#6d88b5" stop-opacity=".9"/><stop offset=".78" stop-color="#6d88b5" stop-opacity=".97"/><stop offset="1" stop-color="#6d88b5"/></linearGradient><linearGradient id="Degradado_sin_nombre_22" x1="379.44" y1="347.35" x2="511.21" y2="347.35" gradientUnits="userSpaceOnUse"><stop offset="0" stop-color="#556991" stop-opacity=".2"/><stop offset=".04" stop-color="#556991" stop-opacity=".29"/><stop offset=".14" stop-color="#556991" stop-opacity=".5"/><stop offset=".26" stop-color="#556991" stop-opacity=".69"/><stop offset=".39" stop-color="#556991" stop-opacity=".83"/><stop offset=".53" stop-color="#556991" stop-opacity=".92"/><stop offset=".71" stop-color="#556991" stop-opacity=".98"/><stop offset="1" stop-color="#556991"/></linearGradient><clipPath id="clippath-2"><polygon class="cls-1" points="444.18 347.41 -64.37 659.58 308.79 -22.21 385.84 -30.52 444.18 347.41"/></clipPath><linearGradient id="Degradado_sin_nombre_3-2" x1="397.71" y1="63.38" x2="397.71" y2="46.94" xlink:href="#Degradado_sin_nombre_3"/></defs><g class="cls-35"><g id="Capa_3_copia"><g id="Capa_2_copia"><rect class="cls-24" x="-502.8" y="-131.14" width="1318.02" height="733.55"/></g><g class="cls-22"><line class="cls-8" x1="338.34" y1="-176.58" x2="338.34" y2="715.4"/><line class="cls-8" x1="285.84" y1="-176.58" x2="285.84" y2="715.4"/><line class="cls-8" x1="233.34" y1="-176.58" x2="233.34" y2="715.4"/><line class="cls-8" x1="180.84" y1="-176.58" x2="180.84" y2="715.4"/><line class="cls-8" x1="128.34" y1="-176.58" x2="128.34" y2="715.4"/><line class="cls-8" x1="75.84" y1="-176.58" x2="75.84" y2="715.4"/><line class="cls-8" x1="23.34" y1="-176.58" x2="23.34" y2="715.4"/><line class="cls-8" x1="390.84" y1="-176.58" x2="390.84" y2="715.4"/><line class="cls-8" x1="443.34" y1="-176.58" x2="443.34" y2="715.4"/><line class="cls-8" x1="495.84" y1="-176.58" x2="495.84" y2="715.4"/><line class="cls-8" x1="548.34" y1="-176.58" x2="548.34" y2="715.4"/><line class="cls-8" x1="600.84" y1="-176.58" x2="600.84" y2="715.4"/><line class="cls-8" x1="653.34" y1="-176.58" x2="653.34" y2="715.4"/><line class="cls-8" x1="-23.82" y1="348.16" x2="863.61" y2="347.48"/><line class="cls-8" x1="-23.82" y1="400.66" x2="863.61" y2="399.98"/><line class="cls-8" x1="-23.82" y1="453.16" x2="863.61" y2="452.48"/><line class="cls-8" x1="-23.82" y1="295.66" x2="863.61" y2="294.98"/><line class="cls-8" x1="-23.82" y1="243.16" x2="863.61" y2="242.48"/><line class="cls-8" x1="-23.82" y1="190.66" x2="863.61" y2="189.98"/><line class="cls-8" x1="-23.82" y1="138.16" x2="863.61" y2="137.48"/><line class="cls-8" x1="-23.82" y1="85.66" x2="863.61" y2="84.98"/><line class="cls-8" x1="-23.82" y1="33.16" x2="863.61" y2="32.48"/><rect class="cls-33" x="0" y="0" width="685" height="454"/><circle class="cls-28" cx="441.64" cy="347.41" r="325"/><g class="cls-34"><line class="cls-10" x1="341.42" y1="131.2" x2="446.5" y2="349.39"/><line class="cls-13" x1="211.38" y1="293.18" x2="447.48" y2="347.07"/><line class="cls-12" x1="256.95" y1="495.84" x2="446.28" y2="344.85"/><line class="cls-17" x1="443.8" y1="586.57" x2="443.8" y2="344.4"/><line class="cls-14" x1="631.24" y1="497.05" x2="441.91" y2="346.06"/><line class="cls-16" x1="678.12" y1="294.69" x2="442.02" y2="348.58"/><line class="cls-15" x1="549.14" y1="131.87" x2="444.07" y2="350.06"/></g><circle class="cls-5" cx="445.33" cy="347.59" r="132.45"/><circle class="cls-4" cx="445.33" cy="347.59" r="152.82"/><circle class="cls-3" cx="445.33" cy="347.59" r="114.11"/><circle class="cls-2" cx="445.33" cy="347.59" r="261.5"/><circle class="cls-6" cx="445.33" cy="347.59" r="243.16"/><line class="cls-11" x1="443.32" y1="176.51" x2="443.32" y2="190.87"/><circle class="cls-18" cx="443.38" cy="157.12" r="27.17"/><line class="cls-11" x1="309.66" y1="243.71" x2="320.89" y2="252.66"/><circle class="cls-18" cx="294.61" cy="231.7" r="27.17"/><line class="cls-11" x1="278.56" y1="390.48" x2="292.55" y2="387.28"/><circle class="cls-18" cx="259.79" cy="394.76" r="27.17"/><line class="cls-11" x1="615.63" y1="385.23" x2="601.63" y2="382.03"/><circle class="cls-18" cx="634.4" cy="389.51" r="27.17"/><line class="cls-11" x1="579.97" y1="239.5" x2="568.75" y2="248.45"/><circle class="cls-18" cx="595.03" cy="227.49" r="27.17"/><circle class="cls-20" cx="443.32" cy="348.29" r="102"/><path class="cls-32" d="m445.34,347.33l62.35,36c-19.88,34.43-63.91,46.23-98.34,26.35-11.47-6.62-19.73-14.88-26.35-26.35l62.35-36Z"/><path class="cls-25" d="m445.34,347.33v-71.99c39.76,0,71.99,32.23,71.99,71.99,0,13.24-3.02,24.53-9.64,36l-62.35-36Z"/><g class="cls-29"><path class="cls-31" d="m445.34,347.33l-62.35,36c-19.88-34.43-8.08-78.46,26.35-98.34,11.47-6.62,22.76-9.64,36-9.64v71.99Z"/></g><path class="cls-24" d="m510.53,347.33c0-35.82-29.04-64.97-64.81-65.18h0s-.38,0-.38,0h-.38c-11.76.07-22.01,2.84-32.22,8.73-15.08,8.71-25.87,22.76-30.37,39.58-4.47,16.7-2.22,34.13,6.33,49.14h0s.19.33.19.33l.19.33h.01c5.93,10.15,13.45,17.64,23.66,23.53,10.05,5.8,21.19,8.76,32.49,8.76,5.66,0,11.36-.75,16.98-2.25,16.7-4.47,30.67-15.14,39.39-30.05h0s.19-.32.19-.32l.19-.33h0c5.83-10.22,8.56-20.48,8.56-32.27Z"/><path class="cls-7" d="m510.53,347.33c0-35.82-29.04-64.97-64.81-65.18h0s-.38,0-.38,0h-.38c-11.76.07-22.01,2.84-32.22,8.73-15.08,8.71-25.87,22.76-30.37,39.58-4.47,16.7-2.22,34.13,6.33,49.14h0s.19.33.19.33l.19.33h.01c5.93,10.15,13.45,17.64,23.66,23.53,10.05,5.8,21.19,8.76,32.49,8.76,5.66,0,11.36-.75,16.98-2.25,16.7-4.47,30.67-15.14,39.39-30.05h0s.19-.32.19-.32l.19-.33h0c5.83-10.22,8.56-20.48,8.56-32.27Z"/><path class="cls-26" d="m443.62,63.5v23.64h1.5v.02c142.81.82,258.75,117.23,258.75,260.23,0,47.07-10.87,88.05-34.13,128.81h.02s-.75,1.31-.75,1.31l20.47,11.82c26.1-45.21,38.03-89.73,38.03-141.94,0-156.79-127.1-283.89-283.89-283.89Z"/><g class="cls-30"><path class="cls-26" d="m217.47,476.21h.02c-34.14-59.92-43.12-129.52-25.26-196.18,17.99-67.15,61.06-123.27,121.26-158.03,40.76-23.54,81.68-34.61,128.62-34.85v-.02h1.51v-23.64c-52.21,0-96.73,11.93-141.94,38.03-135.78,78.39-182.3,252.01-103.91,387.79l20.46-11.81-.76-1.3Z"/></g><path class="cls-18" d="m442.96,624h-.68s.06-9.46.06-9.46h.68s-.06,9.46-.06,9.46Zm6.91-.06l-.18-9.45h.64s.25,9.44.25,9.44h-.7Zm-14.5-.07l-.68-.02.31-9.45.68.02-.31,9.45Zm22.06-.19l-.37-9.45.61-.03.5,9.44-.74.04Zm-29.64-.14l-.7-.04.61-9.44.65.04-.56,9.44Zm37.24-.33l-.67-9.43.64-.05.74,9.43-.71.05Zm-44.81-.21l-.7-.06.86-9.42.65.06-.8,9.42Zm52.41-.47l-.99-9.4.67-.07.98,9.4-.67.07Zm-59.96-.28l-.74-.08,1.17-9.38.61.07-1.04,9.4Zm67.49-.61l-1.22-9.38.67-.09,1.23,9.38-.67.09Zm-75.02-.34l-.61-.09,1.26-9.37.64.09-1.29,9.37Zm82.63-.76l-1.57-9.33.64-.1,1.54,9.33-.6.1Zm-90.16-.4l-.67-.11,1.61-9.32.66.11-1.59,9.32Zm97.51-.88l-1.66-9.31.6-.11,1.78,9.29-.72.13Zm-104.98-.48l-.67-.13,1.85-9.27.66.13-1.84,9.28Zm112.45-1.03l-1.97-9.25.63-.14,2.03,9.23-.69.15Zm-119.88-.54l-.66-.15,2.09-9.22.66.15-2.09,9.22Zm127.28-1.17l-2.22-9.19.63-.16,2.28,9.18-.68.17Zm-134.67-.6l-.68-.18,2.39-9.15.63.16-2.34,9.16Zm142.04-1.32l-2.53-9.11.65-.18,2.53,9.11-.65.18Zm-149.37-.66l-.69-.2,2.65-9.08.61.18-2.58,9.1Zm156.66-1.46l-2.77-9.04.65-.2,2.77,9.04-.65.2Zm-163.93-.72l-.68-.22,2.9-9,.61.19-2.82,9.02Zm171.17-1.61l-3.03-8.96.65-.22,3.01,8.96-.63.21Zm-178.38-.77l-.67-.23,3.12-8.93.62.21-3.06,8.95Zm185.51-1.73l-3.23-8.89.6-.22,3.29,8.87-.66.24Zm-192.68-.86l-.65-.25,3.35-8.84.62.23-3.32,8.85Zm199.75-1.85l-3.47-8.8.6-.24,3.52,8.77-.65.26Zm-206.84-.94l-.65-.27,3.61-8.74.6.25-3.55,8.76Zm213.84-1.97l-3.72-8.69.59-.25,3.78,8.67-.64.28Zm-220.86-1.02l-.67-.3,3.91-8.61.57.25-3.81,8.66Zm227.76-2.07l-3.93-8.6.57-.27,4,8.57-.65.3Zm-234.68-1.1l-.67-.32,4.16-8.49.56.27-4.04,8.55Zm241.56-2.2l-4.25-8.45.6-.3,4.25,8.45-.6.3Zm-248.4-1.17l-.61-.31,4.3-8.42.6.3-4.29,8.43Zm255.14-2.31l-4.5-8.32.62-.33,4.45,8.34-.57.3Zm-261.88-1.25l-.58-.31,4.5-8.32.48.26-4.41,8.37Zm268.51-2.4l-4.69-8.21.58-.33,4.69,8.21-.58.33Zm-275.13-1.33l-.58-.34,4.74-8.18.58.34-4.74,8.18Zm281.65-2.5l-4.88-8.1.55-.34,4.93,8.07-.6.36Zm-288.18-1.42l-.58-.36,4.99-8.03.57.35-4.97,8.04Zm294.66-2.62l-5.19-7.9.6-.39,5.12,7.95-.53.34Zm-301.09-1.48l-.54-.36,5.17-7.92.59.39-5.22,7.89Zm307.37-2.69l-5.33-7.81.53-.37,5.37,7.78-.58.4Zm-313.66-1.57l-.55-.39,5.41-7.75.55.39-5.41,7.75Zm319.89-2.81l-5.6-7.62.57-.41,5.55,7.65-.52.38Zm-326.06-1.62l-.54-.4,5.61-7.61.54.4-5.61,7.61Zm332.13-2.9l-5.76-7.5.53-.41,5.77,7.49-.54.41Zm-338.19-1.71l-.51-.4,5.8-7.47.55.43-5.84,7.44Zm344.16-2.99l-5.97-7.33.52-.43,5.97,7.33-.52.43Zm-350.07-1.77l-.53-.44,6.04-7.27.51.42-6.03,7.29Zm355.92-3.1l-6.21-7.13.53-.46,6.17,7.16-.49.42Zm-361.71-1.82l-.53-.46,6.26-7.09.49.43-6.22,7.12Zm367.41-3.19l-6.4-6.96.53-.48,6.34,7.02-.47.42Zm-373.05-1.88l-.5-.47,6.42-6.94.49.45-6.4,6.96Zm378.61-3.29l-6.59-6.78.52-.5,6.53,6.84-.45.44Zm-384.12-1.94l-.49-.48,6.61-6.76.47.46-6.59,6.78Zm389.52-3.37l-6.75-6.62.49-.5,6.72,6.66-.46.46Zm-394.88-2.01l-.49-.51,6.82-6.55.45.46-6.78,6.59Zm400.16-3.46l-6.93-6.44.47-.51,6.9,6.47-.45.48Zm-405.37-2.07l-.48-.52,7-6.36.43.47-6.96,6.4Zm410.5-3.57l-7.13-6.21.47-.54,7.08,6.28-.42.47Zm-415.57-2.11l-.44-.51,7.15-6.19.44.51-7.15,6.19Zm420.52-3.63l-7.27-6.04.45-.54,7.25,6.08-.42.5Zm-425.42-2.17l-.42-.52,7.31-6.01.43.53-7.31,5.99Zm430.29-3.79l-7.49-5.78.41-.52,7.44,5.84-.36.46Zm-435.03-2.13l-.42-.55,7.49-5.77.4.52-7.47,5.8Zm439.61-3.81l-7.59-5.63.41-.56,7.57,5.66-.39.53Zm-444.19-2.24l-.4-.54,7.62-5.6.4.55-7.62,5.6Zm448.66-3.89l-7.73-5.44.39-.56,7.72,5.46-.39.55Zm-453.06-2.28l-.39-.56,7.78-5.37.38.54-7.77,5.39Zm457.37-3.98l-7.87-5.24.37-.56,7.88,5.23-.38.57Zm-461.6-2.31l-.38-.58,7.92-5.17.36.55-7.91,5.19Zm465.75-4.1l-8.04-4.97.37-.6,8.02,5.02-.35.55Zm-469.82-2.31l-.35-.57,8.05-4.96.35.58-8.06,4.95Zm473.76-4.16l-8.14-4.81.34-.57,8.16,4.78-.35.6Zm-477.65-2.37l-.33-.57,8.18-4.74.34.6-8.2,4.71Zm481.44-4.26l-8.29-4.54.33-.59,8.29,4.54-.33.59Zm-485.14-2.35l-.32-.59,8.32-4.5.32.59-8.32,4.5Zm488.74-4.36l-8.42-4.3.32-.63,8.4,4.35-.3.58Zm-492.26-2.36l-.3-.59,8.43-4.28.31.61-8.44,4.25Zm495.67-4.43l-8.52-4.1.29-.61,8.52,4.1-.29.61Zm-498.99-2.36l-.29-.62,8.55-4.03.28.59-8.54,4.05Zm502.2-4.51l-8.6-3.93.26-.58,8.63,3.86-.29.65Zm-505.34-2.39l-.28-.63,8.67-3.78.26.6-8.66,3.8Zm508.38-4.62l-8.72-3.66.25-.6,8.74,3.61-.27.65Zm-511.33-2.36l-.25-.61,8.76-3.57.26.63-8.76,3.55Zm514.17-4.72l-8.82-3.41.24-.62,8.83,3.38-.25.65Zm-516.93-2.33l-.24-.64,8.86-3.29.23.62-8.86,3.31Zm519.56-4.81l-8.9-3.19.21-.6,8.93,3.12-.24.68Zm-522.12-2.31l-.23-.66,8.96-3.04.21.62-8.94,3.08Zm524.56-4.92l-9.01-2.88.21-.65,9,2.9-.2.63Zm-526.94-2.3l-.2-.65,9.03-2.81.2.64-9.02,2.82Zm529.17-4.95l-9.08-2.65.19-.64,9.08,2.64-.19.66Zm-531.33-2.32l-.19-.67,9.11-2.55.18.64-9.1,2.58Zm533.36-4.99l-9.14-2.41.17-.65,9.15,2.39-.17.66Zm-535.33-2.34l-.17-.67,9.17-2.31.16.64-9.16,2.34Zm537.15-5.03l-9.21-2.16.15-.65,9.21,2.15-.16.67Zm-538.92-2.37l-.15-.66,9.23-2.06.15.66-9.23,2.06Zm540.54-5.05l-9.26-1.91.13-.63,9.28,1.84-.14.7Zm-542.1-2.38l-.13-.67,9.28-1.8.13.65-9.28,1.81Zm543.51-5.05l-9.3-1.71.11-.61,9.32,1.61-.13.72Zm-544.86-2.42l-.11-.68,9.33-1.54.11.66-9.33,1.56Zm546.08-5.1l-9.35-1.42.09-.64,9.36,1.35-.1.7Zm-547.23-2.41l-.09-.69,9.37-1.26.09.65-9.37,1.29Zm548.23-5.11l-9.38-1.17.08-.64,9.39,1.1-.08.7Zm-549.17-2.43l-.06-.56,9.39-1.14.07.66-9.4,1.04Zm549.97-5.15l-9.42-.86.06-.67,9.42.86-.06.67Zm-550.7-2.41l-.05-.67,9.42-.77.05.67-9.42.77Zm551.3-5.15l-9.44-.61.04-.68,9.44.62-.04.67Zm-551.82-2.42l-.04-.69,9.44-.49.04.66-9.44.52Zm552.21-5.16l-9.45-.37.02-.64,9.45.31-.03.71Zm-552.52-2.43l-.02-.69,9.45-.25.02.66-9.45.28Zm552.66-2.59l-9.45-.18v-.68s9.47.18,9.47.18v.68Zm-543.32-5.02h-9.46v-.7s9.46.04,9.46.04v.65Zm533.91-2.51v-.67s9.45-.06,9.45-.06v.67s-9.45.06-9.45.06Zm-533.82-4.83l-9.45-.25.02-.69,9.45.28-.02.66Zm533.67-2.5l-.02-.64,9.45-.37.02.7-9.45.31Zm-533.37-4.83l-9.44-.49.04-.69,9.44.52-.04.66Zm533.02-2.5l-.04-.64,9.44-.62.04.7-9.44.56Zm-532.53-4.81l-9.42-.77.05-.67,9.42.77-.05.67Zm531.98-2.51l-.06-.64,9.42-.86.06.7-9.42.8Zm-531.29-4.8l-9.4-1.01.07-.69,9.4,1.05-.07.65Zm530.54-2.47l-.08-.67,9.39-1.11.08.67-9.39,1.11Zm-529.65-4.82l-9.37-1.26.09-.69,9.37,1.29-.09.65Zm528.7-2.46l-.1-.67,9.36-1.35.1.67-9.36,1.35Zm-527.61-4.78l-9.33-1.54.11-.66,9.33,1.54-.11.67Zm526.46-2.47l-.11-.64,9.31-1.66.11.64-9.31,1.66Zm-525.17-4.76l-9.29-1.78.13-.68,9.28,1.81-.13.65Zm523.81-2.48l-.12-.6,9.26-1.91.15.72-9.28,1.79Zm-522.33-4.7l-9.24-2.03.12-.55,9.26,1.94-.14.65Zm520.78-2.44l-.15-.63,9.21-2.15.16.69-9.22,2.09Zm-519.1-4.69l-9.17-2.31.16-.65,9.17,2.3-.17.66Zm517.35-2.44l-.16-.62,9.15-2.4.18.69-9.16,2.34Zm-515.47-4.66l-9.11-2.55.18-.65,9.11,2.55-.18.65Zm513.53-2.39l-.19-.65,9.08-2.65.19.65-9.08,2.65Zm-511.46-4.65l-9.03-2.8.21-.66,9.02,2.83-.19.63Zm509.32-2.36l-.21-.64,9-2.9.21.64-9,2.9Zm-507.05-4.62l-8.96-3.04.22-.66,8.95,3.06-.21.63Zm504.71-2.34l-.23-.64,8.92-3.14.22.63-8.92,3.15Zm-502.25-4.59l-8.86-3.31.24-.64,8.86,3.31-.24.64Zm499.73-2.3l-.23-.6,8.82-3.4.25.65-8.84,3.35Zm-497.07-4.57l-8.76-3.55.25-.63,8.76,3.55-.25.63Zm494.36-2.23l-.24-.59,8.72-3.65.27.65-8.75,3.59Zm-491.5-4.57l-8.67-3.77.28-.64,8.65,3.82-.26.6Zm488.61-2.15l-.26-.58,8.62-3.89.29.65-8.65,3.82Zm-485.58-4.55l-8.56-4.02.29-.63,8.55,4.04-.28.6Zm482.51-2.08l-.28-.58,8.51-4.13.3.63-8.53,4.08Zm-479.29-4.53l-8.44-4.27.31-.6,8.44,4.27-.31.6Zm476.04-2l-.32-.62,8.41-4.33.3.58-8.39,4.36Zm-472.64-4.53l-8.32-4.49.33-.61,8.31,4.51-.32.58Zm469.2-1.93l-.33-.6,8.28-4.57.32.58-8.27,4.59Zm-465.63-4.48l-8.19-4.72.34-.59,8.18,4.74-.33.58Zm462-1.89l-.34-.57,8.14-4.81.35.59-8.15,4.8Zm-458.25-4.43l-8.07-4.94.37-.59,8.04,4.97-.34.56Zm454.46-1.82l-.37-.59,8.02-5,.34.55-8,5.04Zm-450.54-4.39l-7.92-5.16.38-.58,7.9,5.2-.36.55Zm446.57-1.79l-.37-.55,7.87-5.25.38.57-7.88,5.23Zm-442.48-4.31l-7.78-5.38.39-.57,7.76,5.4-.38.55Zm438.36-1.73l-.39-.55,7.71-5.47.39.55-7.71,5.47Zm-434.1-4.25l-7.62-5.59.41-.56,7.61,5.61-.39.53Zm429.8-1.69l-.4-.54,7.57-5.66.4.54-7.57,5.66Zm-425.38-4.17l-7.46-5.81.42-.54,7.45,5.82-.41.53Zm420.93-1.64l-.44-.55,7.43-5.85.4.51-7.39,5.89Zm-416.35-4.11l-7.31-5.99.44-.54,7.29,6.03-.42.51Zm411.73-1.6l-.43-.52,7.25-6.08.43.52-7.25,6.08Zm-407-4.01l-7.13-6.21.44-.51,7.13,6.21-.44.51Zm402.21-1.59l-.42-.48,7.08-6.27.47.53-7.12,6.22Zm-397.32-3.9l-6.97-6.39.46-.51,6.96,6.4-.45.49Zm392.41-1.52l-.46-.49,6.91-6.45.46.49-6.91,6.45Zm-387.38-3.82l-6.79-6.58.48-.49,6.78,6.59-.46.48Zm382.32-1.49l-.47-.48,6.73-6.64.47.48-6.73,6.64Zm-377.14-3.72l-6.61-6.76.49-.48,6.59,6.78-.48.46Zm371.93-1.45l-.49-.47,6.55-6.82.49.47-6.55,6.82Zm-366.61-3.62l-6.44-6.93.52-.48,6.39,6.97-.47.44Zm361.24-1.42l-.48-.44,6.36-7,.51.47-6.39,6.97Zm-355.8-3.49l-6.24-7.1.52-.46,6.21,7.13-.49.43Zm350.31-1.38l-.49-.42,6.14-7.19.54.46-6.19,7.15Zm-344.73-3.38l-6.04-7.27.54-.44,6.01,7.3-.5.42Zm339.12-1.33l-.53-.43,5.97-7.33.52.42-5.96,7.34Zm-333.43-3.26l-5.82-7.45.53-.42,5.82,7.45-.53.42Zm327.67-1.31l-.53-.41,5.75-7.51.55.42-5.77,7.49Zm-321.84-3.14l-5.63-7.6.55-.41,5.61,7.61-.53.39Zm315.97-1.26l-.55-.4,5.55-7.66.55.4-5.55,7.66Zm-310.02-3.03l-5.43-7.74.57-.4,5.39,7.77-.54.37Zm304.01-1.23l-.55-.38,5.34-7.8.57.39-5.36,7.79Zm-297.95-2.89l-5.21-7.89.58-.38,5.17,7.91-.54.36Zm291.85-1.19l-.57-.37,5.14-7.94.57.37-5.13,7.94Zm-285.68-2.76l-4.99-8.03.6-.37,4.94,8.06-.55.34Zm279.45-1.16l-.57-.34,4.9-8.09.59.36-4.93,8.07Zm-273.18-2.62l-4.77-8.16.59-.35,4.75,8.18-.57.33Zm266.86-1.11l-.58-.33,4.66-8.23.6.34-4.69,8.21Zm-260.49-2.49l-4.54-8.3.6-.33,4.52,8.31-.59.32Zm254.05-1.08l-.58-.31,4.45-8.34.61.33-4.47,8.33Zm-247.58-2.35l-4.32-8.41.61-.31,4.29,8.43-.59.3Zm241.06-1.03l-.61-.3,4.23-8.46.61.3-4.23,8.46Zm-234.51-2.21l-4.08-8.53.63-.3,4.04,8.55-.59.28Zm227.88-1l-.6-.28,3.98-8.58.63.29-4.01,8.56Zm-221.24-2.07l-3.83-8.65.62-.27,3.83,8.65-.62.27Zm214.53-.96l-.6-.26,3.73-8.69.65.28-3.78,8.67Zm-207.79-1.93l-3.62-8.73.63-.26,3.6,8.75-.61.25Zm201.01-.9l-.63-.25,3.5-8.78.63.25-3.51,8.78Zm-194.23-1.79l-3.37-8.84.64-.24,3.34,8.85-.62.23Zm187.35-.86l-.62-.23,3.25-8.88.65.24-3.27,8.87Zm-180.49-1.65l-3.11-8.93.64-.22,3.11,8.93-.64.22Zm173.55-.81l-.64-.22,3.01-8.96.65.22-3.02,8.96Zm-166.59-1.52l-2.87-9.01.64-.2,2.87,9.01-.64.2Zm159.61-.74l-.65-.2,2.77-9.04.65.2-2.77,9.04Zm-152.59-1.39l-2.61-9.09.65-.19,2.6,9.09-.64.18Zm145.56-.67l-.65-.18,2.5-9.12.66.18-2.51,9.12Zm-138.48-1.27l-2.36-9.16.66-.17,2.35,9.16-.65.17Zm131.38-.6l-.65-.16,2.25-9.18.66.16-2.26,9.18Zm-124.25-1.14l-2.12-9.22.67-.15,2.1,9.22-.65.15Zm117.1-.53l-.65-.14,2-9.24.67.15-2.02,9.24Zm-109.94-1.01l-1.84-9.28.66-.13,1.85,9.27-.67.13Zm102.75-.46l-.66-.13,1.75-9.29.66.13-1.75,9.29Zm-95.53-.88l-1.61-9.32.69-.12,1.56,9.33-.64.11Zm88.3-.39l-.65-.1,1.47-9.34.69.11-1.51,9.33Zm-7.26-1.07l-.66-.09,1.23-9.38.68.09-1.26,9.37Zm-7.27-.87l-.67-.07.98-9.4.67.07-.98,9.4Zm-7.31-.67l-.66-.05.71-9.43.6.05-.64,9.44Zm-7.33-.47l-.66-.03.46-9.45.69.03-.5,9.44Zm-7.32-.28l-.67-.02.21-9.45.68.02-.22,9.45Z"/><path class="cls-27" d="m425.45,354.47l48.13-42.99c-3.82-3-8.11-5.44-12.75-7.15l-35.38,31.6v18.54Z"/><path class="cls-27" d="m411.62,348.28l-13.04,11.65c1.19,4.83,3.11,9.37,5.66,13.49l7.38-6.59v-18.54Z"/><path class="cls-18" d="m451.19,312.93v-11.04c-2.21-.32-4.46-.49-6.76-.49s-4.76.18-7.07.53v23.36l13.83-12.35Z"/><path class="cls-18" d="m451.19,377.89v-46.42l-13.83,12.35v51.48c2.31.35,4.67.53,7.07.53,2.81,0,5.57-.26,8.25-.73l37.03-33.08c1.26-4.25,1.94-8.75,1.94-13.41,0-2.19-.16-4.35-.45-6.47l-40.01,35.74Z"/><path class="cls-23" d="m451.19,364.26l37.1-33.14c-1.77-4.43-4.18-8.52-7.13-12.17l-29.97,26.77v18.54Z"/><path class="cls-23" d="m437.36,358.07l-11.91,10.64v-63.33c-5.16,2.27-9.83,5.43-13.83,9.3v67.88c3.12,3.01,6.64,5.61,10.49,7.68l15.25-13.62v-18.54Z"/><circle class="cls-19" cx="443.37" cy="104.87" r="4.08"/><circle class="cls-24" cx="443.37" cy="104.87" r="2.04"/><circle class="cls-19" cx="255.24" cy="197.41" r="4.08"/><circle class="cls-24" cx="255.24" cy="197.41" r="2.04"/><circle class="cls-19" cx="207.23" cy="399.66" r="4.08"/><circle class="cls-24" cx="207.23" cy="399.66" r="2.04"/><circle class="cls-19" cx="632.52" cy="192.59" r="4.08"/><circle class="cls-24" cx="632.52" cy="192.59" r="2.04"/><g id="_512-transparent-copy-2"><rect id="Rectangle" class="cls-24" x="438.29" y="156.18" width="10.92" height="1.7"/><path id="Combined-Shape" class="cls-24" d="m452.13,153.5c1.93,0,3.49,1.56,3.49,3.49s-1.56,3.49-3.49,3.49-3.49-1.56-3.49-3.49,1.56-3.49,3.49-3.49Zm.34,1.15h-.68c-.05,0-.1.04-.11.09-.05.18-.07.38-.09.57-.09.03-.19.07-.28.12l-.42-.33s-.05-.03-.08-.03c-.1,0-.51.44-.59.55-.02.02-.03.04-.03.07s.01.05.03.07c.11.14.22.27.33.42-.05.09-.09.18-.12.28l-.57.09s-.08.06-.08.11v.68c0,.05.04.1.09.11l.56.08c.03.1.07.2.12.3-.1.14-.22.28-.32.42-.02.02-.02.04-.02.07,0,.02,0,.05.02.07.13.18.34.37.5.51.02.02.05.03.08.03s.05,0,.08-.03l.43-.33c.09.05.18.08.27.11l.09.56c0,.05.05.09.11.09h.68c.05,0,.1-.04.11-.09.05-.18.07-.38.09-.57.09-.03.19-.07.28-.12l.42.33s.05.03.08.03c.1,0,.51-.45.59-.55.02-.02.03-.04.03-.07s-.01-.05-.03-.08c-.11-.14-.22-.27-.33-.42.05-.09.09-.18.12-.28l.56-.09s.09-.06.09-.11v-.68c0-.05-.04-.1-.09-.11l-.56-.09c-.03-.1-.07-.2-.12-.3.1-.14.22-.28.32-.42.02-.02.02-.04.02-.07,0-.02,0-.05-.02-.07-.13-.18-.34-.37-.5-.52-.02-.02-.05-.03-.08-.03s-.05,0-.07.03l-.43.33c-.09-.05-.18-.08-.27-.11l-.09-.56c0-.05-.05-.09-.11-.09Z"/><g id="Oval-Copy-2"><path class="cls-24" d="m436.53,160.42c-1.93,0-3.49-1.57-3.49-3.49s1.57-3.49,3.49-3.49,3.49,1.57,3.49,3.49-1.57,3.49-3.49,3.49Zm0-5.29c-.99,0-1.8.81-1.8,1.8s.81,1.8,1.8,1.8,1.8-.81,1.8-1.8-.81-1.8-1.8-1.8Z"/></g><path id="Path-2" class="cls-24" d="m441.58,153.5c.33-.96.7-1.88,1.69-3.25-1.43-1.4-3.11-2.28-5.04-2.64l-1.78,1.78c.74.73,1.29,1.29,1.66,1.66,1.82.44,3.18,2.02,3.47,2.44Z"/><path id="Path-3" class="cls-24" d="m435.96,147.48l-1.92,1.91c1.03,1.02,1.54,1.54,1.54,1.54-1.54-.08-5.2,1.94-5.2,6.03,0,2.72,1.39,4.68,4.17,5.88l1.87,1.85c-1.13,1.14-1.7,1.71-1.7,1.71,0,0-7.43-1.35-7.73-9.44.41-5.52,3.4-8.68,8.96-9.48Z"/><path id="Path-4" class="cls-24" d="m437.25,163.09l1.61,1.6-1.61,1.76c5.39-.74,8.33-3.91,8.81-9.51.16-2.98,1.64-4.94,4.44-5.87l1.78-1.68-1.78-1.78c-4.94,1.21-7.53,4.33-7.76,9.35-.27,3.42-2.1,5.46-5.49,6.13Z"/><path id="Path-5" class="cls-24" d="m447.17,160.48c1.03,1.48,2.45,2.35,4.25,2.6l-1.64,1.64,1.64,1.78c-2.32-.21-4.31-1.13-5.96-2.77,0,0,.95-1.13,1.71-3.25Z"/><path id="Path-6" class="cls-24" d="m452.76,147.49l1.92,1.91-1.54,1.54c3.38.87,5.11,2.88,5.2,6.02-.09,2.91-1.51,4.87-4.27,5.89l-1.87,1.87,1.87,1.63c4.77-1.33,7.33-4.46,7.66-9.39-.4-5.61-3.39-8.77-8.97-9.47Z"/></g><path class="cls-24" d="m259.79,378.46c-9,0-16.3,7.3-16.3,16.3s7.3,16.3,16.3,16.3,16.3-7.3,16.3-16.3-7.3-16.3-16.3-16.3Zm0,30.51c-2.56,0-4.64-1.71-4.64-3.82h9.28c0,2.11-2.08,3.82-4.64,3.82Zm7.66-5.09h-15.32v-2.78h15.32v2.78h0Zm-.06-4.21h-15.22c-.05-.06-.1-.12-.15-.18-1.57-1.9-1.94-2.9-2.3-3.91,0-.03,1.9.39,3.25.69,0,0,.7.16,1.71.35-.98-1.15-1.56-2.6-1.56-4.09,0-3.27,2.51-6.12,1.6-8.43.88.07,1.82,1.86,1.88,4.65.94-1.29,1.33-3.65,1.33-5.1s.99-3.24,1.98-3.3c-.88,1.45.23,2.7,1.21,5.78.37,1.16.32,3.11.61,4.35.09-2.57.54-6.32,2.17-7.61-.72,1.63.11,3.67.67,4.65.91,1.58,1.46,2.78,1.46,5.05,0,1.52-.56,2.95-1.51,4.07,1.08-.2,1.82-.38,1.82-.38l3.5-.68s-.51,2.09-2.46,4.1Z"/><path class="cls-24" d="m308.73,229.18c-.06-.55-.14-1.19-.32-1.88s-.46-1.45-.84-2.26c-.4-.78-.9-1.62-1.56-2.4-.26-.32-.55-.61-.84-.93.46-1.82-.55-3.41-.55-3.41-1.76-.12-2.86.55-3.27.84-.06-.03-.14-.06-.2-.09-.29-.12-.61-.23-.93-.35-.32-.09-.64-.2-.95-.26-.32-.09-.67-.14-1.01-.2-.06,0-.12-.03-.17-.03-.75-2.43-2.95-3.47-2.95-3.47-2.52,1.62-3.01,3.79-3.01,3.79,0,0,0,.06-.03.12-.14.03-.26.09-.4.12-.17.06-.38.12-.55.2-.17.09-.38.14-.55.23-.38.17-.72.35-1.1.55-.35.2-.69.4-1.01.64-.06-.03-.09-.06-.09-.06-3.38-1.3-6.39.26-6.39.26-.26,3.62,1.36,5.87,1.68,6.28-.09.23-.14.43-.23.67-.26.81-.43,1.65-.55,2.52-.03.12-.03.26-.06.38-3.12,1.53-4.05,4.72-4.05,4.72,2.6,3.01,5.67,3.18,5.67,3.18h0c.38.69.84,1.36,1.33,1.97.2.26.43.49.67.75-.95,2.72.14,5,.14,5,2.92.12,4.83-1.27,5.24-1.59.29.09.58.17.87.26.9.23,1.82.38,2.72.4h1.19c1.36,1.97,3.79,2.23,3.79,2.23,1.71-1.82,1.82-3.59,1.82-3.99h0v-.09h0v-.09c.35-.26.69-.52,1.04-.81.69-.61,1.27-1.33,1.79-2.08.06-.06.09-.14.14-.2,1.94.12,3.3-1.21,3.3-1.21-.32-2.02-1.48-3.01-1.71-3.18h0l-.03-.03-.03-.03h0l-.03-.03c0-.12.03-.23.03-.38.03-.23.03-.43.03-.67v-.84c0-.06,0-.12-.03-.17l-.03-.17-.03-.17c-.03-.23-.09-.43-.12-.67-.2-.87-.55-1.71-.98-2.43-.46-.75-1.01-1.39-1.65-1.97-.64-.55-1.33-1.01-2.08-1.33-.75-.35-1.5-.55-2.29-.64-.38-.06-.78-.06-1.16-.06h-.58c-.2.03-.4.06-.58.09-.78.14-1.5.43-2.14.81-.64.38-1.19.87-1.65,1.42s-.81,1.13-1.04,1.76c-.23.61-.38,1.27-.4,1.88v.69c0,.09,0,.14.03.23.03.32.09.61.17.9.17.58.43,1.1.78,1.56s.72.81,1.16,1.1.87.49,1.33.64.9.2,1.3.17h.61c.06,0,.12-.03.14-.03.06,0,.09-.03.14-.03.09-.03.2-.06.29-.09.17-.06.35-.14.52-.2.17-.09.32-.17.43-.26.03-.03.09-.06.12-.09.14-.12.17-.32.06-.46-.12-.12-.29-.14-.43-.09-.03.03-.06.03-.12.06-.12.06-.26.12-.38.14-.14.03-.29.09-.43.12-.09,0-.14.03-.23.03h-.49s-.03,0,0,0h-.12s-.09,0-.12-.03c-.32-.06-.67-.14-.98-.29s-.64-.35-.9-.61c-.29-.26-.52-.55-.72-.9s-.32-.72-.38-1.1c-.03-.2-.06-.4-.03-.61v-.17s0,0,0,0v-.14c0-.12.03-.2.06-.32.14-.87.58-1.71,1.24-2.34.17-.17.35-.32.55-.43.2-.14.4-.26.61-.35s.43-.17.67-.23.46-.12.69-.12c.12,0,.23-.03.35-.03h.23s0,0,0,0h.12c.26.03.52.06.75.12.49.12.98.29,1.45.55.93.52,1.71,1.3,2.17,2.26.23.46.4.98.49,1.53.03.14.03.26.06.4v.75c0,.14-.03.29-.03.43-.03.14-.03.29-.06.43s-.06.29-.09.43c-.06.29-.17.55-.26.84-.2.55-.49,1.07-.84,1.53-.69.95-1.65,1.74-2.72,2.23-.55.23-1.1.43-1.68.52-.29.06-.58.09-.87.09h-.43s0,0,0,0h-.03c-.14,0-.32,0-.46-.03-.64-.06-1.24-.17-1.85-.35s-1.19-.4-1.74-.69c-1.1-.58-2.08-1.42-2.86-2.37-.38-.49-.72-1.01-1.01-1.56s-.49-1.13-.67-1.71-.26-1.19-.29-1.79v-.61h0v-.29c0-.29.03-.61.09-.93.03-.32.09-.61.14-.93.06-.32.14-.61.23-.93.17-.61.38-1.19.64-1.74.52-1.1,1.19-2.08,1.97-2.86.2-.2.4-.38.64-.55.09-.09.29-.26.52-.4s.46-.29.72-.4c.12-.06.23-.12.38-.17.06-.03.12-.06.2-.09.06-.03.12-.06.2-.09.26-.12.52-.2.78-.29.06-.03.14-.03.2-.06s.14-.03.2-.06c.14-.03.26-.06.4-.12.06-.03.14-.03.2-.06.06,0,.14-.03.2-.03s.14-.03.2-.03l.12-.03.12-.03c.06,0,.14-.03.2-.03.09,0,.14-.03.23-.03.06,0,.17-.03.23-.03s.09,0,.14-.03h.2c.09,0,.14,0,.23-.03h.12s.03,0,0,0h1.07c.52.03,1.04.09,1.53.17.98.17,1.94.49,2.78.93.84.4,1.62.93,2.26,1.48.03.03.09.06.12.12.03.03.09.06.12.12.09.06.14.14.23.2s.14.14.23.2c.06.09.14.14.2.23.29.29.55.61.78.9.46.61.84,1.21,1.13,1.79.03.03.03.06.06.12.03.03.03.06.06.12s.06.14.12.2c.03.06.06.14.09.2.03.06.06.14.09.2.12.26.2.52.29.78.14.4.23.75.32,1.04.03.12.14.2.26.2.14,0,.23-.12.23-.26-.03-.35-.03-.72-.06-1.16Z"/><g id="flux-icon"><g id="Group"><path class="cls-24" d="m606.64,217.88l-10.63-6.91c-.31-.2-.72-.2-1.03,0l-10.63,6.91c-.58.37-.58,1.22,0,1.59l10.02,6.52v-4.74c0-.31-.25-.56-.56-.56h-.74c-.43,0-.7-.47-.48-.84l2.41-4.18c.22-.37.75-.37.97,0l2.41,4.18c.22.37-.05.84-.48.84h-.74c-.31,0-.56.25-.56.56v4.74l10.02-6.52c.58-.37.58-1.22,0-1.59Z"/><path id="Fill-5" class="cls-24" d="m599.18,229.92l-2.56-1.67v.79c.84.36,1.7.64,2.56.88"/><path id="Fill-7" class="cls-24" d="m596.61,230.46v1.11c.85.26,1.7.47,2.55.68,2.77.68,5.39,1.33,7.49,3.43.11.11.21.22.31.32.22-.41.11-.96-.32-1.24l-4.16-2.71c-1.01-.33-2.04-.59-3.06-.84-.96-.24-1.9-.47-2.8-.76"/><path id="Fill-9" class="cls-24" d="m594.38,229.55c-.36-.19-.71-.38-1.05-.61l-.95.62c.64.47,1.31.85,2.01,1.18v-1.18Z"/><path id="Fill-11" class="cls-24" d="m597.56,233.08c-.32-.08-.63-.16-.95-.24v1.09c.23.06.46.12.69.17,2.77.68,5.39,1.33,7.49,3.43,0,0,0,0,.01.01l.9-.59c-.05-.06-.11-.12-.16-.17-2.31-2.31-5.2-3.02-7.98-3.71"/><path id="Fill-13" class="cls-24" d="m594.38,232.2c-1.2-.41-2.34-.94-3.39-1.74l-.93.61c1.33,1.09,2.8,1.76,4.32,2.25v-1.11Z"/><path id="Fill-15" class="cls-24" d="m594.38,234.6c-2.07-.54-4.02-1.21-5.68-2.65l-.92.6c1.95,1.8,4.28,2.55,6.6,3.15v-1.09Z"/><path id="Fill-17" class="cls-24" d="m596.61,236.26c2.17.56,4.2,1.23,5.93,2.77l.91-.59c-2.02-1.9-4.44-2.65-6.84-3.26v1.09Z"/><path id="Fill-19" class="cls-24" d="m586.42,233.42l-.9.59s.06.07.09.1c2.31,2.31,5.2,3.02,7.98,3.71,2.41.6,4.71,1.16,6.66,2.69l.93-.6c-2.19-1.84-4.8-2.49-7.33-3.11-2.74-.68-5.33-1.32-7.43-3.37"/><path id="Fill-21" class="cls-24" d="m584.5,235.22c-.11-.11-.2-.21-.3-.32-.41.41-.36,1.12.15,1.46l3.13,2.03c1.38.57,2.83.93,4.26,1.28,2.22.55,4.35,1.07,6.19,2.35l.95-.62c-2.09-1.57-4.52-2.18-6.88-2.76-2.77-.68-5.39-1.33-7.49-3.43"/><path id="Fill-23" class="cls-24" d="m594.68,243.08c.21.1.41.21.62.32.24.05.5,0,.71-.13l.53-.34c-1.69-1.13-3.56-1.7-5.43-2.18l3.58,2.33Z"/></g></g><path class="cls-24" d="m635.9,405.22c-.83.83-1.98.86-2.86.09-.05-.05-.11-.1-.16-.15-4.47-4.47-8.95-8.94-13.42-13.42-.79-.79-.91-1.87-.3-2.72.08-.11.17-.21.26-.3,3.03-3.03,6.06-6.06,9.08-9.1.18-.18.26-.15.42.01,1.04,1.06,2.09,2.1,3.15,3.15.13.13.18.23.12.42-.34,1.11.11,2.24,1.13,2.79.2.11.24.23.24.43,0,2.66,0,5.31,0,7.97,0,.21-.05.32-.25.43-1.05.57-1.51,1.82-1.1,2.91.43,1.13,1.58,1.75,2.76,1.49,1.14-.25,1.95-1.32,1.85-2.5-.07-.8-.45-1.42-1.14-1.84-.14-.09-.19-.18-.19-.34,0-2.68,0-5.36,0-8.03,0-.06-.02-.12.04-.18.1,0,.15.1.21.16.94.94,1.88,1.88,2.82,2.81.14.14.16.24.11.42-.31,1.01.07,2.07.94,2.66.86.59,2,.54,2.82-.12.8-.64,1.1-1.74.74-2.7-.38-.98-1.32-1.59-2.38-1.53-.03,0-.07,0-.09,0-.47.21-.74-.05-1.04-.36-.91-.94-1.84-1.86-2.77-2.78-.14-.14-.18-.25-.13-.45.38-1.75-1.09-3.21-2.84-2.85-.18.04-.3,0-.43-.13-1.06-1.08-2.13-2.15-3.21-3.21-.15-.15-.19-.23-.01-.4.88-.86,1.74-1.73,2.61-2.59.86-.86,2.09-.86,2.95,0,4.51,4.51,9.02,9.02,13.53,13.53.87.87.87,2.09,0,2.97-4.49,4.49-8.97,8.98-13.46,13.46Z"/><circle class="cls-21" cx="397.71" cy="55.16" r="8.22"/><circle class="cls-23" cx="397.71" cy="55.16" r="4.11"/><line class="cls-9" x1="404.03" y1="89.93" x2="399.95" y2="63.5"/></g></g></g></svg>