<svg xmlns="http://www.w3.org/2000/svg" xmlns:xlink="http://www.w3.org/1999/xlink" viewBox="0 0 1440 1024" xmlns:v="https://vecta.io/nano"><symbol id="A" viewBox="-0.9 -0.9 1.9 1.9"><circle cx="0" cy="0" r=".9" fill="#fbecf5"/></symbol><path d="M0 0h1440v1024H0z" fill="#00b3ec"/><g><g opacity=".55"><use xlink:href="#A" width="1.9" height="1.9" x="-.9" y="-.9" transform="matrix(1.9228 0 0 -1.9228 805.1758 619.1799)"/><use xlink:href="#A" width="1.9" height="1.9" x="-.9" y="-.9" transform="matrix(1.9228 0 0 -1.9228 735.4539 622.0732)"/><use xlink:href="#A" width="1.9" height="1.9" x="-.9" y="-.9" transform="matrix(2.7546 0 0 -2.7546 644.5654 653.8517)"/><use xlink:href="#A" width="1.9" height="1.9" x="-.9" y="-.9" transform="matrix(3.0329 0 0 -3.0329 644.5173 676.7087)"/><use xlink:href="#A" width="1.9" height="1.9" x="-.9" y="-.9" transform="matrix(1.9228 0 0 -1.9228 701.8152 697.0649)"/><use xlink:href="#A" width="1.9" height="1.9" x="-.9" y="-.9" transform="matrix(1.9228 0 0 -1.9228 829.986 737.8286)"/><use xlink:href="#A" width="1.9" height="1.9" x="-.9" y="-.9" transform="matrix(1.9228 0 0 -1.9228 912.4934 794.0139)"/><use xlink:href="#A" width="1.9" height="1.9" x="-.9" y="-.9" transform="matrix(1.9228 0 0 -1.9228 945.2375 875.5103)"/><use xlink:href="#A" width="1.9" height="1.9" x="-.9" y="-.9" transform="matrix(1.9228 0 0 -1.9228 817.7145 911.0369)"/><use xlink:href="#A" width="1.9" height="1.9" x="-.9" y="-.9" transform="matrix(1.9228 0 0 -1.9228 646.2517 913.4516)"/><use xlink:href="#A" width="1.9" height="1.9" x="-.9" y="-.9" transform="matrix(1.9228 0 0 -1.9228 631.8469 919.3517)"/><use xlink:href="#A" width="1.9" height="1.9" x="-.9" y="-.9" transform="matrix(1.9228 0 0 -1.9228 656.0668 896.3931)"/><use xlink:href="#A" width="1.9" height="1.9" x="-.9" y="-.9" transform="matrix(2.8719 0 0 -2.8719 778.4082 784.7647)"/><use xlink:href="#A" width="1.9" height="1.9" x="-.9" y="-.9" transform="matrix(1.9228 0 0 -1.9228 866.985 815.9779)"/><use xlink:href="#A" width="1.9" height="1.9" x="-.9" y="-.9" transform="matrix(4.4008 0 0 -4.4008 1035.6995 815.0534)"/><use xlink:href="#A" width="1.9" height="1.9" x="-.9" y="-.9" transform="matrix(1.9228 0 0 -1.9228 1200.1676 796.5022)"/><use xlink:href="#A" width="1.9" height="1.9" x="-.9" y="-.9" transform="matrix(1.9228 0 0 -1.9228 1327.2865 658.1435)"/><use xlink:href="#A" width="1.9" height="1.9" x="-.9" y="-.9" transform="matrix(1.9228 0 0 -1.9228 1270.5895 624.5823)"/><use xlink:href="#A" width="1.9" height="1.9" x="-.9" y="-.9" transform="matrix(1.9228 0 0 -1.9228 1271.1655 562.6357)"/><use xlink:href="#A" width="1.9" height="1.9" x="-.9" y="-.9" transform="matrix(3.9189 0 0 -3.9189 1184.7278 577.5187)"/><use xlink:href="#A" width="1.9" height="1.9" x="-.9" y="-.9" transform="matrix(5.7014 0 0 -5.7014 1184.7079 594.1623)"/><use xlink:href="#A" width="1.9" height="1.9" x="-.9" y="-.9" transform="matrix(1.9228 0 0 -1.9228 1122.1263 590.0269)"/><use xlink:href="#A" width="1.9" height="1.9" x="-.9" y="-.9" transform="matrix(1.9228 0 0 -1.9228 1075.5879 508.7635)"/><use xlink:href="#A" width="1.9" height="1.9" x="-.9" y="-.9" transform="matrix(1.9228 0 0 -1.9228 1001.1855 437.5023)"/><use xlink:href="#A" width="1.9" height="1.9" x="-.9" y="-.9" transform="matrix(1.9228 0 0 -1.9228 919.5876 409.3951)"/><use xlink:href="#A" width="1.9" height="1.9" x="-.9" y="-.9" transform="matrix(1.9228 0 0 -1.9228 881.7872 385.4296)"/><use xlink:href="#A" width="1.9" height="1.9" x="-.9" y="-.9" transform="matrix(1.9228 0 0 -1.9228 636.7626 462.759)"/><use xlink:href="#A" width="1.9" height="1.9" x="-.9" y="-.9" transform="matrix(1.9228 0 0 -1.9228 541.5153 434.4506)"/><use xlink:href="#A" width="1.9" height="1.9" x="-.9" y="-.9" transform="matrix(1.9228 0 0 -1.9228 678.4988 302.6501)"/><use xlink:href="#A" width="1.9" height="1.9" x="-.9" y="-.9" transform="matrix(1.9228 0 0 -1.9228 882.1926 273.907)"/><use xlink:href="#A" width="1.9" height="1.9" x="-.9" y="-.9" transform="matrix(1.9228 0 0 -1.9228 981.4372 262.6919)"/><use xlink:href="#A" width="1.9" height="1.9" x="-.9" y="-.9" transform="matrix(1.9228 0 0 -1.9228 1027.0715 254.4665)"/><use xlink:href="#A" width="1.9" height="1.9" x="-.9" y="-.9" transform="matrix(1.9228 0 0 -1.9228 1214.9802 177.8425)"/><use xlink:href="#A" width="1.9" height="1.9" x="-.9" y="-.9" transform="matrix(1.9228 0 0 -1.9228 1190.1836 246.5808)"/><use xlink:href="#A" width="1.9" height="1.9" x="-.9" y="-.9" transform="matrix(1.9228 0 0 -1.9228 1007.9331 333.4336)"/><use xlink:href="#A" width="1.9" height="1.9" x="-.9" y="-.9" transform="matrix(1.9228 0 0 -1.9228 712.3034 405.4297)"/><use xlink:href="#A" width="1.9" height="1.9" x="-.9" y="-.9" transform="matrix(1.9228 0 0 -1.9228 736.1347 473.4838)"/><use xlink:href="#A" width="1.9" height="1.9" x="-.9" y="-.9" transform="matrix(4.7482 0 0 -4.7482 685.3868 515.9756)"/><use xlink:href="#A" width="1.9" height="1.9" x="-.9" y="-.9" transform="matrix(1.9228 0 0 -1.9228 542.6113 563.6584)"/><use xlink:href="#A" width="1.9" height="1.9" x="-.9" y="-.9" transform="matrix(1.9228 0 0 -1.9228 384.7204 578.3636)"/><use xlink:href="#A" width="1.9" height="1.9" x="-.9" y="-.9" transform="matrix(3.2884 0 0 -3.2884 315.4509 657.6551)"/><use xlink:href="#A" width="1.9" height="1.9" x="-.9" y="-.9" transform="matrix(3.7299 0 0 -3.7299 312.4565 688.834)"/><use xlink:href="#A" width="1.9" height="1.9" x="-.9" y="-.9" transform="matrix(1.9228 0 0 -1.9228 263.8 738.2048)"/><use xlink:href="#A" width="1.9" height="1.9" x="-.9" y="-.9" transform="matrix(1.9228 0 0 -1.9228 230.3054 823.652)"/><use xlink:href="#A" width="1.9" height="1.9" x="-.9" y="-.9" transform="matrix(1.9228 0 0 -1.9228 249.5871 793.7924)"/><use xlink:href="#A" width="1.9" height="1.9" x="-.9" y="-.9" transform="matrix(1.9228 0 0 -1.9228 239.1036 808.9504)"/><use xlink:href="#A" width="1.9" height="1.9" x="-.9" y="-.9" transform="matrix(1.9228 0 0 -1.9228 283.2999 815.716)"/><use xlink:href="#A" width="1.9" height="1.9" x="-.9" y="-.9" transform="matrix(1.9228 0 0 -1.9228 265.4756 773.4617)"/><use xlink:href="#A" width="1.9" height="1.9" x="-.9" y="-.9" transform="matrix(1.9228 0 0 -1.9228 253.6535 766.1952)"/><use xlink:href="#A" width="1.9" height="1.9" x="-.9" y="-.9" transform="matrix(1.9228 0 0 -1.9228 440.2193 918.7255)"/><use xlink:href="#A" width="1.9" height="1.9" x="-.9" y="-.9" transform="matrix(2.9206 0 0 -2.9206 508.1492 948.7062)"/><use xlink:href="#A" width="1.9" height="1.9" x="-.9" y="-.9" transform="matrix(2.4418 0 0 -2.4418 541.9547 963.0062)"/><use xlink:href="#A" width="1.9" height="1.9" x="-.9" y="-.9" transform="matrix(5.3064 0 0 -5.3064 536.1151 888.0438)"/><use xlink:href="#A" width="1.9" height="1.9" x="-.9" y="-.9" transform="matrix(1.9228 0 0 -1.9228 524.8347 844.2)"/><use xlink:href="#A" width="1.9" height="1.9" x="-.9" y="-.9" transform="matrix(3.5947 0 0 -3.5947 570.3558 868.9505)"/><use xlink:href="#A" width="1.9" height="1.9" x="-.9" y="-.9" transform="matrix(1.9228 0 0 -1.9228 683.2996 941.4366)"/><use xlink:href="#A" width="1.9" height="1.9" x="-.9" y="-.9" transform="matrix(1.9272 0 0 -1.9272 499.5353 958.4991)"/><use xlink:href="#A" width="1.9" height="1.9" x="-.9" y="-.9" transform="matrix(2.7046 0 0 -2.7046 396.0664 981.3994)"/><use xlink:href="#A" width="1.9" height="1.9" x="-.9" y="-.9" transform="matrix(1.9228 0 0 -1.9228 368.5222 965.3901)"/><use xlink:href="#A" width="1.9" height="1.9" x="-.9" y="-.9" transform="matrix(3.8137 0 0 -3.8137 327.4283 975.6526)"/><use xlink:href="#A" width="1.9" height="1.9" x="-.9" y="-.9" transform="matrix(1.9228 0 0 -1.9228 607.5824 962.9841)"/><use xlink:href="#A" width="1.9" height="1.9" x="-.9" y="-.9" transform="matrix(1.9228 0 0 -1.9228 674.1819 953.2819)"/><use xlink:href="#A" width="1.9" height="1.9" x="-.9" y="-.9" transform="matrix(1.9228 0 0 -1.9228 767.9044 985.4854)"/><use xlink:href="#A" width="1.9" height="1.9" x="-.9" y="-.9" transform="matrix(1.9228 0 0 -1.9228 857.1161 933.4062)"/><use xlink:href="#A" width="1.9" height="1.9" x="-.9" y="-.9" transform="matrix(1.9228 0 0 -1.9228 854.7683 963.6976)"/><use xlink:href="#A" width="1.9" height="1.9" x="-.9" y="-.9" transform="matrix(1.9228 0 0 -1.9228 824.7438 927.8497)"/><use xlink:href="#A" width="1.9" height="1.9" x="-.9" y="-.9" transform="matrix(1.9228 0 0 -1.9228 829.0086 950.7138)"/><use xlink:href="#A" width="1.9" height="1.9" x="-.9" y="-.9" transform="matrix(1.9228 0 0 -1.9228 903.3648 953.8111)"/><use xlink:href="#A" width="1.9" height="1.9" x="-.9" y="-.9" transform="matrix(1.9228 0 0 -1.9228 1159.7914 986.4541)"/><use xlink:href="#A" width="1.9" height="1.9" x="-.9" y="-.9" transform="matrix(1.9228 0 0 -1.9228 1198.3577 984.4253)"/><use xlink:href="#A" width="1.9" height="1.9" x="-.9" y="-.9" transform="matrix(1.9228 0 0 -1.9228 1268.9651 988.3873)"/><use xlink:href="#A" width="1.9" height="1.9" x="-.9" y="-.9" transform="matrix(1.9228 0 0 -1.9228 1162.4286 926.6431)"/><use xlink:href="#A" width="1.9" height="1.9" x="-.9" y="-.9" transform="matrix(1.9228 0 0 -1.9228 1010.4028 646.669)"/><use xlink:href="#A" width="1.9" height="1.9" x="-.9" y="-.9" transform="matrix(1.9228 0 0 -1.9228 968.3635 689.9153)"/><use xlink:href="#A" width="1.9" height="1.9" x="-.9" y="-.9" transform="matrix(1.9228 0 0 -1.9228 952.4252 579.6104)"/><use xlink:href="#A" width="1.9" height="1.9" x="-.9" y="-.9" transform="matrix(1.9228 0 0 -1.9228 959.5016 553.8234)"/><use xlink:href="#A" width="1.9" height="1.9" x="-.9" y="-.9" transform="matrix(1.9228 0 0 -1.9228 923.1787 547.8918)"/><use xlink:href="#A" width="1.9" height="1.9" x="-.9" y="-.9" transform="matrix(6.4211 0 0 -6.4211 1122.7712 359.094)"/><use xlink:href="#A" width="1.9" height="1.9" x="-.9" y="-.9" transform="matrix(2.2028 0 0 -2.2028 1116.8483 313.0366)"/><use xlink:href="#A" width="1.9" height="1.9" x="-.9" y="-.9" transform="matrix(2.0284 0 0 -2.0284 1137.9365 316.1387)"/><use xlink:href="#A" width="1.9" height="1.9" x="-.9" y="-.9" transform="matrix(2.3055 0 0 -2.3055 1185.7445 299.9539)"/><use xlink:href="#A" width="1.9" height="1.9" x="-.9" y="-.9" transform="matrix(1.9228 0 0 -1.9228 1182.5107 287.256)"/><use xlink:href="#A" width="1.9" height="1.9" x="-.9" y="-.9" transform="matrix(1.9228 0 0 -1.9228 1167.4391 280.0296)"/><use xlink:href="#A" width="1.9" height="1.9" x="-.9" y="-.9" transform="matrix(1.9228 0 0 -1.9228 1165.8281 288.7333)"/><use xlink:href="#A" width="1.9" height="1.9" x="-.9" y="-.9" transform="matrix(1.9228 0 0 -1.9228 1195.0975 395.4119)"/><use xlink:href="#A" width="1.9" height="1.9" x="-.9" y="-.9" transform="matrix(1.9228 0 0 -1.9228 1230.3131 450.4526)"/><use xlink:href="#A" width="1.9" height="1.9" x="-.9" y="-.9" transform="matrix(1.9228 0 0 -1.9228 1333.4578 445.4782)"/><use xlink:href="#A" width="1.9" height="1.9" x="-.9" y="-.9" transform="matrix(1.9228 0 0 -1.9228 681.6774 328.1346)"/><use xlink:href="#A" width="1.9" height="1.9" x="-.9" y="-.9" transform="matrix(5.5602 0 0 -5.5602 540.7847 260.3405)"/><use xlink:href="#A" width="1.9" height="1.9" x="-.9" y="-.9" transform="matrix(2.9313 0 0 -2.9313 499.3515 229.532)"/><use xlink:href="#A" width="1.9" height="1.9" x="-.9" y="-.9" transform="matrix(1.9228 0 0 -1.9228 441.6024 246.8457)"/><use xlink:href="#A" width="1.9" height="1.9" x="-.9" y="-.9" transform="matrix(1.9228 0 0 -1.9228 415.6575 199.7175)"/><use xlink:href="#A" width="1.9" height="1.9" x="-.9" y="-.9" transform="matrix(1.9228 0 0 -1.9228 457.0055 171.6101)"/><use xlink:href="#A" width="1.9" height="1.9" x="-.9" y="-.9" transform="matrix(1.9228 0 0 -1.9228 379.7699 168.4737)"/><use xlink:href="#A" width="1.9" height="1.9" x="-.9" y="-.9" transform="matrix(1.9228 0 0 -1.9228 372.084 128.1671)"/><use xlink:href="#A" width="1.9" height="1.9" x="-.9" y="-.9" transform="matrix(1.9228 0 0 -1.9228 369.1925 176.3337)"/><use xlink:href="#A" width="1.9" height="1.9" x="-.9" y="-.9" transform="matrix(1.9228 0 0 -1.9228 429.9893 343.3532)"/><use xlink:href="#A" width="1.9" height="1.9" x="-.9" y="-.9" transform="matrix(1.9228 0 0 -1.9228 393.4079 314.7839)"/><use xlink:href="#A" width="1.9" height="1.9" x="-.9" y="-.9" transform="matrix(1.9228 0 0 -1.9228 313.5033 267.6976)"/><use xlink:href="#A" width="1.9" height="1.9" x="-.9" y="-.9" transform="matrix(1.9228 0 0 -1.9228 335.6648 301.3274)"/><use xlink:href="#A" width="1.9" height="1.9" x="-.9" y="-.9" transform="matrix(1.9228 0 0 -1.9228 373.0937 380.565)"/><use xlink:href="#A" width="1.9" height="1.9" x="-.9" y="-.9" transform="matrix(1.9228 0 0 -1.9228 243.8099 413.3569)"/><use xlink:href="#A" width="1.9" height="1.9" x="-.9" y="-.9" transform="matrix(1.9228 0 0 -1.9228 692.8308 152.3116)"/><use xlink:href="#A" width="1.9" height="1.9" x="-.9" y="-.9" transform="matrix(1.9228 0 0 -1.9228 697.0402 98.572)"/><use xlink:href="#A" width="1.9" height="1.9" x="-.9" y="-.9" transform="matrix(1.9228 0 0 -1.9228 686.3678 80.5596)"/><use xlink:href="#A" width="1.9" height="1.9" x="-.9" y="-.9" transform="matrix(1.9228 0 0 -1.9228 648.0258 72.2264)"/></g><g opacity=".55"><use xlink:href="#A" width="1.9" height="1.9" x="-.9" y="-.9" transform="matrix(1.9228 0 0 -1.9228 213.4245 314.0786)"/><use xlink:href="#A" width="1.9" height="1.9" x="-.9" y="-.9" transform="matrix(1.9228 0 0 -1.9228 142.2085 189.0968)"/><use xlink:href="#A" width="1.9" height="1.9" x="-.9" y="-.9" transform="matrix(1.9228 0 0 -1.9228 175.3857 179.7023)"/><use xlink:href="#A" width="1.9" height="1.9" x="-.9" y="-.9" transform="matrix(1.9228 0 0 -1.9228 190.6871 131.6897)"/><use xlink:href="#A" width="1.9" height="1.9" x="-.9" y="-.9" transform="matrix(1.9228 0 0 -1.9228 90.552 148.2612)"/><use xlink:href="#A" width="1.9" height="1.9" x="-.9" y="-.9" transform="matrix(1.9228 0 0 -1.9228 78.2288 148.3412)"/><use xlink:href="#A" width="1.9" height="1.9" x="-.9" y="-.9" transform="matrix(1.9228 0 0 -1.9228 26.9112 285.0992)"/><use xlink:href="#A" width="1.9" height="1.9" x="-.9" y="-.9" transform="matrix(1.9228 0 0 -1.9228 65.3473 236.844)"/><use xlink:href="#A" width="1.9" height="1.9" x="-.9" y="-.9" transform="matrix(1.9228 0 0 -1.9228 73.1303 263.4916)"/><use xlink:href="#A" width="1.9" height="1.9" x="-.9" y="-.9" transform="matrix(1.9228 0 0 -1.9228 181.8679 236.4209)"/><use xlink:href="#A" width="1.9" height="1.9" x="-.9" y="-.9" transform="matrix(1.9228 0 0 -1.9228 247.616 191.9053)"/><use xlink:href="#A" width="1.9" height="1.9" x="-.9" y="-.9" transform="matrix(1.9228 0 0 -1.9228 266.7738 168.1178)"/><use xlink:href="#A" width="1.9" height="1.9" x="-.9" y="-.9" transform="matrix(1.9228 0 0 -1.9228 227.4949 117.7383)"/><use xlink:href="#A" width="1.9" height="1.9" x="-.9" y="-.9" transform="matrix(1.9228 0 0 -1.9228 127.6331 69.9473)"/><use xlink:href="#A" width="1.9" height="1.9" x="-.9" y="-.9" transform="matrix(1.9228 0 0 -1.9228 76.1812 75.3883)"/><use xlink:href="#A" width="1.9" height="1.9" x="-.9" y="-.9" transform="matrix(1.9228 0 0 -1.9228 79.5712 59.9796)"/><use xlink:href="#A" width="1.9" height="1.9" x="-.9" y="-.9" transform="matrix(1.9228 0 0 -1.9228 146.4235 91.5443)"/><use xlink:href="#A" width="1.9" height="1.9" x="-.9" y="-.9" transform="matrix(1.9228 0 0 -1.9228 281.1906 100.3183)"/><use xlink:href="#A" width="1.9" height="1.9" x="-.9" y="-.9" transform="matrix(1.9228 0 0 -1.9228 343.3449 87.8786)"/><use xlink:href="#A" width="1.9" height="1.9" x="-.9" y="-.9" transform="matrix(1.9228 0 0 -1.9228 75.1881 403.404)"/><use xlink:href="#A" width="1.9" height="1.9" x="-.9" y="-.9" transform="matrix(1.9228 0 0 -1.9228 63.286 450.3026)"/><use xlink:href="#A" width="1.9" height="1.9" x="-.9" y="-.9" transform="matrix(1.9228 0 0 -1.9228 79.4508 495.0244)"/><use xlink:href="#A" width="1.9" height="1.9" x="-.9" y="-.9" transform="matrix(1.9228 0 0 -1.9228 47.6531 550.4394)"/><use xlink:href="#A" width="1.9" height="1.9" x="-.9" y="-.9" transform="matrix(1.9228 0 0 -1.9228 17.8983 601.4138)"/><use xlink:href="#A" width="1.9" height="1.9" x="-.9" y="-.9" transform="matrix(1.9228 0 0 -1.9228 8.6869 632.4301)"/><use xlink:href="#A" width="1.9" height="1.9" x="-.9" y="-.9" transform="matrix(1.9228 0 0 -1.9228 137.3355 554.8436)"/><use xlink:href="#A" width="1.9" height="1.9" x="-.9" y="-.9" transform="matrix(1.9228 0 0 -1.9228 150.2905 539.0209)"/><use xlink:href="#A" width="1.9" height="1.9" x="-.9" y="-.9" transform="matrix(1.9228 0 0 -1.9228 208.8018 538.8967)"/><use xlink:href="#A" width="1.9" height="1.9" x="-.9" y="-.9" transform="matrix(1.9228 0 0 -1.9228 217.0455 519.1008)"/><use xlink:href="#A" width="1.9" height="1.9" x="-.9" y="-.9" transform="matrix(1.9228 0 0 -1.9228 183.0604 473.5205)"/><use xlink:href="#A" width="1.9" height="1.9" x="-.9" y="-.9" transform="matrix(1.9228 0 0 -1.9228 214.4845 482.3297)"/><use xlink:href="#A" width="1.9" height="1.9" x="-.9" y="-.9" transform="matrix(1.9228 0 0 -1.9228 258.6268 498.6864)"/><use xlink:href="#A" width="1.9" height="1.9" x="-.9" y="-.9" transform="matrix(1.9228 0 0 -1.9228 275.1569 523.4966)"/><use xlink:href="#A" width="1.9" height="1.9" x="-.9" y="-.9" transform="matrix(1.9228 0 0 -1.9228 217.9593 556.972)"/><use xlink:href="#A" width="1.9" height="1.9" x="-.9" y="-.9" transform="matrix(1.9228 0 0 -1.9228 53.7113 613.8364)"/><use xlink:href="#A" width="1.9" height="1.9" x="-.9" y="-.9" transform="matrix(1.9228 0 0 -1.9228 39.119 679.5672)"/><use xlink:href="#A" width="1.9" height="1.9" x="-.9" y="-.9" transform="matrix(1.9228 0 0 -1.9228 103.4709 673.8306)"/><use xlink:href="#A" width="1.9" height="1.9" x="-.9" y="-.9" transform="matrix(1.9228 0 0 -1.9228 171.2122 611.4515)"/><use xlink:href="#A" width="1.9" height="1.9" x="-.9" y="-.9" transform="matrix(1.9228 0 0 -1.9228 174.4731 628.3086)"/><use xlink:href="#A" width="1.9" height="1.9" x="-.9" y="-.9" transform="matrix(1.9228 0 0 -1.9228 105.9383 700.4264)"/><use xlink:href="#A" width="1.9" height="1.9" x="-.9" y="-.9" transform="matrix(1.9228 0 0 -1.9228 71.4936 819.7831)"/><use xlink:href="#A" width="1.9" height="1.9" x="-.9" y="-.9" transform="matrix(1.9228 0 0 -1.9228 19.4747 871.0256)"/><use xlink:href="#A" width="1.9" height="1.9" x="-.9" y="-.9" transform="matrix(1.9228 0 0 -1.9228 101.2004 882.3499)"/><use xlink:href="#A" width="1.9" height="1.9" x="-.9" y="-.9" transform="matrix(1.9228 0 0 -1.9228 202.7532 892.0779)"/><use xlink:href="#A" width="1.9" height="1.9" x="-.9" y="-.9" transform="matrix(1.9228 0 0 -1.9228 198.9775 760.2212)"/><use xlink:href="#A" width="1.9" height="1.9" x="-.9" y="-.9" transform="matrix(1.9228 0 0 -1.9228 242.3391 828.4832)"/><use xlink:href="#A" width="1.9" height="1.9" x="-.9" y="-.9" transform="matrix(1.9228 0 0 -1.9228 233.5763 873.7599)"/><use xlink:href="#A" width="1.9" height="1.9" x="-.9" y="-.9" transform="matrix(1.9228 0 0 -1.9228 244.3852 950.0093)"/><use xlink:href="#A" width="1.9" height="1.9" x="-.9" y="-.9" transform="matrix(1.9228 0 0 -1.9228 185.727 996.816)"/><use xlink:href="#A" width="1.9" height="1.9" x="-.9" y="-.9" transform="matrix(1.9228 0 0 -1.9228 105.0953 1031.4689)"/><use xlink:href="#A" width="1.9" height="1.9" x="-.9" y="-.9" transform="matrix(1.9228 0 0 -1.9228 159.9598 828.8814)"/><use xlink:href="#A" width="1.9" height="1.9" x="-.9" y="-.9" transform="matrix(1.9228 0 0 -1.9228 290.3943 287.9192)"/><use xlink:href="#A" width="1.9" height="1.9" x="-.9" y="-.9" transform="matrix(1.9228 0 0 -1.9228 299.5582 319.2574)"/><use xlink:href="#A" width="1.9" height="1.9" x="-.9" y="-.9" transform="matrix(1.9228 0 0 -1.9228 302.5091 334.3157)"/><use xlink:href="#A" width="1.9" height="1.9" x="-.9" y="-.9" transform="matrix(1.9228 0 0 -1.9228 151.9014 307.4512)"/><use xlink:href="#A" width="1.9" height="1.9" x="-.9" y="-.9" transform="matrix(1.9228 0 0 -1.9228 433.3723 79.9469)"/><use xlink:href="#A" width="1.9" height="1.9" x="-.9" y="-.9" transform="matrix(1.9228 0 0 -1.9228 487.1146 75.7977)"/><use xlink:href="#A" width="1.9" height="1.9" x="-.9" y="-.9" transform="matrix(1.9228 0 0 -1.9228 677.848 58.7893)"/><use xlink:href="#A" width="1.9" height="1.9" x="-.9" y="-.9" transform="matrix(1.9228 0 0 -1.9228 1185.7554 86.7141)"/><use xlink:href="#A" width="1.9" height="1.9" x="-.9" y="-.9" transform="matrix(1.9228 0 0 -1.9228 1325.7903 87.8128)"/><use xlink:href="#A" width="1.9" height="1.9" x="-.9" y="-.9" transform="matrix(1.9228 0 0 -1.9228 1420.7288 80.1087)"/><use xlink:href="#A" width="1.9" height="1.9" x="-.9" y="-.9" transform="matrix(1.9228 0 0 -1.9228 1372.0123 121.5993)"/><use xlink:href="#A" width="1.9" height="1.9" x="-.9" y="-.9" transform="matrix(1.9228 0 0 -1.9228 1366.6188 172.3246)"/><use xlink:href="#A" width="1.9" height="1.9" x="-.9" y="-.9" transform="matrix(1.9228 0 0 -1.9228 1375.1788 191.9143)"/><use xlink:href="#A" width="1.9" height="1.9" x="-.9" y="-.9" transform="matrix(1.9228 0 0 -1.9228 1446.5686 273.1638)"/><use xlink:href="#A" width="1.9" height="1.9" x="-.9" y="-.9" transform="matrix(1.9228 0 0 -1.9228 1449.2216 300.1914)"/><use xlink:href="#A" width="1.9" height="1.9" x="-.9" y="-.9" transform="matrix(1.9228 0 0 -1.9228 1327.7451 239.7147)"/><use xlink:href="#A" width="1.9" height="1.9" x="-.9" y="-.9" transform="matrix(1.9228 0 0 -1.9228 1264.4496 198.4959)"/><use xlink:href="#A" width="1.9" height="1.9" x="-.9" y="-.9" transform="matrix(1.9228 0 0 -1.9228 1294.5908 185.3259)"/><use xlink:href="#A" width="1.9" height="1.9" x="-.9" y="-.9" transform="matrix(1.9228 0 0 -1.9228 1448.8278 149.8125)"/><use xlink:href="#A" width="1.9" height="1.9" x="-.9" y="-.9" transform="matrix(1.9228 0 0 -1.9228 1475.8215 141.6052)"/><use xlink:href="#A" width="1.9" height="1.9" x="-.9" y="-.9" transform="matrix(1.9228 0 0 -1.9228 1475.187 128.8134)"/><use xlink:href="#A" width="1.9" height="1.9" x="-.9" y="-.9" transform="matrix(1.9228 0 0 -1.9228 1489.7515 254.5784)"/><use xlink:href="#A" width="1.9" height="1.9" x="-.9" y="-.9" transform="matrix(1.9228 0 0 -1.9228 1507.1022 362.9081)"/><use xlink:href="#A" width="1.9" height="1.9" x="-.9" y="-.9" transform="matrix(1.9228 0 0 -1.9228 1493.2313 379.729)"/><use xlink:href="#A" width="1.9" height="1.9" x="-.9" y="-.9" transform="matrix(1.9228 0 0 -1.9228 1448.8983 315.7413)"/><use xlink:href="#A" width="1.9" height="1.9" x="-.9" y="-.9" transform="matrix(1.9228 0 0 -1.9228 1460.4189 397.0302)"/><use xlink:href="#A" width="1.9" height="1.9" x="-.9" y="-.9" transform="matrix(1.9228 0 0 -1.9228 1518.7205 500.5881)"/><use xlink:href="#A" width="1.9" height="1.9" x="-.9" y="-.9" transform="matrix(1.9228 0 0 -1.9228 930.5883 79.7285)"/><use xlink:href="#A" width="1.9" height="1.9" x="-.9" y="-.9" transform="matrix(1.9228 0 0 -1.9228 1078.2446 89.2109)"/><use xlink:href="#A" width="1.9" height="1.9" x="-.9" y="-.9" transform="matrix(1.9228 0 0 -1.9228 969.2823 118.9666)"/><use xlink:href="#A" width="1.9" height="1.9" x="-.9" y="-.9" transform="matrix(1.9228 0 0 -1.9228 1116.7069 131.0954)"/><use xlink:href="#A" width="1.9" height="1.9" x="-.9" y="-.9" transform="matrix(1.9228 0 0 -1.9228 907.0047 184.178)"/><use xlink:href="#A" width="1.9" height="1.9" x="-.9" y="-.9" transform="matrix(1.9228 0 0 -1.9228 1052.2479 208.4829)"/><use xlink:href="#A" width="1.9" height="1.9" x="-.9" y="-.9" transform="matrix(1.9228 0 0 -1.9228 338.1911 549.6441)"/><use xlink:href="#A" width="1.9" height="1.9" x="-.9" y="-.9" transform="matrix(1.9228 0 0 -1.9228 1347.052 283.6815)"/><use xlink:href="#A" width="1.9" height="1.9" x="-.9" y="-.9" transform="matrix(1.9228 0 0 -1.9228 1437.5775 369.4077)"/><use xlink:href="#A" width="1.9" height="1.9" x="-.9" y="-.9" transform="matrix(1.9228 0 0 -1.9228 1445.5679 465.76)"/><use xlink:href="#A" width="1.9" height="1.9" x="-.9" y="-.9" transform="matrix(1.9228 0 0 -1.9228 1522.964 563.0806)"/><use xlink:href="#A" width="1.9" height="1.9" x="-.9" y="-.9" transform="matrix(1.9228 0 0 -1.9228 126.6137 943.9872)"/><use xlink:href="#A" width="1.9" height="1.9" x="-.9" y="-.9" transform="matrix(1.9228 0 0 -1.9228 -73.4704 1074.7286)"/><use xlink:href="#A" width="1.9" height="1.9" x="-.9" y="-.9" transform="matrix(1.9228 0 0 -1.9228 58.1227 971.5022)"/><use xlink:href="#A" width="1.9" height="1.9" x="-.9" y="-.9" transform="matrix(1.9228 0 0 -1.9228 29.0094 1050.0018)"/><use xlink:href="#A" width="1.9" height="1.9" x="-.9" y="-.9" transform="matrix(1.9228 0 0 -1.9228 45.7262 1006.0977)"/><use xlink:href="#A" width="1.9" height="1.9" x="-.9" y="-.9" transform="matrix(1.9228 0 0 -1.9228 98.0074 1063.1301)"/></g><g><animateTransform attributeType="xml" attributeName="transform" type="translate" dur="10s" values="0,0; -100,-100; 0,0; -100,-150;0,0" repeatCount="indefinite"/><animateTransform attributeType="xml" attributeName="transform" type="scale" dur="10s" values="1;1.2;1;1.2;1" repeatCount="indefinite" additive="sum"/><radialGradient id="B" cx="2521.107" cy="586.629" r="18.587" gradientTransform="matrix(-1 0 0 1 3078.5681 0)" gradientUnits="userSpaceOnUse"><stop offset="0" stop-color="#eddae8"/><stop offset=".056" stop-color="#cbd4e9"/><stop offset=".145" stop-color="#9ccde9"/><stop offset=".24" stop-color="#72c6ea"/><stop offset=".339" stop-color="#4fc0eb"/><stop offset=".442" stop-color="#32bbeb"/><stop offset=".552" stop-color="#1cb8ec"/><stop offset=".672" stop-color="#0cb5ec"/><stop offset=".809" stop-color="#03b3ec"/><stop offset="1" stop-color="#00b3ec"/></radialGradient><circle cx="557.5" cy="586.6" r="18.6" fill="url(#B)"/><radialGradient id="C" cx="2005.794" cy="632.481" r="18.587" gradientTransform="matrix(-1 0 0 1 3078.5681 0)" gradientUnits="userSpaceOnUse"><stop offset="0" stop-color="#eddae8"/><stop offset=".056" stop-color="#cbd4e9"/><stop offset=".145" stop-color="#9ccde9"/><stop offset=".24" stop-color="#72c6ea"/><stop offset=".339" stop-color="#4fc0eb"/><stop offset=".442" stop-color="#32bbeb"/><stop offset=".552" stop-color="#1cb8ec"/><stop offset=".672" stop-color="#0cb5ec"/><stop offset=".809" stop-color="#03b3ec"/><stop offset="1" stop-color="#00b3ec"/></radialGradient><circle cx="1072.8" cy="632.5" r="18.6" fill="url(#C)"/><radialGradient id="D" cx="2608.275" cy="422.548" r="18.587" gradientTransform="matrix(-1 0 0 1 3078.5681 0)" gradientUnits="userSpaceOnUse"><stop offset="0" stop-color="#eddae8"/><stop offset=".056" stop-color="#cbd4e9"/><stop offset=".145" stop-color="#9ccde9"/><stop offset=".24" stop-color="#72c6ea"/><stop offset=".339" stop-color="#4fc0eb"/><stop offset=".442" stop-color="#32bbeb"/><stop offset=".552" stop-color="#1cb8ec"/><stop offset=".672" stop-color="#0cb5ec"/><stop offset=".809" stop-color="#03b3ec"/><stop offset="1" stop-color="#00b3ec"/></radialGradient><circle cx="470.3" cy="422.5" r="18.6" fill="url(#D)"/><radialGradient id="E" cx="2155.774" cy="451.415" r="18.587" gradientTransform="matrix(-1 0 0 1 3078.5681 0)" gradientUnits="userSpaceOnUse"><stop offset="0" stop-color="#eddae8"/><stop offset=".056" stop-color="#cbd4e9"/><stop offset=".145" stop-color="#9ccde9"/><stop offset=".24" stop-color="#72c6ea"/><stop offset=".339" stop-color="#4fc0eb"/><stop offset=".442" stop-color="#32bbeb"/><stop offset=".552" stop-color="#1cb8ec"/><stop offset=".672" stop-color="#0cb5ec"/><stop offset=".809" stop-color="#03b3ec"/><stop offset="1" stop-color="#00b3ec"/></radialGradient><circle cx="922.8" cy="451.4" r="18.6" fill="url(#E)"/><radialGradient id="F" cx="2414.07" cy="309.101" r="18.587" gradientTransform="matrix(-1 0 0 1 3078.5681 0)" gradientUnits="userSpaceOnUse"><stop offset="0" stop-color="#eddae8"/><stop offset=".056" stop-color="#cbd4e9"/><stop offset=".145" stop-color="#9ccde9"/><stop offset=".24" stop-color="#72c6ea"/><stop offset=".339" stop-color="#4fc0eb"/><stop offset=".442" stop-color="#32bbeb"/><stop offset=".552" stop-color="#1cb8ec"/><stop offset=".672" stop-color="#0cb5ec"/><stop offset=".809" stop-color="#03b3ec"/><stop offset="1" stop-color="#00b3ec"/></radialGradient><circle cx="664.5" cy="309.1" r="18.6" fill="url(#F)"/><radialGradient id="G" cx="2744.155" cy="634.058" r="18.587" gradientTransform="matrix(-1 0 0 1 3078.5681 0)" gradientUnits="userSpaceOnUse"><stop offset="0" stop-color="#eddae8"/><stop offset=".056" stop-color="#cbd4e9"/><stop offset=".145" stop-color="#9ccde9"/><stop offset=".24" stop-color="#72c6ea"/><stop offset=".339" stop-color="#4fc0eb"/><stop offset=".442" stop-color="#32bbeb"/><stop offset=".552" stop-color="#1cb8ec"/><stop offset=".672" stop-color="#0cb5ec"/><stop offset=".809" stop-color="#03b3ec"/><stop offset="1" stop-color="#00b3ec"/></radialGradient><circle cx="334.4" cy="634.1" r="18.6" fill="url(#G)"/></g></g></svg>