<svg width="119" height="18" viewBox="0 0 119 18" fill="none" xmlns="http://www.w3.org/2000/svg">
<path d="M11.4693 13.8909L9.12394 4.43326H9.0858L6.76907 13.8814H3.68008L0 0H3.05085L5.24364 9.45763H5.28178L7.70339 0.00953594H10.5636L12.928 9.58157H12.9661L15.2447 0.0190682H18.2383L14.5011 13.8909H11.4693Z" fill="white"/>
<path d="M21.2988 11.4788C21.7087 11.8793 22.3094 12.0795 23.0912 12.0795C23.6441 12.0795 24.1303 11.9365 24.5308 11.66C24.9312 11.3835 25.1791 11.088 25.2744 10.7733H27.7056C27.3147 11.9746 26.7236 12.8422 25.9132 13.357C25.1123 13.8719 24.1399 14.1293 22.9958 14.1293C22.2045 14.1293 21.4895 14.0053 20.8602 13.7479C20.2214 13.4905 19.6876 13.1377 19.249 12.6706C18.8104 12.2034 18.4672 11.6505 18.2289 11.0021C17.9905 10.3538 17.8666 9.6388 17.8666 8.86655C17.8666 8.11338 17.9905 7.4174 18.2384 6.7691C18.4863 6.12079 18.839 5.55829 19.2871 5.09113C19.7448 4.61443 20.2787 4.24261 20.9079 3.97566C21.5371 3.69918 22.2331 3.5657 22.9958 3.5657C23.8539 3.5657 24.5975 3.72778 25.2363 4.06147C25.8751 4.39515 26.3899 4.83371 26.7998 5.39621C27.2098 5.95871 27.5054 6.58795 27.6865 7.30299C27.8676 8.01804 27.9344 8.76168 27.8772 9.54346H20.6219C20.6505 10.4301 20.8793 11.0784 21.2988 11.4788ZM24.4164 6.19706C24.0827 5.83477 23.5869 5.65363 22.91 5.65363C22.4714 5.65363 22.0996 5.7299 21.8136 5.87291C21.5181 6.02545 21.2892 6.20659 21.1176 6.42587C20.946 6.64515 20.8221 6.8835 20.7458 7.12185C20.6695 7.36973 20.6314 7.58901 20.6219 7.77969H25.1123C24.9789 7.09325 24.7501 6.55935 24.4164 6.19706Z" fill="white"/>
<path d="M28.9544 6.94068C28.9926 6.29238 29.1546 5.75847 29.4406 5.32945C29.7267 4.90042 30.089 4.55721 30.5275 4.29979C30.9661 4.04237 31.4618 3.85169 32.0148 3.74682C32.5678 3.63242 33.1207 3.58475 33.6737 3.58475C34.179 3.58475 34.6938 3.62288 35.2087 3.68962C35.7235 3.76589 36.2002 3.89937 36.6292 4.10911C37.0582 4.31886 37.411 4.60487 37.6779 4.9767C37.9544 5.34852 38.0879 5.83475 38.0879 6.44492V11.679C38.0879 12.1367 38.1165 12.5657 38.1642 12.9852C38.2118 13.4047 38.3072 13.7097 38.4406 13.9195H35.6377C35.59 13.7669 35.5423 13.6049 35.5137 13.4428C35.4851 13.2807 35.4565 13.1186 35.447 12.947C35.0084 13.4047 34.4841 13.7193 33.893 13.9004C33.2923 14.0816 32.6917 14.1674 32.0625 14.1674C31.5858 14.1674 31.1377 14.1102 30.7182 13.9958C30.2987 13.8814 29.9364 13.7002 29.6313 13.4523C29.3167 13.2044 29.0784 12.8994 28.9068 12.518C28.7351 12.1462 28.6398 11.6981 28.6493 11.1737C28.6493 10.6017 28.7542 10.1345 28.9544 9.76271C29.1546 9.39089 29.412 9.09534 29.7362 8.87606C30.0508 8.65678 30.4131 8.4947 30.8231 8.3803C31.233 8.26589 31.643 8.18009 32.0625 8.12288C32.482 8.05614 32.8824 8.00847 33.2923 7.97034C33.6928 7.9322 34.0551 7.875 34.3601 7.79873C34.6748 7.72246 34.9131 7.60805 35.1038 7.45551C35.2849 7.30297 35.3707 7.09322 35.3612 6.80721C35.3612 6.51166 35.3135 6.27331 35.2182 6.1017C35.1229 5.93009 34.9894 5.78708 34.8273 5.69174C34.6652 5.5964 34.4745 5.52966 34.2648 5.50106C34.0551 5.47246 33.8167 5.45339 33.5784 5.45339C33.0349 5.45339 32.6059 5.5678 32.2913 5.80614C31.9767 6.03496 31.7955 6.42585 31.7479 6.96928L28.9544 6.94068ZM35.3231 8.98093C35.2087 9.08581 35.0561 9.16208 34.8845 9.21928C34.7129 9.27648 34.5222 9.32416 34.322 9.36229C34.1218 9.40043 33.912 9.42903 33.6928 9.45763C33.4735 9.48623 33.2542 9.51483 33.0349 9.55297C32.8252 9.5911 32.625 9.64831 32.4248 9.70551C32.2245 9.77225 32.0529 9.85805 31.9004 9.97246C31.7479 10.0869 31.6334 10.2203 31.5381 10.392C31.4428 10.5636 31.4046 10.7733 31.4046 11.0307C31.4046 11.2786 31.4523 11.4883 31.5381 11.6504C31.6239 11.822 31.7478 11.9555 31.9099 12.0508C32.0625 12.1462 32.2436 12.2129 32.4534 12.2511C32.6631 12.2892 32.8729 12.3083 33.0921 12.3083C33.6356 12.3083 34.0551 12.2225 34.3601 12.0413C34.6557 11.8602 34.875 11.6409 35.018 11.393C35.161 11.1356 35.2468 10.8877 35.2849 10.6208C35.3135 10.3634 35.3326 10.1536 35.3326 10.0011L35.3231 8.98093Z" fill="white"/>
<path d="M42.0826 13.91L38.6504 3.85168H41.5487L43.6652 10.7161H43.7034L45.8294 3.85168H48.5752L45.162 13.9004L42.0826 13.91Z" fill="white"/>
<path d="M51.9692 11.4979C52.3791 11.8983 52.9798 12.0985 53.7616 12.0985C54.3145 12.0985 54.8008 11.9555 55.2012 11.679C55.6016 11.4025 55.8495 11.107 55.9448 10.7924H58.376C57.9851 11.9936 57.394 12.8612 56.5836 13.3761C55.7827 13.8909 54.8103 14.1483 53.6662 14.1483C52.8749 14.1483 52.1599 14.0244 51.5306 13.767C50.8919 13.5095 50.358 13.1568 49.9194 12.6896C49.4808 12.2225 49.1376 11.6695 48.8993 11.0212C48.6609 10.3729 48.537 9.65784 48.537 8.8856C48.537 8.13242 48.6609 7.43644 48.9088 6.78814C49.1567 6.13983 49.5094 5.57733 49.9575 5.11017C50.4152 4.63347 50.9491 4.26165 51.5783 3.99471C52.2075 3.71822 52.9035 3.58475 53.6662 3.58475C54.5243 3.58475 55.2679 3.74682 55.9067 4.08051C56.5455 4.4142 57.0603 4.85275 57.4703 5.41525C57.8802 5.97775 58.1758 6.60699 58.3569 7.32203C58.538 8.03708 58.6048 8.78072 58.5476 9.5625H51.2923C51.3209 10.4492 51.5497 11.0975 51.9692 11.4979ZM55.0868 6.2161C54.7531 5.85381 54.2573 5.67267 53.5804 5.67267C53.1419 5.67267 52.77 5.74894 52.484 5.89195C52.1885 6.04449 51.9597 6.22564 51.788 6.44492C51.6164 6.6642 51.4925 6.90254 51.4162 7.14089C51.3495 7.38877 51.3018 7.60805 51.2923 7.79873H55.7827C55.6493 7.10275 55.4205 6.57839 55.0868 6.2161Z" fill="white"/>
<path d="M74.5988 14.1769L74.4272 11.6504H74.3891C74.1507 12.1462 73.8647 12.5657 73.5215 12.928C73.1782 13.2807 72.7969 13.5763 72.3869 13.8051C71.9674 14.0339 71.5289 14.196 71.0522 14.3008C70.5755 14.4057 70.0893 14.4534 69.584 14.4534C68.4971 14.4534 67.5342 14.2532 66.7143 13.8623C65.8943 13.4619 65.2079 12.9375 64.6645 12.2797C64.121 11.6218 63.7111 10.8496 63.4441 9.98199C63.1677 9.1144 63.0342 8.19915 63.0342 7.23623C63.0342 6.2733 63.1677 5.36758 63.4441 4.49047C63.7206 3.62288 64.121 2.85063 64.674 2.18326C65.2174 1.51588 65.9039 0.981987 66.7238 0.591097C67.5437 0.200207 68.5066 0 69.5935 0C70.3181 0 71.0045 0.0953367 71.6528 0.295549C72.3011 0.486227 72.8827 0.781776 73.388 1.17267C73.8933 1.56356 74.3223 2.04025 74.6751 2.61229C75.0278 3.18432 75.2662 3.85169 75.3901 4.6144H74.0649C74.0268 4.21398 73.8933 3.80402 73.6645 3.39407C73.4357 2.98411 73.1306 2.61229 72.7492 2.2786C72.3679 1.94492 71.9102 1.66843 71.3763 1.44915C70.8424 1.2394 70.2513 1.12499 69.584 1.12499C68.6592 1.12499 67.8679 1.29661 67.21 1.64936C66.5522 2.00212 66.0088 2.45974 65.5893 3.04131C65.1698 3.61334 64.8552 4.27119 64.6549 4.99576C64.4547 5.72034 64.3499 6.46398 64.3499 7.23623C64.3499 7.9894 64.4452 8.73305 64.6454 9.46716C64.8456 10.2013 65.1602 10.8591 65.5797 11.4311C65.9992 12.0127 66.5427 12.4703 67.2005 12.8231C67.8583 13.1758 68.6496 13.3475 69.5744 13.3475C70.3371 13.3475 71.0236 13.2235 71.6242 12.9661C72.2249 12.7182 72.7397 12.3655 73.1496 11.9078C73.5691 11.4502 73.8742 10.9163 74.084 10.2966C74.2937 9.6769 74.3891 8.99046 74.3795 8.25635H69.6507V7.13135H75.5427V14.1864L74.5988 14.1769Z" fill="white"/>
<path d="M78.6984 4.13769L78.6888 14.1769H77.4685L77.478 4.13769H78.6984ZM78.6984 0.295532V2.25951H77.478V0.295532H78.6984Z" fill="white"/>
<path d="M84.5713 4.14724V5.17689H82.531V11.946C82.531 12.3464 82.5882 12.661 82.6931 12.8898C82.8075 13.1186 83.0745 13.2426 83.5226 13.2712C83.8753 13.2712 84.2185 13.2521 84.5713 13.214V14.2436C84.3901 14.2436 84.209 14.2532 84.0279 14.2627C83.8467 14.2722 83.6656 14.2818 83.4844 14.2818C82.6645 14.2818 82.102 14.1197 81.7779 13.8051C81.4537 13.4905 81.3012 12.8994 81.3107 12.0413V5.17689H79.5565V4.14724H81.3107V1.13452H82.531V4.14724H84.5713Z" fill="white"/>
<path d="M85.7249 4.49999C86.0014 3.6324 86.4113 2.86016 86.9548 2.19279C87.4982 1.52541 88.1846 0.991516 89.0046 0.600626C89.8245 0.209736 90.7874 0.00952148 91.8743 0.00952148C92.9611 0.00952148 93.9145 0.209736 94.7344 0.600626C95.5543 1.00105 96.2313 1.52541 96.7747 2.19279C97.3181 2.86016 97.7281 3.6324 97.995 4.49999C98.2715 5.36757 98.405 6.28283 98.405 7.24575C98.405 8.20868 98.2715 9.12393 97.995 9.99152C97.7185 10.8591 97.3086 11.6218 96.7652 12.2892C96.2217 12.947 95.5353 13.4809 94.7249 13.8718C93.905 14.2627 92.9516 14.4629 91.8647 14.4629C90.7779 14.4629 89.8149 14.2627 88.995 13.8718C88.1751 13.4714 87.4887 12.947 86.9452 12.2892C86.4018 11.6313 85.9918 10.8591 85.7249 9.99152C85.458 9.12393 85.3149 8.20868 85.3149 7.24575C85.3149 6.28283 85.458 5.36757 85.7249 4.49999ZM86.9357 9.46715C87.1359 10.2013 87.4505 10.8591 87.87 11.4311C88.2895 12.0127 88.8329 12.4703 89.4908 12.8231C90.1486 13.1758 90.9399 13.3475 91.8647 13.3475C92.7895 13.3475 93.5713 13.1758 94.2291 12.8231C94.887 12.4703 95.4209 12.0127 95.8404 11.4311C96.2599 10.8591 96.5745 10.2013 96.7747 9.46715C96.9749 8.73304 97.0798 7.9894 97.0798 7.23622C97.0798 6.47351 96.9844 5.72986 96.7747 4.99575C96.5745 4.27118 96.2599 3.61334 95.8404 3.0413C95.4209 2.45973 94.8774 2.00211 94.2291 1.64935C93.5808 1.2966 92.7895 1.12499 91.8647 1.12499C90.9399 1.12499 90.1486 1.2966 89.4908 1.64935C88.8329 2.00211 88.2895 2.45973 87.87 3.0413C87.4505 3.61334 87.1359 4.27118 86.9357 4.99575C86.7355 5.72033 86.6306 6.46397 86.6306 7.23622C86.6402 7.9894 86.7355 8.73304 86.9357 9.46715Z" fill="white"/>
<path d="M100.989 4.15677V6.06355H101.027C101.313 5.36758 101.78 4.82415 102.419 4.44279C103.058 4.06143 103.792 3.87076 104.612 3.87076C105.374 3.87076 106.042 4.01376 106.604 4.29978C107.167 4.5858 107.634 4.96715 108.015 5.45338C108.387 5.93961 108.673 6.50212 108.854 7.15042C109.035 7.78919 109.121 8.4661 109.121 9.18114C109.121 9.89618 109.026 10.5731 108.845 11.2119C108.664 11.8506 108.387 12.4131 108.006 12.8994C107.634 13.3856 107.157 13.7669 106.595 14.0434C106.032 14.3199 105.365 14.4629 104.602 14.4629C104.24 14.4629 103.877 14.4153 103.515 14.3294C103.153 14.2341 102.819 14.1006 102.505 13.9195C102.19 13.7383 101.914 13.5095 101.675 13.2426C101.437 12.9661 101.246 12.6515 101.122 12.2892H101.084V17.8951H99.8542L99.8637 4.16631L100.989 4.15677ZM107.701 7.62712C107.577 7.11229 107.386 6.65466 107.119 6.25423C106.852 5.85381 106.509 5.52012 106.099 5.27224C105.679 5.01483 105.184 4.89088 104.602 4.89088C103.925 4.89088 103.363 5.00529 102.915 5.24364C102.457 5.47246 102.095 5.78707 101.828 6.17796C101.551 6.56885 101.361 7.01694 101.256 7.54131C101.141 8.05614 101.094 8.59957 101.094 9.1716C101.094 9.68643 101.151 10.2013 101.275 10.7161C101.399 11.2309 101.599 11.6886 101.875 12.089C102.152 12.4894 102.514 12.8231 102.962 13.071C103.41 13.3284 103.954 13.4523 104.602 13.4523C105.184 13.4523 105.689 13.3284 106.099 13.071C106.518 12.8231 106.852 12.4894 107.119 12.089C107.386 11.6886 107.577 11.2309 107.701 10.7161C107.825 10.2013 107.882 9.68643 107.882 9.1716C107.891 8.65677 107.825 8.14195 107.701 7.62712Z" fill="white"/>
<path d="M116.233 6.12076C116.09 5.84428 115.9 5.61546 115.661 5.43432C115.423 5.25317 115.147 5.1197 114.832 5.0339C114.517 4.94809 114.193 4.90995 113.84 4.90995C113.564 4.90995 113.297 4.93856 113.011 4.99576C112.734 5.05296 112.477 5.1483 112.239 5.29131C112.01 5.42478 111.819 5.60592 111.676 5.8252C111.533 6.04448 111.466 6.32097 111.466 6.64512C111.466 6.9216 111.533 7.15042 111.667 7.33156C111.8 7.52224 111.972 7.67478 112.181 7.80826C112.391 7.94173 112.62 8.04661 112.858 8.13241C113.106 8.21822 113.335 8.28495 113.535 8.33262L115.166 8.70444C115.518 8.75211 115.862 8.84745 116.205 8.99046C116.548 9.12393 116.853 9.30508 117.12 9.52436C117.387 9.74364 117.606 10.0201 117.768 10.3443C117.94 10.6684 118.016 11.0498 118.016 11.4883C118.016 12.0318 117.892 12.4989 117.644 12.8803C117.397 13.2616 117.082 13.5763 116.701 13.8146C116.319 14.053 115.89 14.2246 115.404 14.3294C114.927 14.4343 114.451 14.482 113.983 14.482C112.801 14.482 111.848 14.2055 111.114 13.643C110.38 13.09 109.96 12.1939 109.865 10.9544H111.095C111.142 11.7839 111.447 12.4131 112 12.8326C112.553 13.2521 113.23 13.4619 114.05 13.4619C114.346 13.4619 114.66 13.4333 114.975 13.3665C115.29 13.2998 115.585 13.1949 115.862 13.0328C116.138 12.8803 116.357 12.6801 116.529 12.4417C116.701 12.2034 116.796 11.9078 116.796 11.5551C116.796 11.2595 116.739 11.0116 116.615 10.8019C116.491 10.6017 116.329 10.4301 116.119 10.2966C115.909 10.1631 115.671 10.0487 115.413 9.95338C115.147 9.86758 114.88 9.78177 114.603 9.71504L113.03 9.36229C112.63 9.25741 112.258 9.13347 111.924 8.99999C111.59 8.86652 111.295 8.69491 111.037 8.4947C110.79 8.29449 110.589 8.04661 110.446 7.75106C110.313 7.47457 110.246 7.11228 110.246 6.69279C110.246 6.18749 110.361 5.74893 110.589 5.38664C110.818 5.02436 111.114 4.72881 111.476 4.50953C111.838 4.29025 112.248 4.12817 112.696 4.0233C113.144 3.91842 113.583 3.87076 114.031 3.87076C114.536 3.87076 115.004 3.93749 115.442 4.06143C115.881 4.19491 116.262 4.39512 116.586 4.66207C116.92 4.93856 117.177 5.27224 117.377 5.67266C117.568 6.07309 117.683 6.54978 117.711 7.09321H116.481C116.453 6.72139 116.376 6.39724 116.233 6.12076Z" fill="white"/>
</svg>
