<svg width="60" height="36" viewBox="0 0 60 36" fill="none" xmlns="http://www.w3.org/2000/svg">
<path d="M12.4351 13.8909L10.0898 4.43326H10.0516L7.73489 13.8814H4.6459L0.96582 0H4.01667L6.20946 9.45763H6.2476L8.66921 0.00953594H11.5294L13.8938 9.58157H13.9319L16.2105 0.0190682H19.2042L15.4669 13.8909H12.4351Z" fill="white"/>
<path d="M22.2645 11.4788C22.6744 11.8792 23.2751 12.0794 24.0569 12.0794C24.6098 12.0794 25.096 11.9364 25.4965 11.66C25.8969 11.3835 26.1448 11.0879 26.2401 10.7733H28.6713C28.2804 11.9746 27.6893 12.8422 26.8789 13.357C26.078 13.8718 25.1056 14.1292 23.9615 14.1292C23.1702 14.1292 22.4552 14.0053 21.8259 13.7479C21.1871 13.4905 20.6532 13.1377 20.2147 12.6705C19.7761 12.2034 19.4329 11.6504 19.1946 11.0021C18.9562 10.3538 18.8323 9.63877 18.8323 8.86652C18.8323 8.11335 18.9562 7.41737 19.2041 6.76906C19.452 6.12076 19.8047 5.55826 20.2528 5.0911C20.7105 4.6144 21.2444 4.24258 21.8736 3.97563C22.5028 3.69915 23.1988 3.56567 23.9615 3.56567C24.8196 3.56567 25.5632 3.72775 26.202 4.06144C26.8407 4.39512 27.3556 4.83368 27.7655 5.39618C28.1755 5.95868 28.471 6.58792 28.6522 7.30296C28.8333 8.01801 28.9001 8.76165 28.8429 9.54343H21.5876C21.6162 10.4301 21.845 11.0784 22.2645 11.4788ZM25.3821 6.19703C25.0484 5.83474 24.5526 5.6536 23.8757 5.6536C23.4371 5.6536 23.0653 5.72987 22.7793 5.87288C22.4838 6.02542 22.2549 6.20656 22.0833 6.42584C21.9117 6.64512 21.7878 6.88347 21.7115 7.12182C21.6352 7.3697 21.5971 7.58898 21.5876 7.77966H26.078C25.9446 7.09322 25.7157 6.55932 25.3821 6.19703Z" fill="white"/>
<path d="M29.9202 6.94071C29.9584 6.29241 30.1204 5.7585 30.4065 5.32948C30.6925 4.90045 31.0548 4.55724 31.4933 4.29982C31.9319 4.0424 32.4277 3.85173 32.9806 3.74685C33.5336 3.63245 34.0866 3.58478 34.6395 3.58478C35.1448 3.58478 35.6596 3.62291 36.1745 3.68965C36.6893 3.76592 37.166 3.8994 37.595 4.10914C38.0241 4.31889 38.3768 4.6049 38.6438 4.97673C38.9202 5.34855 39.0537 5.83478 39.0537 6.44495V11.6791C39.0537 12.1367 39.0823 12.5657 39.13 12.9852C39.1777 13.4047 39.273 13.7098 39.4065 13.9195H36.6035C36.5558 13.767 36.5082 13.6049 36.4796 13.4428C36.451 13.2807 36.4224 13.1187 36.4128 12.9471C35.9743 13.4047 35.4499 13.7193 34.8588 13.9005C34.2582 14.0816 33.6575 14.1674 33.0283 14.1674C32.5516 14.1674 32.1035 14.1102 31.684 13.9958C31.2645 13.8814 30.9022 13.7002 30.5971 13.4524C30.2825 13.2045 30.0442 12.8994 29.8726 12.518C29.701 12.1462 29.6056 11.6981 29.6152 11.1738C29.6152 10.6017 29.72 10.1346 29.9202 9.76274C30.1205 9.39092 30.3779 9.09537 30.702 8.87609C31.0166 8.65681 31.3789 8.49473 31.7889 8.38033C32.1988 8.26592 32.6088 8.18012 33.0283 8.12291C33.4478 8.05617 33.8482 8.00851 34.2582 7.97037C34.6586 7.93223 35.0209 7.87503 35.326 7.79876C35.6406 7.72249 35.8789 7.60808 36.0696 7.45554C36.2507 7.303 36.3366 7.09325 36.327 6.80724C36.327 6.51169 36.2793 6.27334 36.184 6.10173C36.0887 5.93012 35.9552 5.78711 35.7931 5.69177C35.631 5.59643 35.4404 5.52969 35.2306 5.50109C35.0209 5.47249 34.7825 5.45342 34.5442 5.45342C34.0007 5.45342 33.5717 5.56783 33.2571 5.80617C32.9425 6.03499 32.7613 6.42588 32.7137 6.96931L29.9202 6.94071ZM36.2889 8.98096C36.1745 9.08584 36.0219 9.16211 35.8503 9.21931C35.6787 9.27652 35.488 9.32419 35.2878 9.36232C35.0876 9.40046 34.8779 9.42906 34.6586 9.45766C34.4393 9.48626 34.22 9.51486 34.0007 9.553C33.791 9.59113 33.5908 9.64834 33.3906 9.70554C33.1904 9.77228 33.0188 9.85808 32.8662 9.97249C32.7137 10.0869 32.5993 10.2204 32.5039 10.392C32.4086 10.5636 32.3705 10.7733 32.3705 11.0308C32.3705 11.2786 32.4181 11.4884 32.5039 11.6505C32.5897 11.8221 32.7137 11.9555 32.8757 12.0509C33.0283 12.1462 33.2094 12.213 33.4192 12.2511C33.6289 12.2892 33.8387 12.3083 34.058 12.3083C34.6014 12.3083 35.0209 12.2225 35.326 12.0413C35.6215 11.8602 35.8408 11.6409 35.9838 11.393C36.1268 11.1356 36.2126 10.8877 36.2507 10.6208C36.2793 10.3634 36.2984 10.1536 36.2984 10.0011L36.2889 8.98096Z" fill="white"/>
<path d="M43.0484 13.91L39.6162 3.85168H42.5145L44.631 10.7161H44.6692L46.7952 3.85168H49.541L46.1279 13.9004L43.0484 13.91Z" fill="white"/>
<path d="M52.9351 11.4979C53.3451 11.8983 53.9457 12.0985 54.7275 12.0985C55.2805 12.0985 55.7667 11.9555 56.1671 11.6791C56.5675 11.4026 56.8154 11.107 56.9108 10.7924H59.3419C58.951 11.9937 58.3599 12.8613 57.5495 13.3761C56.7487 13.8909 55.7762 14.1483 54.6322 14.1483C53.8409 14.1483 53.1258 14.0244 52.4966 13.767C51.8578 13.5096 51.3239 13.1568 50.8853 12.6897C50.4468 12.2225 50.1036 11.6695 49.8652 11.0212C49.6269 10.3729 49.5029 9.65787 49.5029 8.88563C49.5029 8.13245 49.6269 7.43647 49.8748 6.78817C50.1226 6.13986 50.4754 5.57736 50.9235 5.1102C51.3811 4.63351 51.915 4.26168 52.5442 3.99474C53.1735 3.71825 53.8695 3.58478 54.6322 3.58478C55.4902 3.58478 56.2339 3.74685 56.8726 4.08054C57.5114 4.41423 58.0262 4.85278 58.4362 5.41528C58.8462 5.97778 59.1417 6.60702 59.3228 7.32206C59.504 8.03711 59.5707 8.78075 59.5135 9.56253H52.2582C52.2868 10.4492 52.5156 11.0975 52.9351 11.4979ZM56.0527 6.21613C55.719 5.85384 55.2233 5.6727 54.5464 5.6727C54.1078 5.6727 53.736 5.74897 53.45 5.89198C53.1544 6.04452 52.9256 6.22567 52.754 6.44495C52.5824 6.66423 52.4584 6.90257 52.3822 7.14092C52.3154 7.3888 52.2678 7.60808 52.2582 7.79876H56.7487C56.6152 7.10278 56.3864 6.57842 56.0527 6.21613Z" fill="white"/>
<path d="M14.6183 32.2818L14.4467 29.7553H14.4086C14.1702 30.251 13.8842 30.6705 13.541 31.0328C13.1978 31.3856 12.8164 31.6811 12.4065 31.9099C11.987 32.1388 11.5484 32.3008 11.0717 32.4057C10.595 32.5106 10.1088 32.5582 9.6035 32.5582C8.51664 32.5582 7.55371 32.358 6.7338 31.9671C5.91388 31.5667 5.22744 31.0424 4.68401 30.3845C4.14058 29.7267 3.73062 28.9544 3.46367 28.0868C3.18719 27.2193 3.05371 26.304 3.05371 25.3411C3.05371 24.3782 3.18719 23.4724 3.46367 22.5953C3.74015 21.7277 4.14058 20.9555 4.69354 20.2881C5.23697 19.6207 5.92341 19.0868 6.74333 18.696C7.56325 18.3051 8.52617 18.1049 9.61303 18.1049C10.3376 18.1049 11.0241 18.2002 11.6724 18.4004C12.3207 18.5911 12.9022 18.8866 13.4075 19.2775C13.9128 19.6684 14.3418 20.1451 14.6946 20.7171C15.0474 21.2892 15.2857 21.9566 15.4096 22.7193H14.0844C14.0463 22.3188 13.9128 21.9089 13.684 21.4989C13.4552 21.089 13.1501 20.7171 12.7688 20.3835C12.3874 20.0498 11.9298 19.7733 11.3959 19.554C10.862 19.3443 10.2709 19.2299 9.6035 19.2299C8.67871 19.2299 7.8874 19.4015 7.22956 19.7542C6.57172 20.107 6.02829 20.5646 5.6088 21.1462C5.1893 21.7182 4.87469 22.376 4.67447 23.1006C4.47426 23.8252 4.36939 24.5688 4.36939 25.3411C4.36939 26.0943 4.46473 26.8379 4.66494 27.572C4.86515 28.3061 5.17977 28.964 5.59926 29.536C6.01875 30.1176 6.56219 30.5752 7.22003 30.928C7.87786 31.2807 8.66918 31.4523 9.59397 31.4523C10.3567 31.4523 11.0431 31.3284 11.6438 31.071C12.2444 30.8231 12.7592 30.4703 13.1692 30.0127C13.5887 29.5551 13.8938 29.0212 14.1035 28.4015C14.3132 27.7818 14.4086 27.0953 14.399 26.3612H9.67024V25.2362H15.5622V32.2913L14.6183 32.2818Z" fill="white"/>
<path d="M18.7179 22.2426L18.7084 32.2817H17.488L17.4976 22.2426H18.7179ZM18.7179 18.4004V20.3644H17.4976V18.4004H18.7179Z" fill="white"/>
<path d="M24.5908 22.2521V23.2818H22.5505V30.0508C22.5505 30.4512 22.6077 30.7659 22.7126 30.9947C22.827 31.2235 23.0939 31.3474 23.542 31.376C23.8948 31.376 24.238 31.357 24.5908 31.3188V32.3485C24.4096 32.3485 24.2285 32.358 24.0473 32.3676C23.8662 32.3771 23.685 32.3866 23.5039 32.3866C22.684 32.3866 22.1215 32.2246 21.7973 31.9099C21.4732 31.5953 21.3206 31.0042 21.3302 30.1462V23.2818H19.5759V22.2521H21.3302V19.2394H22.5505V22.2521H24.5908Z" fill="white"/>
<path d="M25.7444 22.6048C26.0209 21.7373 26.4309 20.965 26.9743 20.2976C27.5177 19.6303 28.2042 19.0964 29.0241 18.7055C29.844 18.3146 30.8069 18.1144 31.8938 18.1144C32.9807 18.1144 33.934 18.3146 34.754 18.7055C35.5739 19.1059 36.2508 19.6303 36.7942 20.2976C37.3377 20.965 37.7476 21.7373 38.0146 22.6048C38.291 23.4724 38.4245 24.3877 38.4245 25.3506C38.4245 26.3135 38.291 27.2288 38.0146 28.0964C37.7381 28.964 37.3281 29.7267 36.7847 30.394C36.2413 31.0519 35.5548 31.5858 34.7444 31.9767C33.9245 32.3676 32.9711 32.5678 31.8843 32.5678C30.7974 32.5678 29.8345 32.3676 29.0146 31.9767C28.1946 31.5762 27.5082 31.0519 26.9648 30.394C26.4213 29.7362 26.0114 28.964 25.7444 28.0964C25.4775 27.2288 25.3345 26.3135 25.3345 25.3506C25.3345 24.3877 25.4775 23.4724 25.7444 22.6048ZM26.9552 27.572C27.1554 28.3061 27.4701 28.964 27.8896 29.536C28.309 30.1176 28.8525 30.5752 29.5103 30.9279C30.1682 31.2807 30.9595 31.4523 31.8843 31.4523C32.8091 31.4523 33.5908 31.2807 34.2487 30.9279C34.9065 30.5752 35.4404 30.1176 35.8599 29.536C36.2794 28.964 36.594 28.3061 36.7942 27.572C36.9944 26.8379 37.0993 26.0943 37.0993 25.3411C37.0993 24.5784 37.004 23.8347 36.7942 23.1006C36.594 22.376 36.2794 21.7182 35.8599 21.1462C35.4404 20.5646 34.897 20.107 34.2487 19.7542C33.6004 19.4015 32.8091 19.2298 31.8843 19.2298C30.9595 19.2298 30.1682 19.4015 29.5103 19.7542C28.8525 20.107 28.309 20.5646 27.8896 21.1462C27.4701 21.7182 27.1554 22.376 26.9552 23.1006C26.755 23.8252 26.6501 24.5688 26.6501 25.3411C26.6597 26.0943 26.755 26.8379 26.9552 27.572Z" fill="white"/>
<path d="M41.0083 22.2616V24.1684H41.0465C41.3325 23.4724 41.7996 22.929 42.4384 22.5476C43.0772 22.1663 43.8113 21.9756 44.6312 21.9756C45.3939 21.9756 46.0613 22.1186 46.6238 22.4046C47.1863 22.6906 47.6534 23.072 48.0348 23.5582C48.4066 24.0444 48.6926 24.6069 48.8738 25.2552C49.0549 25.894 49.1407 26.5709 49.1407 27.286C49.1407 28.001 49.0454 28.6779 48.8642 29.3167C48.6831 29.9555 48.4066 30.518 48.0253 31.0042C47.6534 31.4904 47.1767 31.8718 46.6142 32.1483C46.0517 32.4247 45.3844 32.5677 44.6217 32.5677C44.2594 32.5677 43.8971 32.5201 43.5348 32.4343C43.1725 32.3389 42.8388 32.2055 42.5242 32.0243C42.2096 31.8432 41.9331 31.6144 41.6948 31.3474C41.4564 31.0709 41.2657 30.7563 41.1418 30.394H41.1037V36H39.8738L39.8833 22.2711L41.0083 22.2616ZM47.7202 25.7319C47.5962 25.2171 47.4056 24.7595 47.1386 24.3591C46.8717 23.9586 46.5284 23.625 46.1185 23.3771C45.699 23.1197 45.2032 22.9957 44.6217 22.9957C43.9448 22.9957 43.3823 23.1101 42.9342 23.3485C42.4765 23.5773 42.1142 23.8919 41.8473 24.2828C41.5708 24.6737 41.3801 25.1218 41.2753 25.6461C41.1609 26.161 41.1132 26.7044 41.1132 27.2764C41.1132 27.7913 41.1704 28.3061 41.2943 28.8209C41.4183 29.3358 41.6185 29.7934 41.895 30.1938C42.1715 30.5942 42.5337 30.9279 42.9818 31.1758C43.4299 31.4332 43.9734 31.5571 44.6217 31.5571C45.2032 31.5571 45.7085 31.4332 46.1185 31.1758C46.538 30.9279 46.8717 30.5942 47.1386 30.1938C47.4056 29.7934 47.5962 29.3358 47.7202 28.8209C47.8441 28.3061 47.9013 27.7913 47.9013 27.2764C47.9109 26.7616 47.8441 26.2468 47.7202 25.7319Z" fill="white"/>
<path d="M56.2529 24.2256C56.1099 23.9491 55.9192 23.7203 55.6809 23.5391C55.4425 23.358 55.1661 23.2245 54.8514 23.1387C54.5368 23.0529 54.2127 23.0148 53.8599 23.0148C53.5834 23.0148 53.3165 23.0434 53.0305 23.1006C52.754 23.1578 52.4966 23.2531 52.2582 23.3961C52.0294 23.5296 51.8387 23.7108 51.6957 23.93C51.5527 24.1493 51.486 24.4258 51.486 24.7499C51.486 25.0264 51.5527 25.2552 51.6862 25.4364C51.8197 25.6271 51.9913 25.7796 52.201 25.9131C52.4108 26.0466 52.6396 26.1514 52.8779 26.2372C53.1258 26.323 53.3546 26.3898 53.5548 26.4375L55.1851 26.8093C55.5379 26.8569 55.8811 26.9523 56.2243 27.0953C56.5675 27.2288 56.8726 27.4099 57.1396 27.6292C57.4065 27.8485 57.6258 28.125 57.7879 28.4491C57.9595 28.7733 58.0358 29.1546 58.0358 29.5932C58.0358 30.1366 57.9118 30.6038 57.6639 30.9851C57.4161 31.3665 57.1014 31.6811 56.7201 31.9194C56.3387 32.1578 55.9097 32.3294 55.4235 32.4343C54.9468 32.5391 54.4701 32.5868 54.0029 32.5868C52.8207 32.5868 51.8673 32.3103 51.1332 31.7478C50.3991 31.1949 49.9796 30.2987 49.8843 29.0593H51.1142C51.1618 29.8887 51.4669 30.518 52.0199 30.9375C52.5728 31.3569 53.2497 31.5667 54.0697 31.5667C54.3652 31.5667 54.6798 31.5381 54.9944 31.4713C55.3091 31.4046 55.6046 31.2997 55.8811 31.1377C56.1576 30.9851 56.3769 30.7849 56.5485 30.5466C56.7201 30.3082 56.8154 30.0127 56.8154 29.6599C56.8154 29.3644 56.7582 29.1165 56.6343 28.9067C56.5103 28.7065 56.3483 28.5349 56.1385 28.4014C55.9288 28.268 55.6904 28.1536 55.433 28.0582C55.1661 27.9724 54.8991 27.8866 54.6226 27.8199L53.0495 27.4671C52.6491 27.3622 52.2773 27.2383 51.9436 27.1048C51.6099 26.9713 51.3144 26.7997 51.057 26.5995C50.8091 26.3993 50.6089 26.1514 50.4658 25.8559C50.3324 25.5794 50.2656 25.2171 50.2656 24.7976C50.2656 24.2923 50.38 23.8538 50.6089 23.4915C50.8377 23.1292 51.1332 22.8336 51.4955 22.6144C51.8578 22.3951 52.2678 22.233 52.7158 22.1281C53.1639 22.0233 53.6025 21.9756 54.0506 21.9756C54.5559 21.9756 55.0231 22.0423 55.4616 22.1663C55.9002 22.2997 56.2815 22.5 56.6057 22.7669C56.9394 23.0434 57.1968 23.3771 57.397 23.7775C57.5877 24.1779 57.7021 24.6546 57.7307 25.198H56.5008C56.4722 24.8262 56.3959 24.5021 56.2529 24.2256Z" fill="white"/>
</svg>
