<svg width="200" height="73" viewBox="0 0 200 73" fill="none" xmlns="http://www.w3.org/2000/svg">
<path d="M90.53 43.57L88.07 33.65H88.03L85.6 43.56H82.36L78.5 29H81.7L84 38.92H84.04L86.58 29.01H89.58L92.06 39.05H92.1L94.49 29.02H97.63L93.71 43.57H90.53Z" fill="#00B3EC"/>
<path d="M100.84 41.04C101.27 41.46 101.9 41.67 102.72 41.67C103.3 41.67 103.81 41.52 104.23 41.23C104.65 40.94 104.91 40.63 105.01 40.3H107.56C107.15 41.56 106.53 42.47 105.68 43.01C104.84 43.55 103.82 43.82 102.62 43.82C101.79 43.82 101.04 43.69 100.38 43.42C99.71 43.15 99.15 42.78 98.69 42.29C98.23 41.8 97.87 41.22 97.62 40.54C97.37 39.86 97.24 39.11 97.24 38.3C97.24 37.51 97.37 36.78 97.63 36.1C97.89 35.42 98.26 34.83 98.73 34.34C99.21 33.84 99.77 33.45 100.43 33.17C101.09 32.88 101.82 32.74 102.62 32.74C103.52 32.74 104.3 32.91 104.97 33.26C105.64 33.61 106.18 34.07 106.61 34.66C107.04 35.25 107.35 35.91 107.54 36.66C107.73 37.41 107.8 38.19 107.74 39.01H100.13C100.16 39.94 100.4 40.62 100.84 41.04ZM104.11 35.5C103.76 35.12 103.24 34.93 102.53 34.93C102.07 34.93 101.68 35.01 101.38 35.16C101.07 35.32 100.83 35.51 100.65 35.74C100.47 35.97 100.34 36.22 100.26 36.47C100.18 36.73 100.14 36.96 100.13 37.16H104.84C104.7 36.44 104.46 35.88 104.11 35.5Z" fill="#00B3EC"/>
<path d="M108.87 36.28C108.91 35.6 109.08 35.04 109.38 34.59C109.68 34.14 110.06 33.78 110.52 33.51C110.98 33.24 111.5 33.04 112.08 32.93C112.66 32.81 113.24 32.76 113.82 32.76C114.35 32.76 114.89 32.8 115.43 32.87C115.97 32.95 116.47 33.09 116.92 33.31C117.37 33.53 117.74 33.83 118.02 34.22C118.31 34.61 118.45 35.12 118.45 35.76V41.25C118.45 41.73 118.48 42.18 118.53 42.62C118.58 43.06 118.68 43.38 118.82 43.6H115.88C115.83 43.44 115.78 43.27 115.75 43.1C115.72 42.93 115.69 42.76 115.68 42.58C115.22 43.06 114.67 43.39 114.05 43.58C113.42 43.77 112.79 43.86 112.13 43.86C111.63 43.86 111.16 43.8 110.72 43.68C110.28 43.56 109.9 43.37 109.58 43.11C109.25 42.85 109 42.53 108.82 42.13C108.64 41.74 108.54 41.27 108.55 40.72C108.55 40.12 108.66 39.63 108.87 39.24C109.08 38.85 109.35 38.54 109.69 38.31C110.02 38.08 110.4 37.91 110.83 37.79C111.26 37.67 111.69 37.58 112.13 37.52C112.57 37.45 112.99 37.4 113.42 37.36C113.84 37.32 114.22 37.26 114.54 37.18C114.87 37.1 115.12 36.98 115.32 36.82C115.51 36.66 115.6 36.44 115.59 36.14C115.59 35.83 115.54 35.58 115.44 35.4C115.34 35.22 115.2 35.07 115.03 34.97C114.86 34.87 114.66 34.8 114.44 34.77C114.22 34.74 113.97 34.72 113.72 34.72C113.15 34.72 112.7 34.84 112.37 35.09C112.04 35.33 111.85 35.74 111.8 36.31L108.87 36.28ZM115.55 38.42C115.43 38.53 115.27 38.61 115.09 38.67C114.91 38.73 114.71 38.78 114.5 38.82C114.29 38.86 114.07 38.89 113.84 38.92C113.61 38.95 113.38 38.98 113.15 39.02C112.93 39.06 112.72 39.12 112.51 39.18C112.3 39.25 112.12 39.34 111.96 39.46C111.8 39.58 111.68 39.72 111.58 39.9C111.48 40.08 111.44 40.3 111.44 40.57C111.44 40.83 111.49 41.05 111.58 41.22C111.67 41.4 111.8 41.54 111.97 41.64C112.13 41.74 112.32 41.81 112.54 41.85C112.76 41.89 112.98 41.91 113.21 41.91C113.78 41.91 114.22 41.82 114.54 41.63C114.85 41.44 115.08 41.21 115.23 40.95C115.38 40.68 115.47 40.42 115.51 40.14C115.54 39.87 115.56 39.65 115.56 39.49L115.55 38.42Z" fill="#00B3EC"/>
<path d="M122.64 43.59L119.04 33.04H122.08L124.3 40.24H124.34L126.57 33.04H129.45L125.87 43.58L122.64 43.59Z" fill="#00B3EC"/>
<path d="M133.01 41.06C133.44 41.48 134.07 41.69 134.89 41.69C135.47 41.69 135.98 41.54 136.4 41.25C136.82 40.96 137.08 40.65 137.18 40.32H139.73C139.32 41.58 138.7 42.49 137.85 43.03C137.01 43.57 135.99 43.84 134.79 43.84C133.96 43.84 133.21 43.71 132.55 43.44C131.88 43.17 131.32 42.8 130.86 42.31C130.4 41.82 130.04 41.24 129.79 40.56C129.54 39.88 129.41 39.13 129.41 38.32C129.41 37.53 129.54 36.8 129.8 36.12C130.06 35.44 130.43 34.85 130.9 34.36C131.38 33.86 131.94 33.47 132.6 33.19C133.26 32.9 133.99 32.76 134.79 32.76C135.69 32.76 136.47 32.93 137.14 33.28C137.81 33.63 138.35 34.09 138.78 34.68C139.21 35.27 139.52 35.93 139.71 36.68C139.9 37.43 139.97 38.21 139.91 39.03H132.3C132.33 39.96 132.57 40.64 133.01 41.06ZM136.28 35.52C135.93 35.14 135.41 34.95 134.7 34.95C134.24 34.95 133.85 35.03 133.55 35.18C133.24 35.34 133 35.53 132.82 35.76C132.64 35.99 132.51 36.24 132.43 36.49C132.36 36.75 132.31 36.98 132.3 37.18H137.01C136.87 36.45 136.63 35.9 136.28 35.52Z" fill="#00B3EC"/>
<path d="M153.63 42.87L153.45 40.22H153.41C153.16 40.74 152.86 41.18 152.5 41.56C152.14 41.93 151.74 42.24 151.31 42.48C150.87 42.72 150.41 42.89 149.91 43C149.41 43.11 148.9 43.16 148.37 43.16C147.23 43.16 146.22 42.95 145.36 42.54C144.5 42.12 143.78 41.57 143.21 40.88C142.64 40.19 142.21 39.38 141.93 38.47C141.64 37.56 141.5 36.6 141.5 35.59C141.5 34.58 141.64 33.63 141.93 32.71C142.22 31.8 142.64 30.99 143.22 30.29C143.79 29.59 144.51 29.03 145.37 28.62C146.23 28.21 147.24 28 148.38 28C149.14 28 149.86 28.1 150.54 28.31C151.22 28.51 151.83 28.82 152.36 29.23C152.89 29.64 153.34 30.14 153.71 30.74C154.08 31.34 154.33 32.04 154.46 32.84H153.07C153.03 32.42 152.89 31.99 152.65 31.56C152.41 31.13 152.09 30.74 151.69 30.39C151.29 30.04 150.81 29.75 150.25 29.52C149.69 29.3 149.07 29.18 148.37 29.18C147.4 29.18 146.57 29.36 145.88 29.73C145.19 30.1 144.62 30.58 144.18 31.19C143.74 31.79 143.41 32.48 143.2 33.24C142.99 34 142.88 34.78 142.88 35.59C142.88 36.38 142.98 37.16 143.19 37.93C143.4 38.7 143.73 39.39 144.17 39.99C144.61 40.6 145.18 41.08 145.87 41.45C146.56 41.82 147.39 42 148.36 42C149.16 42 149.88 41.87 150.51 41.6C151.14 41.34 151.68 40.97 152.11 40.49C152.55 40.01 152.87 39.45 153.09 38.8C153.31 38.15 153.41 37.43 153.4 36.66H148.44V35.48H154.62V42.88L153.63 42.87Z" fill="#00B3EC"/>
<path d="M157.93 32.3401L157.92 42.8701H156.64L156.65 32.3401H157.93ZM157.93 28.3101V30.3701H156.65V28.3101H157.93Z" fill="#00B3EC"/>
<path d="M164.09 32.3499V33.4299H161.95V40.5299C161.95 40.9499 162.01 41.2799 162.12 41.5199C162.24 41.7599 162.52 41.8899 162.99 41.9199C163.36 41.9199 163.72 41.8999 164.09 41.8599V42.9399C163.9 42.9399 163.71 42.9499 163.52 42.9599C163.33 42.9699 163.14 42.9799 162.95 42.9799C162.09 42.9799 161.5 42.8099 161.16 42.4799C160.82 42.1499 160.66 41.5299 160.67 40.6299V33.4299H158.83V32.3499H160.67V29.1899H161.95V32.3499H164.09Z" fill="#00B3EC"/>
<path d="M165.3 32.72C165.59 31.81 166.02 31 166.59 30.3C167.16 29.6 167.88 29.04 168.74 28.63C169.6 28.22 170.61 28.01 171.75 28.01C172.89 28.01 173.89 28.22 174.75 28.63C175.61 29.05 176.32 29.6 176.89 30.3C177.46 31 177.89 31.81 178.17 32.72C178.46 33.63 178.6 34.59 178.6 35.6C178.6 36.61 178.46 37.57 178.17 38.48C177.88 39.39 177.45 40.19 176.88 40.89C176.31 41.58 175.59 42.14 174.74 42.55C173.88 42.96 172.88 43.17 171.74 43.17C170.6 43.17 169.59 42.96 168.73 42.55C167.87 42.13 167.15 41.58 166.58 40.89C166.01 40.2 165.58 39.39 165.3 38.48C165.02 37.57 164.87 36.61 164.87 35.6C164.87 34.59 165.02 33.63 165.3 32.72ZM166.57 37.93C166.78 38.7 167.11 39.39 167.55 39.99C167.99 40.6 168.56 41.08 169.25 41.45C169.94 41.82 170.77 42 171.74 42C172.71 42 173.53 41.82 174.22 41.45C174.91 41.08 175.47 40.6 175.91 39.99C176.35 39.39 176.68 38.7 176.89 37.93C177.1 37.16 177.21 36.38 177.21 35.59C177.21 34.79 177.11 34.01 176.89 33.24C176.68 32.48 176.35 31.79 175.91 31.19C175.47 30.58 174.9 30.1 174.22 29.73C173.54 29.36 172.71 29.18 171.74 29.18C170.77 29.18 169.94 29.36 169.25 29.73C168.56 30.1 167.99 30.58 167.55 31.19C167.11 31.79 166.78 32.48 166.57 33.24C166.36 34 166.25 34.78 166.25 35.59C166.26 36.38 166.36 37.16 166.57 37.93Z" fill="#00B3EC"/>
<path d="M181.31 32.3601V34.3601H181.35C181.65 33.6301 182.14 33.0601 182.81 32.6601C183.48 32.2601 184.25 32.0601 185.11 32.0601C185.91 32.0601 186.61 32.2101 187.2 32.5101C187.79 32.8101 188.28 33.2101 188.68 33.7201C189.07 34.2301 189.37 34.8201 189.56 35.5001C189.75 36.1701 189.84 36.8801 189.84 37.6301C189.84 38.3801 189.74 39.0901 189.55 39.7601C189.36 40.4301 189.07 41.0201 188.67 41.5301C188.28 42.0401 187.78 42.4401 187.19 42.7301C186.6 43.0201 185.9 43.1701 185.1 43.1701C184.72 43.1701 184.34 43.1201 183.96 43.0301C183.58 42.9301 183.23 42.7901 182.9 42.6001C182.57 42.4101 182.28 42.1701 182.03 41.8901C181.78 41.6001 181.58 41.2701 181.45 40.8901H181.41V46.7701H180.12L180.13 32.3701L181.31 32.3601ZM188.35 36.0001C188.22 35.4601 188.02 34.9801 187.74 34.5601C187.46 34.1401 187.1 33.7901 186.67 33.5301C186.23 33.2601 185.71 33.1301 185.1 33.1301C184.39 33.1301 183.8 33.2501 183.33 33.5001C182.85 33.7401 182.47 34.0701 182.19 34.4801C181.9 34.8901 181.7 35.3601 181.59 35.9101C181.47 36.4501 181.42 37.0201 181.42 37.6201C181.42 38.1601 181.48 38.7001 181.61 39.2401C181.74 39.7801 181.95 40.2601 182.24 40.6801C182.53 41.1001 182.91 41.4501 183.38 41.7101C183.85 41.9801 184.42 42.1101 185.1 42.1101C185.71 42.1101 186.24 41.9801 186.67 41.7101C187.11 41.4501 187.46 41.1001 187.74 40.6801C188.02 40.2601 188.22 39.7801 188.35 39.2401C188.48 38.7001 188.54 38.1601 188.54 37.6201C188.55 37.0801 188.48 36.5401 188.35 36.0001Z" fill="#00B3EC"/>
<path d="M197.3 34.4201C197.15 34.1301 196.95 33.8901 196.7 33.7001C196.45 33.5101 196.16 33.3701 195.83 33.2801C195.5 33.1901 195.16 33.1501 194.79 33.1501C194.5 33.1501 194.22 33.1801 193.92 33.2401C193.63 33.3001 193.36 33.4001 193.11 33.5501C192.87 33.6901 192.67 33.8801 192.52 34.1101C192.37 34.3401 192.3 34.6301 192.3 34.9701C192.3 35.2601 192.37 35.5001 192.51 35.6901C192.65 35.8901 192.83 36.0501 193.05 36.1901C193.27 36.3301 193.51 36.4401 193.76 36.5301C194.02 36.6201 194.26 36.6901 194.47 36.7401L196.18 37.1301C196.55 37.1801 196.91 37.2801 197.27 37.4301C197.63 37.5701 197.95 37.7601 198.23 37.9901C198.51 38.2201 198.74 38.5101 198.91 38.8501C199.09 39.1901 199.17 39.5901 199.17 40.0501C199.17 40.6201 199.04 41.1101 198.78 41.5101C198.52 41.9101 198.19 42.2401 197.79 42.4901C197.39 42.7401 196.94 42.9201 196.43 43.0301C195.93 43.1401 195.43 43.1901 194.94 43.1901C193.7 43.1901 192.7 42.9001 191.93 42.3101C191.16 41.7301 190.72 40.7901 190.62 39.4901H191.91C191.96 40.3601 192.28 41.0201 192.86 41.4601C193.44 41.9001 194.15 42.1201 195.01 42.1201C195.32 42.1201 195.65 42.0901 195.98 42.0201C196.31 41.9501 196.62 41.8401 196.91 41.6701C197.2 41.5101 197.43 41.3001 197.61 41.0501C197.79 40.8001 197.89 40.4901 197.89 40.1201C197.89 39.8101 197.83 39.5501 197.7 39.3301C197.57 39.1201 197.4 38.9401 197.18 38.8001C196.96 38.6601 196.71 38.5401 196.44 38.4401C196.16 38.3501 195.88 38.2601 195.59 38.1901L193.94 37.8201C193.52 37.7101 193.13 37.5801 192.78 37.4401C192.43 37.3001 192.12 37.1201 191.85 36.9101C191.59 36.7001 191.38 36.4401 191.23 36.1301C191.09 35.8401 191.02 35.4601 191.02 35.0201C191.02 34.4901 191.14 34.0301 191.38 33.6501C191.62 33.2701 191.93 32.9601 192.31 32.7301C192.69 32.5001 193.12 32.3301 193.59 32.2201C194.06 32.1101 194.52 32.0601 194.99 32.0601C195.52 32.0601 196.01 32.1301 196.47 32.2601C196.93 32.4001 197.33 32.6101 197.67 32.8901C198.02 33.1801 198.29 33.5301 198.5 33.9501C198.7 34.3701 198.82 34.8701 198.85 35.4401H197.56C197.53 35.0501 197.45 34.7101 197.3 34.4201Z" fill="#00B3EC"/>
<g clip-path="url(#clip0_2916_102)">
<path d="M35.5 72.84C54.83 72.84 70.5 56.5342 70.5 36.42C70.5 16.3058 54.83 0 35.5 0C16.17 0 0.5 16.3058 0.5 36.42C0.5 56.5342 16.17 72.84 35.5 72.84Z" fill="white"/>
<path d="M55.93 39.06C54.65 49.74 45.97 58 35.5 58C24.14 58 14.89 48.27 14.89 36.3C14.89 24.33 24.12 14.64 35.5 14.64C38.8586 14.6683 42.1579 15.5278 45.1034 17.1419C48.0489 18.756 50.5488 21.0743 52.38 23.89C53.94 22.66 57.67 19.76 59.25 18.62C56.6089 14.7507 53.0676 11.5806 48.9306 9.38236C44.7936 7.18409 40.1847 6.02338 35.5 6C19.32 6 6.21997 19.57 6.21997 36.33C6.21997 53.09 19.32 66.69 35.5 66.69C50.62 66.69 63.06 54.8 64.6 39.55C61.92 39.51 58.94 39.32 55.93 39.06Z" fill="#32314A"/>
<path d="M52.0599 40.83L30.9399 63.41V66.32C32.4409 66.5647 33.9591 66.6885 35.4799 66.69C37.1056 66.6872 38.728 66.5467 40.3299 66.27L64.1299 40.83H52.0599Z" fill="#00D2FF"/>
<path d="M33.1001 43.0601L16.3201 59.2701C18.5697 61.3023 21.124 62.9692 23.8901 64.2101L39.2301 49.4101L33.1001 43.0601Z" fill="#FF4B19"/>
<path d="M35.5 14.64C33.9777 14.6382 32.4605 14.8161 30.98 15.17V66.33C32.4751 66.5669 33.9863 66.6872 35.5 66.69C37.0988 66.691 38.6948 66.5539 40.27 66.28V15.28C38.7129 14.8685 37.1105 14.6535 35.5 14.64Z" fill="#00D2FF"/>
<path d="M14.8799 35.69V57.89C17.3803 60.4686 20.3325 62.5666 23.5899 64.08V18.62C20.9473 20.6266 18.7916 23.2037 17.2835 26.1593C15.7754 29.1149 14.9538 32.3727 14.8799 35.69Z" fill="#FF4B19"/>
<path d="M38.18 14.83L23.55 28.18V40.09L47.21 18.5C44.5523 16.5444 41.4485 15.2829 38.18 14.83Z" fill="#576A92"/>
<path d="M56.07 36.4301C56.0781 38.8055 55.7137 41.1675 54.99 43.4301H63.99C64.5053 41.1325 64.7635 38.7847 64.76 36.4301C64.76 35.8001 64.76 35.1801 64.7 34.5601H55.99C56.04 35.1801 56.07 35.8001 56.07 36.4301Z" fill="#32314A"/>
<path d="M45.1101 34.5601V43.3801H63.9501C64.237 42.1206 64.4474 40.8449 64.5801 39.5601V34.5601H45.1101Z" fill="#32314A"/>
</g>
<defs>
<clipPath id="clip0_2916_102">
<rect width="70" height="72.85" fill="white" transform="translate(0.5)"/>
</clipPath>
</defs>
</svg>
